<?xml version="1.0" encoding="UTF-8"?>
<svg width="1676px" height="429px" viewBox="0 0 1676 429" version="1.1" xmlns="http://www.w3.org/2000/svg" xmlns:xlink="http://www.w3.org/1999/xlink">
    <title>winter_shift1</title>
    <g id="winter_shift1" stroke="none" stroke-width="1" fill="none" fill-rule="evenodd">
        <rect id="Rectangle" fill="#8A8A8A" x="0" y="107" width="64" height="282"></rect>
        <rect id="Rectangle" fill="#786F63" x="68" y="192" width="65" height="196"></rect>
        <rect id="Rectangle" stroke="#979797" fill="#313D70" x="27.5" y="87.5" width="94" height="301"></rect>
        <line x1="58" y1="88" x2="58" y2="389" id="Line" stroke="#979797" stroke-linecap="square"></line>
        <line x1="27.5" y1="119.5" x2="120.5" y2="119.5" id="Line" stroke="#979797" stroke-linecap="square"></line>
        <line x1="29" y1="151" x2="122" y2="151" id="Line" stroke="#979797" stroke-linecap="square"></line>
        <line x1="28" y1="183" x2="121" y2="183" id="Line" stroke="#979797" stroke-linecap="square"></line>
        <line x1="28" y1="215" x2="121" y2="215" id="Line" stroke="#979797" stroke-linecap="square"></line>
        <line x1="28" y1="247" x2="121" y2="247" id="Line" stroke="#979797" stroke-linecap="square"></line>
        <line x1="28" y1="277" x2="121" y2="277" id="Line" stroke="#979797" stroke-linecap="square"></line>
        <line x1="28" y1="309" x2="121" y2="309" id="Line" stroke="#979797" stroke-linecap="square"></line>
        <line x1="28" y1="341" x2="121" y2="341" id="Line" stroke="#979797" stroke-linecap="square"></line>
        <line x1="28" y1="369" x2="121" y2="369" id="Line" stroke="#979797" stroke-linecap="square"></line>
        <line x1="91" y1="88" x2="91" y2="389" id="Line" stroke="#979797" stroke-linecap="square"></line>
        <rect id="Rectangle" stroke="#979797" fill="#63ABD0" x="0.5" y="401.5" width="1675" height="27"></rect>
        <rect id="Rectangle" stroke="#979797" fill="#BCBCBC" x="0.5" y="388.5" width="1675" height="13"></rect>
        <rect id="Rectangle" stroke="#000000" fill="#3A3A3A" x="8.5" y="123.5" width="73" height="265"></rect>
        <rect id="Rectangle" stroke="#565656" fill="#FFDE87" x="26.5" y="204.5" width="18" height="12"></rect>
        <rect id="Rectangle" stroke="#565656" fill="#FFDE87" x="45.5" y="163" width="18" height="12"></rect>
        <line x1="44.5" y1="124.017578" x2="44.5" y2="387.982422" id="Line-2" stroke="#565656" stroke-linecap="square"></line>
        <line x1="64" y1="123.017578" x2="64" y2="387.98" id="Line-2" stroke="#565656" stroke-linecap="square"></line>
        <line x1="26" y1="123.017578" x2="26" y2="387.98" id="Line-2" stroke="#565656" stroke-linecap="square"></line>
        <line x1="8.5" y1="135.5" x2="82.5" y2="135.5" id="Line-2" stroke="#565656" stroke-linecap="square"></line>
        <line x1="8.5" y1="149" x2="82.5" y2="149" id="Line-2" stroke="#565656" stroke-linecap="square"></line>
        <line x1="8.5" y1="162" x2="82.5" y2="162" id="Line-2" stroke="#565656" stroke-linecap="square"></line>
        <line x1="8.5" y1="176" x2="82.5" y2="176" id="Line-2" stroke="#565656" stroke-linecap="square"></line>
        <line x1="8.5" y1="190" x2="82.5" y2="190" id="Line-2" stroke="#565656" stroke-linecap="square"></line>
        <line x1="8.5" y1="204" x2="82.5" y2="204" id="Line-2" stroke="#565656" stroke-linecap="square"></line>
        <line x1="8.5" y1="217" x2="82.5" y2="217" id="Line-2" stroke="#565656" stroke-linecap="square"></line>
        <line x1="8.5" y1="231" x2="82.5" y2="231" id="Line-2" stroke="#565656" stroke-linecap="square"></line>
        <line x1="8.5" y1="245" x2="82.5" y2="245" id="Line-2" stroke="#565656" stroke-linecap="square"></line>
        <line x1="8.5" y1="260" x2="82.5" y2="260" id="Line-2" stroke="#565656" stroke-linecap="square"></line>
        <line x1="8.5" y1="274" x2="82.5" y2="274" id="Line-2" stroke="#565656" stroke-linecap="square"></line>
        <line x1="8.5" y1="288" x2="82.5" y2="288" id="Line-2" stroke="#565656" stroke-linecap="square"></line>
        <line x1="8.5" y1="301" x2="82.5" y2="301" id="Line-2" stroke="#565656" stroke-linecap="square"></line>
        <line x1="8.5" y1="315" x2="82.5" y2="315" id="Line-2" stroke="#565656" stroke-linecap="square"></line>
        <line x1="8.5" y1="330" x2="82.5" y2="330" id="Line-2" stroke="#565656" stroke-linecap="square"></line>
        <line x1="8.5" y1="345" x2="82.5" y2="345" id="Line-2" stroke="#565656" stroke-linecap="square"></line>
        <line x1="8.5" y1="360" x2="82.5" y2="360" id="Line-2" stroke="#565656" stroke-linecap="square"></line>
        <line x1="8.5" y1="374" x2="82.5" y2="374" id="Line-2" stroke="#565656" stroke-linecap="square"></line>
        <rect id="Rectangle" stroke="#979797" fill="#BAAE9C" x="0.5" y="228.5" width="73" height="160"></rect>
        <rect id="Rectangle" stroke="#979797" fill="#3F3F3F" x="0.5" y="237.5" width="22" height="7"></rect>
        <rect id="Rectangle" stroke="#979797" fill="#3F3F3F" x="0.5" y="253.5" width="22" height="7"></rect>
        <rect id="Rectangle" stroke="#979797" fill="#3F3F3F" x="0.5" y="269.5" width="22" height="7"></rect>
        <rect id="Rectangle" stroke="#979797" fill="#3F3F3F" x="0.5" y="285.5" width="22" height="7"></rect>
        <rect id="Rectangle" stroke="#979797" fill="#3F3F3F" x="0.5" y="301.5" width="22" height="7"></rect>
        <rect id="Rectangle" stroke="#979797" fill="#3F3F3F" x="0.5" y="317.5" width="22" height="7"></rect>
        <rect id="Rectangle" stroke="#979797" fill="#3F3F3F" x="0.5" y="333.5" width="22" height="7"></rect>
        <rect id="Rectangle" stroke="#979797" fill="#3F3F3F" x="0.5" y="349.5" width="22" height="7"></rect>
        <rect id="Rectangle" stroke="#979797" fill="#3F3F3F" x="0.5" y="365.5" width="22" height="7"></rect>
        <rect id="Rectangle" stroke="#979797" fill="#3F3F3F" x="37.5" y="237.5" width="29" height="7"></rect>
        <rect id="Rectangle" stroke="#979797" fill="#3F3F3F" x="37.5" y="253.5" width="29" height="7"></rect>
        <rect id="Rectangle" stroke="#979797" fill="#3F3F3F" x="37.5" y="269.5" width="29" height="7"></rect>
        <rect id="Rectangle" stroke="#979797" fill="#3F3F3F" x="37.5" y="285.5" width="29" height="7"></rect>
        <rect id="Rectangle" stroke="#979797" fill="#3F3F3F" x="37.5" y="301.5" width="29" height="7"></rect>
        <rect id="Rectangle" stroke="#979797" fill="#3F3F3F" x="37.5" y="317.5" width="29" height="7"></rect>
        <rect id="Rectangle" stroke="#979797" fill="#3F3F3F" x="37.5" y="333.5" width="29" height="7"></rect>
        <rect id="Rectangle" stroke="#979797" fill="#3F3F3F" x="37.5" y="349.5" width="29" height="7"></rect>
        <rect id="Rectangle" stroke="#979797" fill="#3F3F3F" x="37.5" y="365.5" width="29" height="7"></rect>
        <line x1="184.875" y1="216.875" x2="244.5" y2="296.5" id="Line-3" stroke="#888888" stroke-linecap="square"></line>
        <line x1="168.8125" y1="215.8125" x2="228.4375" y2="295.4375" id="Line-3" stroke="#888888" stroke-linecap="square" transform="translate(198.812500, 255.812500) scale(-1, 1) translate(-198.812500, -255.812500) "></line>
        <line x1="193.75" y1="172.75" x2="228.5" y2="215.5" id="Line-3" stroke="#888888" stroke-linecap="square"></line>
        <line x1="184.875" y1="173.875" x2="219.625" y2="216.625" id="Line-3" stroke="#888888" stroke-linecap="square" transform="translate(202.375000, 195.375000) scale(-1, 1) translate(-202.375000, -195.375000) "></line>
        <line x1="198.5" y1="149.25" x2="220" y2="171.5" id="Line-3" stroke="#888888" stroke-linecap="square"></line>
        <line x1="194" y1="149" x2="215.5" y2="171.25" id="Line-3" stroke="#888888" stroke-linecap="square" transform="translate(204.750000, 160.125000) scale(-1, 1) translate(-204.750000, -160.125000) "></line>
        <polygon id="Path-3" stroke="#979797" fill="#A2A2A2" points="192 149 197.855469 149 151.4621 387.98 145.882148 387.98"></polygon>
        <polygon id="Path-3" stroke="#979797" fill="#A2A2A2" transform="translate(241.986660, 269.490000) scale(-1, 1) translate(-241.986660, -269.490000) " points="262.117852 150 267.973321 150 221.579952 388.98 216 388.98"></polygon>
        <line x1="154.875" y1="227.875" x2="233.625" y2="333.625" id="Line-3" stroke="#979797" stroke-linecap="square" transform="translate(194.375000, 280.875000) scale(-1, 1) translate(-194.375000, -280.875000) "></line>
        <line x1="179.75" y1="227.75" x2="258.5" y2="333.5" id="Line-3" stroke="#979797" stroke-linecap="square"></line>
        <line x1="179.75" y1="176.75" x2="221.25" y2="228.25" id="Line-3" stroke="#979797" stroke-linecap="square" transform="translate(200.750000, 202.750000) scale(-1, 1) translate(-200.750000, -202.750000) "></line>
        <line x1="192" y1="176" x2="233.5" y2="227.5" id="Line-3" stroke="#979797" stroke-linecap="square"></line>
        <line x1="192" y1="149" x2="215.5" y2="176.25" id="Line-3" stroke="#979797" stroke-linecap="square" transform="translate(203.750000, 162.625000) scale(-1, 1) translate(-203.750000, -162.625000) "></line>
        <line x1="198.5" y1="149.25" x2="222" y2="176.5" id="Line-3" stroke="#979797" stroke-linecap="square"></line>
        <polygon id="Path" stroke="#979797" fill="#B9B9B9" points="127.410156 429 191.980469 149 197.855469 149 133.492188 429"></polygon>
        <polygon id="Path" stroke="#979797" fill="#B9B9B9" transform="translate(251.222656, 289.000000) scale(-1, 1) translate(-251.222656, -289.000000) " points="216 429 280.570312 149 286.445312 149 222.082031 429"></polygon>
        <polygon id="Path-4" stroke="#979797" fill="#A5A5A5" points="133.492188 429 280.363281 429 270.657905 386.23494 143.269747 386.23494"></polygon>
        <rect id="Rectangle" stroke="#FFFFFF" fill="#C0AD94" x="554.5" y="282.5" width="250" height="105"></rect>
        <rect id="Rectangle" fill="#C0AD94" x="654" y="251" width="51" height="49"></rect>
        <rect id="Rectangle" stroke="#FFFFFF" fill="#FFFFFF" x="655.5" y="303.5" width="5" height="45"></rect>
        <rect id="Rectangle" stroke="#FFFFFF" fill="#FFFFFF" x="669.5" y="303.5" width="5" height="45"></rect>
        <rect id="Rectangle" stroke="#FFFFFF" fill="#FFFFFF" x="684.5" y="303.5" width="5" height="45"></rect>
        <rect id="Rectangle" stroke="#FFFFFF" fill="#FFFFFF" x="698.5" y="303.5" width="5" height="45"></rect>
        <line x1="561" y1="288" x2="561" y2="382" id="Line-5" stroke="#917F6D" stroke-linecap="square"></line>
        <line x1="588" y1="288" x2="588" y2="382" id="Line-5" stroke="#917F6D" stroke-linecap="square"></line>
        <line x1="582" y1="288" x2="582" y2="382" id="Line-5" stroke="#917F6D" stroke-linecap="square"></line>
        <line x1="777" y1="288" x2="777" y2="382" id="Line-5" stroke="#917F6D" stroke-linecap="square"></line>
        <line x1="771" y1="288" x2="771" y2="382" id="Line-5" stroke="#917F6D" stroke-linecap="square"></line>
        <line x1="798" y1="288" x2="798" y2="382" id="Line-5" stroke="#917F6D" stroke-linecap="square"></line>
        <line x1="612" y1="288" x2="612" y2="382" id="Line-5" stroke="#917F6D" stroke-linecap="square"></line>
        <line x1="654.5" y1="341.5" x2="606.5" y2="341.5" id="Line-4" stroke="#FFFFFF" stroke-width="1.5" stroke-linecap="square"></line>
        <line x1="746.5" y1="288" x2="746" y2="382" id="Line-5" stroke="#917F6D" stroke-linecap="square"></line>
        <line x1="751" y1="342" x2="703" y2="342" id="Line-4" stroke="#FFFFFF" stroke-width="1.5" stroke-linecap="square"></line>
        <line x1="606" y1="288" x2="606" y2="382" id="Line-5" stroke="#917F6D" stroke-linecap="square"></line>
        <line x1="752.5" y1="288" x2="752" y2="382" id="Line-5" stroke="#917F6D" stroke-linecap="square"></line>
        <polygon id="Path-2" stroke="#FFFFFF" fill="#C9B69E" points="554 386.728197 554 365 616.554163 365 634.373061 375.728197 654.798678 376.228197 654.798678 386.728197"></polygon>
        <polygon id="Path-2" stroke="#FFFFFF" fill="#C9B69E" transform="translate(754.399339, 375.864099) scale(-1, 1) translate(-754.399339, -375.864099) " points="704 386.728197 704 365 766.554163 365 784.373061 375.728197 804.798678 376.228197 804.798678 386.728197"></polygon>
        <line x1="661" y1="291" x2="661" y2="340.25" id="Line-5" stroke="#917F6D" stroke-linecap="square"></line>
        <line x1="698.5" y1="291" x2="698.5" y2="340.25" id="Line-5" stroke="#917F6D" stroke-linecap="square"></line>
        <line x1="737" y1="291" x2="737" y2="340.25" id="Line-5" stroke="#917F6D" stroke-linecap="square"></line>
        <rect id="Rectangle" stroke="#FFFFFF" fill="#FFFFFF" x="655.5" y="305.5" width="48" height="43"></rect>
        <polyline id="Path-5" stroke="#FFFFFF" points="634.578148 375.864099 616.554163 365 654.798678 349 704 349 742.244515 365 724.425616 375.728197"></polyline>
        <rect id="Rectangle" fill="#624321" x="661" y="326" width="8" height="22"></rect>
        <rect id="Rectangle" fill="#624321" x="675.5" y="326" width="8" height="22"></rect>
        <rect id="Rectangle" fill="#624321" x="690" y="326" width="8" height="22"></rect>
        <rect id="Rectangle" fill="#000000" x="661" y="315" width="8" height="8"></rect>
        <rect id="Rectangle" fill="#000000" x="675.5" y="315" width="8" height="8"></rect>
        <rect id="Rectangle" fill="#000000" x="690" y="315" width="8" height="8"></rect>
        <circle id="Oval" fill="#000000" cx="665" cy="315" r="4"></circle>
        <rect id="Rectangle" fill="#8D8D8D" x="676.5" y="360" width="6" height="21"></rect>
        <circle id="Oval" fill="#8D8D8D" cx="679.5" cy="360" r="3"></circle>
        <rect id="Rectangle" fill="#8D8D8D" x="684.25" y="360" width="6" height="21"></rect>
        <circle id="Oval" fill="#8D8D8D" cx="687.25" cy="360" r="3"></circle>
        <circle id="Oval" fill="#8D8D8D" cx="695" cy="360" r="3"></circle>
        <rect id="Rectangle" fill="#8D8D8D" x="692" y="360" width="6" height="21"></rect>
        <rect id="Rectangle" fill="#8D8D8D" x="661" y="360" width="6" height="21"></rect>
        <circle id="Oval" fill="#8D8D8D" cx="664" cy="360" r="3"></circle>
        <rect id="Rectangle" fill="#8D8D8D" x="668.75" y="360" width="6" height="21"></rect>
        <circle id="Oval" fill="#8D8D8D" cx="671.75" cy="360" r="3"></circle>
        <circle id="Oval" fill="#000000" cx="679.5" cy="315" r="4"></circle>
        <circle id="Oval" fill="#000000" cx="694" cy="315" r="4"></circle>
        <polygon id="Path-6" stroke="#C0AD94" fill="#FFFFFF" points="622 290 622 262.893106 630.199529 262.893106 630.199529 269 653 269 653 262.893106 661 262.893106 661 290"></polygon>
        <polygon id="Path-6" stroke="#C0AD94" fill="#FFFFFF" points="698 290.106894 698 263 706.199529 263 706.199529 269.106894 729 269.106894 729 263 737 263 737 290.106894"></polygon>
        <rect id="Rectangle" stroke="#C0AD94" fill="#FFFFFF" x="654.5" y="245.5" width="15" height="15"></rect>
        <rect id="Rectangle" stroke="#C0AD94" fill="#FFFFFF" x="689.5" y="245.5" width="15" height="15"></rect>
        <rect id="Rectangle" fill="#FFFFFF" x="675.5" y="262" width="8" height="25"></rect>
        <rect id="Rectangle" fill="#FFFFFF" x="664" y="262" width="8" height="25"></rect>
        <rect id="Rectangle" fill="#FFFFFF" x="687" y="262" width="8" height="25"></rect>
        <rect id="Rectangle" stroke="#C0AD94" fill="#FFFFFF" x="602.5" y="280.5" width="13" height="6"></rect>
        <rect id="Rectangle" stroke="#C0AD94" fill="#FFFFFF" x="578.5" y="280.5" width="13" height="6"></rect>
        <rect id="Rectangle" stroke="#C0AD94" fill="#FFFFFF" x="554.5" y="280.5" width="13" height="6"></rect>
        <rect id="Rectangle" stroke="#C0AD94" fill="#FFFFFF" x="791.5" y="280.5" width="13" height="6"></rect>
        <rect id="Rectangle" stroke="#C0AD94" fill="#FFFFFF" x="767.5" y="280.5" width="13" height="6"></rect>
        <rect id="Rectangle" stroke="#C0AD94" fill="#FFFFFF" x="743.5" y="280.5" width="13" height="6"></rect>
        <line x1="622.5" y1="291" x2="622.5" y2="340.25" id="Line-5" stroke="#917F6D" stroke-linecap="square"></line>
        <rect id="Rectangle" stroke="#979797" fill="#EAEAEA" x="305.5" y="309.5" width="259" height="79"></rect>
        <path d="M341.5,300.547159 L370.643893,313.5 L312.356107,313.5 L341.5,300.547159 Z" id="Triangle" stroke="#979797" fill="#EAEAEA"></path>
        <path d="M528.5,300.547159 L557.643893,313.5 L499.356107,313.5 L528.5,300.547159 Z" id="Triangle" stroke="#979797" fill="#EAEAEA"></path>
        <ellipse id="Oval" stroke="#979797" fill="#EAEAEA" cx="435" cy="265.5" rx="20.5" ry="37"></ellipse>
        <rect id="Rectangle" stroke="#979797" fill="#E7E7E7" x="407.5" y="266.5" width="55" height="32"></rect>
        <rect id="Rectangle" stroke="#979797" fill="#EAEAEA" x="404.5" y="263.5" width="62" height="7"></rect>
        <rect id="Rectangle" stroke="#979797" fill="#EAEAEA" x="443.5" y="270.5" width="7" height="33"></rect>
        <rect id="Rectangle" stroke="#979797" fill="#EAEAEA" x="455.5" y="270.5" width="7" height="33"></rect>
        <rect id="Rectangle" stroke="#979797" fill="#EAEAEA" x="432" y="270.5" width="7" height="33"></rect>
        <rect id="Rectangle" stroke="#979797" fill="#EAEAEA" x="419.5" y="270.5" width="7" height="33"></rect>
        <rect id="Rectangle" stroke="#979797" fill="#EAEAEA" x="407.5" y="270.5" width="7" height="33"></rect>
        <path d="M435.5,286.547159 L464.643893,299.5 L406.356107,299.5 L435.5,286.547159 Z" id="Triangle" stroke="#979797" fill="#EAEAEA"></path>
        <rect id="Rectangle" stroke="#979797" fill="#EAEAEA" x="398.5" y="299.5" width="73" height="13"></rect>
        <rect id="Rectangle" stroke="#979797" fill="#EAEAEA" x="383.5" y="289.5" width="18" height="99"></rect>
        <rect id="Rectangle" stroke="#979797" fill="#EAEAEA" x="383.5" y="306.5" width="18" height="13"></rect>
        <rect id="Rectangle" stroke="#979797" fill="#EAEAEA" x="433" y="216.5" width="4" height="13"></rect>
        <rect id="Rectangle" stroke="#979797" fill="#EAEAEA" x="468.5" y="289.5" width="18" height="99"></rect>
        <rect id="Rectangle" stroke="#979797" fill="#EAEAEA" x="394.5" y="386.5" width="81" height="2"></rect>
        <rect id="Rectangle" stroke="#979797" fill="#EAEAEA" x="395.5" y="384.5" width="79" height="2"></rect>
        <rect id="Rectangle" stroke="#979797" fill="#EAEAEA" x="396.5" y="382.5" width="77" height="2"></rect>
        <rect id="Rectangle" stroke="#979797" fill="#EAEAEA" x="397.5" y="380.5" width="75" height="2"></rect>
        <rect id="Rectangle" stroke="#979797" fill="#EAEAEA" x="398.5" y="378.5" width="73" height="2"></rect>
        <rect id="Rectangle" stroke="#979797" fill="#EAEAEA" x="399.5" y="376.5" width="71" height="2"></rect>
        <rect id="Rectangle" stroke="#979797" fill="#EAEAEA" x="400.5" y="374.5" width="69" height="2"></rect>
        <rect id="Rectangle" stroke="#979797" fill="#EAEAEA" x="468.5" y="306.5" width="18" height="13"></rect>
        <rect id="Rectangle" stroke="#979797" fill="#D8D8D8" x="428.5" y="325.5" width="13" height="49"></rect>
        <rect id="Rectangle" stroke="#979797" fill="#D8D8D8" x="408.5" y="325.5" width="13" height="49"></rect>
        <rect id="Rectangle" stroke="#979797" fill="#D8D8D8" x="448.5" y="325.5" width="13" height="49"></rect>
        <rect id="Rectangle" stroke="#979797" fill="#F3F3F3" x="335.5" y="325.5" width="13" height="56"></rect>
        <rect id="Rectangle" stroke="#979797" fill="#F3F3F3" x="315.5" y="325.5" width="13" height="56"></rect>
        <rect id="Rectangle" stroke="#979797" fill="#F3F3F3" x="355.5" y="325.5" width="13" height="56"></rect>
        <rect id="Rectangle" stroke="#979797" fill="#F3F3F3" x="521.5" y="325.5" width="13" height="56"></rect>
        <rect id="Rectangle" stroke="#979797" fill="#F3F3F3" x="501.5" y="325.5" width="13" height="56"></rect>
        <rect id="Rectangle" stroke="#979797" fill="#F3F3F3" x="541.5" y="325.5" width="13" height="56"></rect>
        <rect id="Rectangle" fill="#FFFFFF" x="652" y="385" width="55" height="2"></rect>
        <rect id="Rectangle" fill="#FFFFFF" x="653" y="383" width="53" height="2"></rect>
        <rect id="Rectangle" fill="#FFFFFF" x="655" y="381" width="49" height="2"></rect>
        <rect id="Rectangle" stroke="#323247" fill="#9E6A6A" x="801" y="302.5" width="11" height="28"></rect>
        <polygon id="Path-9" stroke="#323247" fill="#9E6A6A" points="795.5 387.5 795.5 333.125 828.921161 308.5 862.038927 333.125 862.038927 387.5"></polygon>
        <line x1="829" y1="308.5" x2="787" y2="339.25" id="Line-6" stroke="#323247" stroke-linecap="square"></line>
        <line x1="871.5" y1="308.75" x2="829.5" y2="340" id="Line-6" stroke="#323247" stroke-linecap="square" transform="translate(850.500000, 324.375000) scale(-1, 1) translate(-850.500000, -324.375000) "></line>
        <rect id="Rectangle" stroke="#FFFFFF" fill="#D5E6F5" x="805" y="339.5" width="9" height="12"></rect>
        <rect id="Rectangle" stroke="#FFFFFF" fill="#D5E6F5" x="805" y="351.5" width="9" height="12"></rect>
        <rect id="Rectangle" stroke="#FFFFFF" fill="#D5E6F5" x="814" y="351.5" width="9" height="12"></rect>
        <rect id="Rectangle" stroke="#FFFFFF" fill="#D5E6F5" x="814" y="339.5" width="9" height="12"></rect>
        <rect id="Rectangle" stroke="#2C2C32" fill="#755640" x="834" y="352.5" width="18" height="35"></rect>
        <rect id="Rectangle" stroke="#323247" fill="#CFBFBF" x="942" y="302.5" width="11" height="28"></rect>
        <polygon id="Path-9" stroke="#323247" fill="#CFBFBF" points="893 387.5 893 333.125 926.421161 308.5 959.538927 333.125 959.538927 387.5"></polygon>
        <line x1="926.5" y1="308.5" x2="884.5" y2="339.25" id="Line-6" stroke="#323247" stroke-linecap="square"></line>
        <line x1="969" y1="308.75" x2="927" y2="340" id="Line-6" stroke="#323247" stroke-linecap="square" transform="translate(948.000000, 324.375000) scale(-1, 1) translate(-948.000000, -324.375000) "></line>
        <rect id="Rectangle" stroke="#FFFFFF" fill="#D5E6F5" x="933" y="339.5" width="9" height="12"></rect>
        <rect id="Rectangle" stroke="#FFFFFF" fill="#D5E6F5" x="933" y="351.5" width="9" height="12"></rect>
        <rect id="Rectangle" stroke="#FFFFFF" fill="#D5E6F5" x="942" y="351.5" width="9" height="12"></rect>
        <rect id="Rectangle" stroke="#FFFFFF" fill="#D5E6F5" x="942" y="339.5" width="9" height="12"></rect>
        <rect id="Rectangle" stroke="#2C2C32" fill="#755640" x="903" y="352.5" width="18" height="35"></rect>
        <rect id="Rectangle" stroke="#323247" fill="#9E6A6A" x="996.5" y="302.5" width="11" height="28"></rect>
        <polygon id="Path-9" stroke="#323247" fill="#9E6A6A" points="991 387.5 991 333.125 1024.42116 308.5 1057.53893 333.125 1057.53893 387.5"></polygon>
        <line x1="1024.5" y1="308.5" x2="982.5" y2="339.25" id="Line-6" stroke="#323247" stroke-linecap="square"></line>
        <line x1="1067" y1="308.75" x2="1025" y2="340" id="Line-6" stroke="#323247" stroke-linecap="square" transform="translate(1046.000000, 324.375000) scale(-1, 1) translate(-1046.000000, -324.375000) "></line>
        <rect id="Rectangle" stroke="#FFFFFF" fill="#D5E6F5" x="1000.5" y="339.5" width="9" height="12"></rect>
        <rect id="Rectangle" stroke="#FFFFFF" fill="#D5E6F5" x="1000.5" y="351.5" width="9" height="12"></rect>
        <rect id="Rectangle" stroke="#FFFFFF" fill="#D5E6F5" x="1009.5" y="351.5" width="9" height="12"></rect>
        <rect id="Rectangle" stroke="#FFFFFF" fill="#D5E6F5" x="1009.5" y="339.5" width="9" height="12"></rect>
        <rect id="Rectangle" stroke="#2C2C32" fill="#755640" x="1029.5" y="352.5" width="18" height="35"></rect>
        <circle id="Oval" fill="#000000" cx="836" cy="370.5" r="1"></circle>
        <circle id="Oval" fill="#000000" cx="919" cy="370.5" r="1"></circle>
        <circle id="Oval" fill="#000000" cx="1031.5" cy="370.5" r="1"></circle>
        <polygon id="Path-10" stroke="#63845F" fill="#A0AA89" points="795.5 387.5 793.667191 382 798 385 798 382 800.5 384 802.018067 382 804.5 384.75 805 382 808 384.75 808 382 811.164126 385 812.5 382 813.5 384 816.240546 382 818.5 384.75 820.59135 382 822.149832 384.75 824.917998 381 824.917998 384 827.217832 382 827.217832 384.75 829.5 382 830.428595 384.75 832.652602 382.64387 833.5 387.5"></polygon>
        <polygon id="Path-11" stroke="#63845F" fill="#A0AA89" points="852.5 387.5 855.199799 383.222465 855.199799 385.754499 858.566331 383.222465 858.566331 385.361232 862.038927 383.222465 863.415717 385.361232 865.6527 383.222465 865.6527 385.361232 867.577777 383.222465 868.777892 385.361232 870.574065 383.222465 871.5 384.25 873.333247 383.222465 875.177877 385.754499 876.714362 382 878.512888 384.75 879.407211 382 880.639316 384.25 882.057249 382 883.206555 385.754499 885.335336 383.222465 886.107813 384.75 887.985844 383.222465 888.697633 384.25 891.454933 382 893 384.25 894.581536 382 895.584533 384.25 897.126193 382 897.962651 383.222465 899.032922 382 899.960176 384.25 901.084549 381 902.5 387.5"></polygon>
        <polygon id="Path-12" stroke="#63845F" fill="#A0AA89" points="921.5 387.5 922.999934 383.214937 923.954475 385.357469 925.403457 382.496562 927 385.357469 928.827383 382.496562 928.827383 384.998281 931.39274 382.496562 932.5 384.998281 933.637251 383.214937 934.989321 384.998281 937.5 382.496562 938.452765 384.998281 940.398541 383.214937 941.5 384.998281 943.172777 382.496562 944.335727 385.357469 946.5 383.214937 946.5 384.998281 949.671086 381 949.671086 384.25 951.5 382.496562 953.5 384.998281 953.5 382.496562 955.160753 384.25 956.694416 382.496562 958.383327 384.25 959.538927 382.496562 960.859298 384.998281 963.276935 381 964.383901 384.25 965.709625 381.649754 967.463929 383.214937 969 381.649754 970.271567 383.214937 972.23522 382.496562 973.477675 384.998281 975.134125 382.496562 976.270259 384.25 977.827915 382.496562 978.814916 384.25 982.5 381.649754 983.659598 385.357469 987.170557 381.649754 987.170557 385.357469 989.587723 382.496562 991 385.357469 992.621176 382.496562 993.816587 386.40458 996 382.496562 996.662331 384.998281 999.023043 382.496562 1000 384.998281 1002 382.496562 1003.5 384.998281 1004.26855 382.496562 1005 384.998281 1006.75581 382.496562 1008 384.998281 1009 383.214937 1010.79932 384.998281 1012.43742 381.649754 1014 384.998281 1014.72945 382.496562 1015.92391 384.25 1017.36019 381.649754 1018.25875 384.998281 1020.39647 381.649754 1022.16583 384.25 1025 382.496562 1026.05785 384.998281 1027.17046 382.496562 1029 387.5"></polygon>
        <polygon id="Path-13" stroke="#1B150E" fill="#513F2B" points="1104.2472 387.5 1106.82197 372.375448 1106.82197 352.646953 1089 336.044245 1090.53093 334.832157 1106.82197 348.933948 1108.7095 330.5 1111.23803 330.5 1112.96848 376.702838 1116.88543 387.5"></polygon>
        <polygon id="Path-15" stroke="#312619" fill="#695137" points="1142.38632 387.560628 1144.49727 374.571991 1144.49727 354.572423 1131.2718 332.156103 1132.2347 331.248234 1144.49727 347.560628 1145.6464 325.3 1148.5483 325.3 1150.61534 351.560628 1162.41023 328.36009 1163.47628 329.116647 1150.61534 358.560628 1151.41052 372.117148 1155.28166 387.560628"></polygon>
        <polygon id="Path-17" stroke="#1B150E" fill="#513F2B" points="1179.49929 387.560628 1181.81067 380.1131 1182.72806 331 1186.12357 331 1187.33618 348 1195.87893 334.612785 1197.26295 334.612785 1187.33618 353.347898 1188.38112 381 1192.51939 387.5"></polygon>
        <polygon id="Path-19" stroke="#1C160E" fill="#4F3D2A" points="1214.37256 387.560628 1216.95198 382.959233 1218.77315 306.622152 1222.54942 382.959233 1226.43544 387.560628"></polygon>
        <path d="M1218.71783,296.945065 L1216.59591,301.532692 L1211.65836,308.504796 L1215.96763,307.31629 L1215.18809,310.789692 L1208.69741,316.371245 L1215.18809,315.282402 L1213.70762,318.803139 L1206.43411,324.320234 L1213.70762,323.02416 L1211.65836,325.3 L1203.62639,330.5 L1212.80515,328.620723 L1211.65836,332.547142 L1200.51353,339.782237 L1212.80515,336.988565 L1211.65836,340.411395 L1196.02337,350.059944 L1212.80515,347.09139 L1211.65836,350.059944 L1191.75625,362.310301 L1201.32752,360.424145 L1203.04333,362.310301 L1206.43411,359.280314 L1207.80789,362.310301 L1210.33155,360.424145 L1211.65836,362.310301 L1215.18809,358.547208 L1216.59591,362.310301 L1218.11194,361.015983 C1220.868,362.357718 1222.24603,363.028586 1222.24603,363.028586 L1224.16819,359.967533 L1226.43544,362.310301 L1227.34647,361.015983 L1230.94667,362.310301 L1232.04562,359.280314 L1245.06255,363.816679 L1227.34647,349.128282 L1225.61135,345.717746 L1241.41537,351.181277 L1224.95672,338.698663 L1224.16819,335.349594 L1234.99295,339.782237 L1223.11667,328.620723 L1230.94667,330.380872 L1224.16819,323.02416 L1230.01984,323.616877 L1222.24603,318.014606 L1222.24603,315.282402 L1227.34647,316.371245 L1222.24603,309.942683 L1221.55716,306.622152 L1227.96246,308.504796 L1220.404,301.532692 L1218.71783,296.945065 Z" id="Path-20" stroke="#15210E" fill="#364530"></path>
        <polygon id="Path-13" stroke="#1B150E" fill="#513F2B" transform="translate(1324.942713, 358.500000) scale(-1, 1) translate(-1324.942713, -358.500000) " points="1326.2472 387 1328.82197 371.875448 1328.82197 352.146953 1311 335.544245 1312.53093 334.332157 1328.82197 348.433948 1330.7095 330 1333.23803 330 1334.96848 376.202838 1338.88543 387"></polygon>
        <polygon id="Path-25" stroke="#979797" fill="#D8D8D8" points="1390.30145 388.5 1413.83106 378.25497 1437.33043 357.430314 1452.5675 326.510308 1482.52413 309.75 1496.41142 285.153453 1521.6696 257.057729 1538.19065 250.976473 1564.17263 215.235944 1574.9122 197.280996 1601.20717 174.84043 1631.42878 150.174883 1664.13737 115.113238 1675.55345 105.264757 1675.55345 388.5"></polygon>
        <polygon id="Path-15" stroke="#312619" fill="#695137" transform="translate(1360.102240, 356.130314) scale(-1, 1) translate(-1360.102240, -356.130314) " points="1355.11452 387.260628 1357.22547 374.271991 1357.22547 354.272423 1344 331.856103 1344.96289 330.948234 1357.22547 347.260628 1358.37459 325 1361.27649 325 1363.34353 351.260628 1375.13842 328.06009 1376.20448 328.816647 1363.34353 358.260628 1364.13871 371.817148 1368.00985 387.260628"></polygon>
        <polygon id="Path-17" stroke="#1B150E" fill="#513F2B" transform="translate(1399.381121, 359.390314) scale(-1, 1) translate(-1399.381121, -359.390314) " points="1390.49929 387.670628 1392.81067 380.2231 1393.72806 331.11 1397.12357 331.11 1398.33618 348.11 1406.87893 334.722785 1408.26295 334.722785 1398.33618 353.457898 1399.38112 381.11 1403.51939 387.61"></polygon>
        <polygon id="Path-19" stroke="#1C160E" fill="#4F3D2A" points="1430.37256 387.560628 1432.95198 382.959233 1434.77315 306.622152 1438.54942 382.959233 1442.43544 387.560628"></polygon>
        <path d="M1434.71783,296.945065 L1432.59591,301.532692 L1427.65836,308.504796 L1431.96763,307.31629 L1431.18809,310.789692 L1424.69741,316.371245 L1431.18809,315.282402 L1429.70762,318.803139 L1422.43411,324.320234 L1429.70762,323.02416 L1427.65836,325.3 L1419.62639,330.5 L1428.80515,328.620723 L1427.65836,332.547142 L1416.51353,339.782237 L1428.80515,336.988565 L1427.65836,340.411395 L1412.02337,350.059944 L1428.80515,347.09139 L1427.65836,350.059944 L1407.75625,362.310301 L1417.32752,360.424145 L1419.04333,362.310301 L1422.43411,359.280314 L1423.80789,362.310301 L1426.33155,360.424145 L1427.65836,362.310301 L1431.18809,358.547208 L1432.59591,362.310301 L1434.11194,361.015983 C1436.868,362.357718 1438.24603,363.028586 1438.24603,363.028586 L1440.16819,359.967533 L1442.43544,362.310301 L1443.34647,361.015983 L1446.94667,362.310301 L1448.04562,359.280314 L1461.06255,363.816679 L1443.34647,349.128282 L1441.61135,345.717746 L1457.41537,351.181277 L1440.95672,338.698663 L1440.16819,335.349594 L1450.99295,339.782237 L1439.11667,328.620723 L1446.94667,330.380872 L1440.16819,323.02416 L1446.01984,323.616877 L1438.24603,318.014606 L1438.24603,315.282402 L1443.34647,316.371245 L1438.24603,309.942683 L1437.55716,306.622152 L1443.96246,308.504796 L1436.404,301.532692 L1434.71783,296.945065 Z" id="Path-20" stroke="#15210E" fill="#364530"></path>
        <polygon id="Path-21" stroke="#312619" fill="#695137" points="1461.14994 387.560628 1464.26799 381.114084 1467.55359 292.268043 1469.58697 381.114084 1473.71573 387.5"></polygon>
        <polygon id="Path-23" stroke="#1C160E" fill="#4F3D2A" points="1496.1139 387.530361 1499.3665 382.099257 1502.54099 299.881362 1505.23347 382.099257 1509.76891 387.530361"></polygon>
        <polygon id="Path-24" stroke="#395B28" fill="#364530" points="1502.94141 290 1499.94426 298.436418 1491.99199 306.591885 1498.67692 303.902168 1497.4667 307.678495 1488.40022 316.057672 1497.4667 312.28081 1496.1139 317.946103 1484.32538 326.619731 1496.1139 322.154682 1496.1139 326.463546 1481.97272 336.656548 1496.1139 330.969733 1494.47369 336.656548 1479.65513 347.969733 1493.08171 344.597052 1491.99199 349.119657 1474 363.786412 1491.99199 359.250047 1491.99199 360.89373 1494.47369 359.250047 1497.4667 360.89373 1501.05003 357.731009 1502.94141 360.89373 1505.49132 359.250047 1508.07307 363.786412 1509.76891 359.250047 1511.2834 360.89373 1513.22266 359.250047 1529.53378 365.643272 1513.22266 349.119657 1511.2834 344.597052 1522.54872 349.119657 1509.76891 337.580435 1508.07307 330.969733 1521.81047 337.580435 1508.07307 325.269733 1507.30807 322.154682 1518.72318 326.463546 1507.30807 317.946103 1506.51311 312.28081 1517.48152 316.057672 1506.51311 307.678495 1506.51311 303.902168 1513.22266 305.721054 1506.51311 299.881362"></polygon>
        <polygon id="Path-22" stroke="#2D4B1E" fill="#4A5F41" points="1471.56906 293.86314 1467.43284 287.626458 1461.14994 295.695564 1456.82559 299.472517 1462.12921 299.472517 1460.37416 303.845768 1452.97708 308.368689 1460.37416 307.517772 1459.43738 310.789692 1448.95743 318.508143 1459.43738 315.345378 1458.19514 318.508143 1446.91392 328.302937 1457.17338 326.493813 1456.82559 330.24778 1445.14351 338.841315 1456.28818 336.56107 1455.52268 339.914335 1441.15964 351.747592 1455.52268 348 1454.29624 351.747592 1438.45006 365.673539 1452.97708 361.042092 1455.52268 362.528067 1459.43738 359 1461.14994 362.528067 1462.12921 361.042092 1466.62396 362.528067 1469.84337 359.280314 1471.56906 362.528067 1475.89461 359.280314 1478.10568 362.528067 1479.85164 361.042092 1482.8057 362.528067 1482.8057 359.280314 1498.15323 365.673539 1479.85164 349.713023 1478.89041 346.24778 1490.58262 349.713023 1477.0556 338.841315 1475.89461 334.909921 1489.12587 338.841315 1475.89461 328.302937 1475.89461 325.3 1489.12587 328.302937 1474.69366 318.508143 1473.71573 314.24778 1485.85458 318.508143 1473.71573 310.789692 1472.80757 306.622152 1482.8057 308.368689 1472.80757 302.102192 1471.56906 299.472517 1478.89041 302.102192"></polygon>
        <polygon id="Path-19" stroke="#1C160E" fill="#4F3D2A" points="1576.37256 387.560628 1578.95198 382.959233 1580.77315 306.622152 1584.54942 382.959233 1588.43544 387.560628"></polygon>
        <path d="M1580.71783,296.945065 L1578.59591,301.532692 L1573.65836,308.504796 L1577.96763,307.31629 L1577.18809,310.789692 L1570.69741,316.371245 L1577.18809,315.282402 L1575.70762,318.803139 L1568.43411,324.320234 L1575.70762,323.02416 L1573.65836,325.3 L1565.62639,330.5 L1574.80515,328.620723 L1573.65836,332.547142 L1562.51353,339.782237 L1574.80515,336.988565 L1573.65836,340.411395 L1558.02337,350.059944 L1574.80515,347.09139 L1573.65836,350.059944 L1553.75625,362.310301 L1563.32752,360.424145 L1565.04333,362.310301 L1568.43411,359.280314 L1569.80789,362.310301 L1572.33155,360.424145 L1573.65836,362.310301 L1577.18809,358.547208 L1578.59591,362.310301 L1580.11194,361.015983 C1582.868,362.357718 1584.24603,363.028586 1584.24603,363.028586 L1586.16819,359.967533 L1588.43544,362.310301 L1589.34647,361.015983 L1592.94667,362.310301 L1594.04562,359.280314 L1607.06255,363.816679 L1589.34647,349.128282 L1587.61135,345.717746 L1603.41537,351.181277 L1586.95672,338.698663 L1586.16819,335.349594 L1596.99295,339.782237 L1585.11667,328.620723 L1592.94667,330.380872 L1586.16819,323.02416 L1592.01984,323.616877 L1584.24603,318.014606 L1584.24603,315.282402 L1589.34647,316.371245 L1584.24603,309.942683 L1583.55716,306.622152 L1589.96246,308.504796 L1582.404,301.532692 L1580.71783,296.945065 Z" id="Path-20" stroke="#395B28" fill="#364530"></path>
        <polygon id="Path-21" stroke="#312619" fill="#695137" points="1607.14994 387.560628 1610.26799 381.114084 1613.55359 292.268043 1615.58697 381.114084 1619.71573 387.5"></polygon>
        <polygon id="Path-23" stroke="#1C160E" fill="#4F3D2A" points="1637.1139 387.530361 1640.3665 382.099257 1643.54099 299.881362 1646.23347 382.099257 1650.76891 387.530361"></polygon>
        <polygon id="Path-24" stroke="#395B28" fill="#364530" points="1643.94141 290 1640.94426 298.436418 1632.99199 306.591885 1639.67692 303.902168 1638.4667 307.678495 1629.40022 316.057672 1638.4667 312.28081 1637.1139 317.946103 1625.32538 326.619731 1637.1139 322.154682 1637.1139 326.463546 1622.97272 336.656548 1637.1139 330.969733 1635.47369 336.656548 1620.65513 347.969733 1634.08171 344.597052 1632.99199 349.119657 1615 363.786412 1632.99199 359.250047 1632.99199 360.89373 1635.47369 359.250047 1638.4667 360.89373 1642.05003 357.731009 1643.94141 360.89373 1646.49132 359.250047 1649.07307 363.786412 1650.76891 359.250047 1652.2834 360.89373 1654.22266 359.250047 1670.53378 365.643272 1654.22266 349.119657 1652.2834 344.597052 1663.54872 349.119657 1650.76891 337.580435 1649.07307 330.969733 1662.81047 337.580435 1649.07307 325.269733 1648.30807 322.154682 1659.72318 326.463546 1648.30807 317.946103 1647.51311 312.28081 1658.48152 316.057672 1647.51311 307.678495 1647.51311 303.902168 1654.22266 305.721054 1647.51311 299.881362"></polygon>
        <polygon id="Path-57" stroke="#EEEEEE" fill="#FFFFFF" points="1642.53814 284 1638.92448 297.312579 1634 301.994213 1634 303.972343 1636.88515 303.972343 1640.73937 301.994213 1643.71266 300.248876 1648.72154 300.248876 1650.54016 298.30395 1650.54016 296.038929 1648.72154 296.038929"></polygon>
        <polygon id="Path-22" stroke="#2D4B1E" fill="#4A5F41" points="1617.56906 293.86314 1613.43284 287.626458 1607.14994 295.695564 1602.82559 299.472517 1608.12921 299.472517 1606.37416 303.845768 1598.97708 308.368689 1606.37416 307.517772 1605.43738 310.789692 1594.95743 318.508143 1605.43738 315.345378 1604.19514 318.508143 1592.91392 328.302937 1603.17338 326.493813 1602.82559 330.24778 1591.14351 338.841315 1602.28818 336.56107 1601.52268 339.914335 1587.15964 351.747592 1601.52268 348 1600.29624 351.747592 1584.45006 365.673539 1598.97708 361.042092 1601.52268 362.528067 1605.43738 359 1607.14994 362.528067 1608.12921 361.042092 1612.62396 362.528067 1615.84337 359.280314 1617.56906 362.528067 1621.89461 359.280314 1624.10568 362.528067 1625.85164 361.042092 1628.8057 362.528067 1628.8057 359.280314 1644.15323 365.673539 1625.85164 349.713023 1624.89041 346.24778 1636.58262 349.713023 1623.0556 338.841315 1621.89461 334.909921 1635.12587 338.841315 1621.89461 328.302937 1621.89461 325.3 1635.12587 328.302937 1620.69366 318.508143 1619.71573 314.24778 1631.85458 318.508143 1619.71573 310.789692 1618.80757 306.622152 1628.8057 308.368689 1618.80757 302.102192 1617.56906 299.472517 1624.89041 302.102192"></polygon>
        <polygon id="Path-19" stroke="#1C160E" fill="#4F3D2A" points="1641.37256 387.560628 1643.95198 382.959233 1645.77315 306.622152 1649.54942 382.959233 1653.43544 387.560628"></polygon>
        <polygon id="Path-56" stroke="#EEEEEE" fill="#FFFFFF" points="1614.03627 286 1607.66599 292.367514 1606 296.003087 1610.01814 297.533451 1614.03627 297.533451 1620.31917 299.312579 1623.39421 299.312579 1623.39421 297.533451 1620.60344 294.635556"></polygon>
        <path d="M1645.71783,296.945065 L1643.59591,301.532692 L1638.65836,308.504796 L1642.96763,307.31629 L1642.18809,310.789692 L1635.69741,316.371245 L1642.18809,315.282402 L1640.70762,318.803139 L1633.43411,324.320234 L1640.70762,323.02416 L1638.65836,325.3 L1630.62639,330.5 L1639.80515,328.620723 L1638.65836,332.547142 L1627.51353,339.782237 L1639.80515,336.988565 L1638.65836,340.411395 L1623.02337,350.059944 L1639.80515,347.09139 L1638.65836,350.059944 L1618.75625,362.310301 L1628.32752,360.424145 L1630.04333,362.310301 L1633.43411,359.280314 L1634.80789,362.310301 L1637.33155,360.424145 L1638.65836,362.310301 L1642.18809,358.547208 L1643.59591,362.310301 L1645.11194,361.015983 C1647.868,362.357718 1649.24603,363.028586 1649.24603,363.028586 L1651.16819,359.967533 L1653.43544,362.310301 L1654.34647,361.015983 L1657.94667,362.310301 L1659.04562,359.280314 L1672.06255,363.816679 L1654.34647,349.128282 L1652.61135,345.717746 L1668.41537,351.181277 L1651.95672,338.698663 L1651.16819,335.349594 L1661.99295,339.782237 L1650.11667,328.620723 L1657.94667,330.380872 L1651.16819,323.02416 L1657.01984,323.616877 L1649.24603,318.014606 L1649.24603,315.282402 L1654.34647,316.371245 L1649.24603,309.942683 L1648.55716,306.622152 L1654.96246,308.504796 L1647.404,301.532692 L1645.71783,296.945065 Z" id="Path-20" stroke="#15210E" fill="#364530"></path>
        <polygon id="Path-21" stroke="#312619" fill="#695137" points="1604.14994 387.560628 1607.26799 381.114084 1610.55359 292.268043 1612.58697 381.114084 1616.71573 387.5"></polygon>
        <polygon id="Path-22" stroke="#15210E" fill="#4A5F41" points="1614.56906 293.86314 1610.43284 287.626458 1604.14994 295.695564 1599.82559 299.472517 1605.12921 299.472517 1603.37416 303.845768 1595.97708 308.368689 1603.37416 307.517772 1602.43738 310.789692 1591.95743 318.508143 1602.43738 315.345378 1601.19514 318.508143 1589.91392 328.302937 1600.17338 326.493813 1599.82559 330.24778 1588.14351 338.841315 1599.28818 336.56107 1598.52268 339.914335 1584.15964 351.747592 1598.52268 348 1597.29624 351.747592 1581.45006 365.673539 1595.97708 361.042092 1598.52268 362.528067 1602.43738 359 1604.14994 362.528067 1605.12921 361.042092 1609.62396 362.528067 1612.84337 359.280314 1614.56906 362.528067 1618.89461 359.280314 1621.10568 362.528067 1622.85164 361.042092 1625.8057 362.528067 1625.8057 359.280314 1641.15323 365.673539 1622.85164 349.713023 1621.89041 346.24778 1633.58262 349.713023 1620.0556 338.841315 1618.89461 334.909921 1632.12587 338.841315 1618.89461 328.302937 1618.89461 325.3 1632.12587 328.302937 1617.69366 318.508143 1616.71573 314.24778 1628.85458 318.508143 1616.71573 310.789692 1615.80757 306.622152 1625.8057 308.368689 1615.80757 302.102192 1614.56906 299.472517 1621.89041 302.102192"></polygon>
        <polygon id="Path-21" stroke="#312619" fill="#695137" points="1530.14994 387.560628 1533.26799 381.114084 1536.55359 292.268043 1538.58697 381.114084 1542.71573 387.5"></polygon>
        <polygon id="Path-22" stroke="#2D4B1E" fill="#4A5F41" points="1540.56906 293.86314 1536.43284 287.626458 1530.14994 295.695564 1525.82559 299.472517 1531.12921 299.472517 1529.37416 303.845768 1521.97708 308.368689 1529.37416 307.517772 1528.43738 310.789692 1517.95743 318.508143 1528.43738 315.345378 1527.19514 318.508143 1515.91392 328.302937 1526.17338 326.493813 1525.82559 330.24778 1514.14351 338.841315 1525.28818 336.56107 1524.52268 339.914335 1510.15964 351.747592 1524.52268 348 1523.29624 351.747592 1507.45006 365.673539 1521.97708 361.042092 1524.52268 362.528067 1528.43738 359 1530.14994 362.528067 1531.12921 361.042092 1535.62396 362.528067 1538.84337 359.280314 1540.56906 362.528067 1544.89461 359.280314 1547.10568 362.528067 1548.85164 361.042092 1551.8057 362.528067 1551.8057 359.280314 1567.15323 365.673539 1548.85164 349.713023 1547.89041 346.24778 1559.58262 349.713023 1546.0556 338.841315 1544.89461 334.909921 1558.12587 338.841315 1544.89461 328.302937 1544.89461 325.3 1558.12587 328.302937 1543.69366 318.508143 1542.71573 314.24778 1554.85458 318.508143 1542.71573 310.789692 1541.80757 306.622152 1551.8057 308.368689 1541.80757 302.102192 1540.56906 299.472517 1547.89041 302.102192"></polygon>
        <polygon id="Path-21" stroke="#312619" fill="#695137" points="1477.14994 387.560628 1480.26799 381.114084 1483.55359 292.268043 1485.58697 381.114084 1489.71573 387.5"></polygon>
        <polygon id="Path-19" stroke="#1C160E" fill="#4F3D2A" points="1502.37256 387.560628 1504.95198 382.959233 1506.77315 306.622152 1510.54942 382.959233 1514.43544 387.560628"></polygon>
        <path d="M1506.71783,296.945065 L1504.59591,301.532692 L1499.65836,308.504796 L1503.96763,307.31629 L1503.18809,310.789692 L1496.69741,316.371245 L1503.18809,315.282402 L1501.70762,318.803139 L1494.43411,324.320234 L1501.70762,323.02416 L1499.65836,325.3 L1491.62639,330.5 L1500.80515,328.620723 L1499.65836,332.547142 L1488.51353,339.782237 L1500.80515,336.988565 L1499.65836,340.411395 L1484.02337,350.059944 L1500.80515,347.09139 L1499.65836,350.059944 L1479.75625,362.310301 L1489.32752,360.424145 L1491.04333,362.310301 L1494.43411,359.280314 L1495.80789,362.310301 L1498.33155,360.424145 L1499.65836,362.310301 L1503.18809,358.547208 L1504.59591,362.310301 L1506.11194,361.015983 C1508.868,362.357718 1510.24603,363.028586 1510.24603,363.028586 L1512.16819,359.967533 L1514.43544,362.310301 L1515.34647,361.015983 L1518.94667,362.310301 L1520.04562,359.280314 L1533.06255,363.816679 L1515.34647,349.128282 L1513.61135,345.717746 L1529.41537,351.181277 L1512.95672,338.698663 L1512.16819,335.349594 L1522.99295,339.782237 L1511.11667,328.620723 L1518.94667,330.380872 L1512.16819,323.02416 L1518.01984,323.616877 L1510.24603,318.014606 L1510.24603,315.282402 L1515.34647,316.371245 L1510.24603,309.942683 L1509.55716,306.622152 L1515.96246,308.504796 L1508.404,301.532692 L1506.71783,296.945065 Z" id="Path-20" stroke="#15210E" fill="#364530"></path>
        <polygon id="Path-21" stroke="#312619" fill="#695137" points="1533.14994 387.560628 1536.26799 381.114084 1539.55359 292.268043 1541.58697 381.114084 1545.71573 387.5"></polygon>
        <polygon id="Path-23" stroke="#1C160E" fill="#4F3D2A" points="1563.1139 387.530361 1566.3665 382.099257 1569.54099 299.881362 1572.23347 382.099257 1576.76891 387.530361"></polygon>
        <polygon id="Path-24" stroke="#15210E" fill="#364530" points="1569.94141 290 1566.94426 298.436418 1558.99199 306.591885 1565.67692 303.902168 1564.4667 307.678495 1555.40022 316.057672 1564.4667 312.28081 1563.1139 317.946103 1551.32538 326.619731 1563.1139 322.154682 1563.1139 326.463546 1548.97272 336.656548 1563.1139 330.969733 1561.47369 336.656548 1546.65513 347.969733 1560.08171 344.597052 1558.99199 349.119657 1541 363.786412 1558.99199 359.250047 1558.99199 360.89373 1561.47369 359.250047 1564.4667 360.89373 1568.05003 357.731009 1569.94141 360.89373 1572.49132 359.250047 1575.07307 363.786412 1576.76891 359.250047 1578.2834 360.89373 1580.22266 359.250047 1596.53378 365.643272 1580.22266 349.119657 1578.2834 344.597052 1589.54872 349.119657 1576.76891 337.580435 1575.07307 330.969733 1588.81047 337.580435 1575.07307 325.269733 1574.30807 322.154682 1585.72318 326.463546 1574.30807 317.946103 1573.51311 312.28081 1584.48152 316.057672 1573.51311 307.678495 1573.51311 303.902168 1580.22266 305.721054 1573.51311 299.881362"></polygon>
        <polygon id="Path-22" stroke="#15210E" fill="#4A5F41" points="1543.56906 293.86314 1539.43284 287.626458 1533.14994 295.695564 1528.82559 299.472517 1534.12921 299.472517 1532.37416 303.845768 1524.97708 308.368689 1532.37416 307.517772 1531.43738 310.789692 1520.95743 318.508143 1531.43738 315.345378 1530.19514 318.508143 1518.91392 328.302937 1529.17338 326.493813 1528.82559 330.24778 1517.14351 338.841315 1528.28818 336.56107 1527.52268 339.914335 1513.15964 351.747592 1527.52268 348 1526.29624 351.747592 1510.45006 365.673539 1524.97708 361.042092 1527.52268 362.528067 1531.43738 359 1533.14994 362.528067 1534.12921 361.042092 1538.62396 362.528067 1541.84337 359.280314 1543.56906 362.528067 1547.89461 359.280314 1550.10568 362.528067 1551.85164 361.042092 1554.8057 362.528067 1554.8057 359.280314 1570.15323 365.673539 1551.85164 349.713023 1550.89041 346.24778 1562.58262 349.713023 1549.0556 338.841315 1547.89461 334.909921 1561.12587 338.841315 1547.89461 328.302937 1547.89461 325.3 1561.12587 328.302937 1546.69366 318.508143 1545.71573 314.24778 1557.85458 318.508143 1545.71573 310.789692 1544.80757 306.622152 1554.8057 308.368689 1544.80757 302.102192 1543.56906 299.472517 1550.89041 302.102192"></polygon>
        <polygon id="Path-21" stroke="#312619" fill="#695137" points="1245.14994 387.560628 1248.26799 381.114084 1251.55359 292.268043 1253.58697 381.114084 1257.71573 387.5"></polygon>
        <polygon id="Path-23" stroke="#1C160E" fill="#4F3D2A" points="1280.1139 387.530361 1283.3665 382.099257 1286.54099 299.881362 1289.23347 382.099257 1293.76891 387.530361"></polygon>
        <polygon id="Path-24" stroke="#15210E" fill="#364530" points="1286.94141 290 1283.94426 298.436418 1275.99199 306.591885 1282.67692 303.902168 1281.4667 307.678495 1272.40022 316.057672 1281.4667 312.28081 1280.1139 317.946103 1268.32538 326.619731 1280.1139 322.154682 1280.1139 326.463546 1265.97272 336.656548 1280.1139 330.969733 1278.47369 336.656548 1263.65513 347.969733 1277.08171 344.597052 1275.99199 349.119657 1258 363.786412 1275.99199 359.250047 1275.99199 360.89373 1278.47369 359.250047 1281.4667 360.89373 1285.05003 357.731009 1286.94141 360.89373 1289.49132 359.250047 1292.07307 363.786412 1293.76891 359.250047 1295.2834 360.89373 1297.22266 359.250047 1313.53378 365.643272 1297.22266 349.119657 1295.2834 344.597052 1306.54872 349.119657 1293.76891 337.580435 1292.07307 330.969733 1305.81047 337.580435 1292.07307 325.269733 1291.30807 322.154682 1302.72318 326.463546 1291.30807 317.946103 1290.51311 312.28081 1301.48152 316.057672 1290.51311 307.678495 1290.51311 303.902168 1297.22266 305.721054 1290.51311 299.881362"></polygon>
        <polygon id="Path-22" stroke="#2D4B1E" fill="#4A5F41" points="1255.56906 293.86314 1251.43284 287.626458 1245.14994 295.695564 1240.82559 299.472517 1246.12921 299.472517 1244.37416 303.845768 1236.97708 308.368689 1244.37416 307.517772 1243.43738 310.789692 1232.95743 318.508143 1243.43738 315.345378 1242.19514 318.508143 1230.91392 328.302937 1241.17338 326.493813 1240.82559 330.24778 1229.14351 338.841315 1240.28818 336.56107 1239.52268 339.914335 1225.15964 351.747592 1239.52268 348 1238.29624 351.747592 1222.45006 365.673539 1236.97708 361.042092 1239.52268 362.528067 1243.43738 359 1245.14994 362.528067 1246.12921 361.042092 1250.62396 362.528067 1253.84337 359.280314 1255.56906 362.528067 1259.89461 359.280314 1262.10568 362.528067 1263.85164 361.042092 1266.8057 362.528067 1266.8057 359.280314 1282.15323 365.673539 1263.85164 349.713023 1262.89041 346.24778 1274.58262 349.713023 1261.0556 338.841315 1259.89461 334.909921 1273.12587 338.841315 1259.89461 328.302937 1259.89461 325.3 1273.12587 328.302937 1258.69366 318.508143 1257.71573 314.24778 1269.85458 318.508143 1257.71573 310.789692 1256.80757 306.622152 1266.8057 308.368689 1256.80757 302.102192 1255.56906 299.472517 1262.89041 302.102192"></polygon>
        <polygon id="Path-24" stroke="#15210E" fill="#4A5F41" points="1482.94141 290 1479.94426 298.436418 1471.99199 306.591885 1478.67692 303.902168 1477.4667 307.678495 1468.40022 316.057672 1477.4667 312.28081 1476.1139 317.946103 1464.32538 326.619731 1476.1139 322.154682 1476.1139 326.463546 1461.97272 336.656548 1476.1139 330.969733 1474.47369 336.656548 1459.65513 347.969733 1473.08171 344.597052 1471.99199 349.119657 1454 363.786412 1471.99199 359.250047 1471.99199 360.89373 1474.47369 359.250047 1477.4667 360.89373 1481.05003 357.731009 1482.94141 360.89373 1485.49132 359.250047 1488.07307 363.786412 1489.76891 359.250047 1491.2834 360.89373 1493.22266 359.250047 1509.53378 365.643272 1493.22266 349.119657 1491.2834 344.597052 1502.54872 349.119657 1489.76891 337.580435 1488.07307 330.969733 1501.81047 337.580435 1488.07307 325.269733 1487.30807 322.154682 1498.72318 326.463546 1487.30807 317.946103 1486.51311 312.28081 1497.48152 316.057672 1486.51311 307.678495 1486.51311 303.902168 1493.22266 305.721054 1486.51311 299.881362"></polygon>
        <polygon id="Path-26" stroke="#312619" fill="#695137" points="1665.03965 387.560628 1671.46928 382.386698 1675.53378 286.430651 1675.53378 387.530361"></polygon>
        <polygon id="Path-27" stroke="#15210E" fill="#4A5F41" points="1675.55345 281.884368 1670.28672 291.005621 1667.39778 293.494996 1671.47562 293.494996 1670.28672 299.881362 1665.03965 306.622152 1670.53378 304.150325 1669.12765 311.641585 1660.86559 319.474576 1669.12765 316.662464 1668.20952 321.525746 1659.71378 329.415581 1667.63362 326.649999 1667.39778 330.710308 1654.69415 339.914335 1667.63362 335.502393 1665.1238 343.705861 1654.69415 354.143659 1665.03965 352.384386 1662.26412 360.446347 1653.43544 365.673539 1669.12765 361.462608 1672.06255 363.816679 1674.08417 361.462608 1675.53378 363.816679"></polygon>
        <polygon id="Path-28" stroke="#63845F" fill="#A0AA89" points="1057.53893 387.703066 1060.35072 382.105125 1060.35072 385.534245 1063.25661 381.203066 1063.94022 385.534245 1065.19224 382.105125 1066.09117 385.534245 1067.96921 381.203066 1069.21947 384.453066 1071.35181 380.417147 1072.64239 385.534245 1075.01929 382.105125 1075.71885 384.453066 1078.91493 381.203066 1080.25113 384.453066 1081.82436 381.203066 1084.45203 385.534245 1086.01906 381.203066 1086.01906 384.453066 1089.71533 382.105125 1089.71533 385.534245 1092.50293 382.105125 1093.84888 385.534245 1095.91832 382.105125 1095.91832 385.534245 1101.55466 382.105125 1102.22719 384.453066 1104.54783 381.203066 1106.49897 385.534245 1115.88342 385.534245 1118.06184 381.203066 1119.19513 384.453066 1121.5459 382.105125 1121.5459 385.534245 1123.3247 382.105125 1124.56343 384.060106 1125.76894 382.105125 1126.72812 384.453066 1129.12496 382.105125 1130.57326 385.534245 1132.32754 382.105125 1134.50079 384.453066 1135.84852 382.105125 1138.42878 385.534245 1139.39947 382.105125 1141.98505 385.534245 1155.03077 385.534245 1156.35058 380.417147 1157.91495 385.534245 1159.13685 383.221583 1160.19749 384.453066 1161.56958 381.203066 1162.76844 385.534245 1164.73288 382.105125 1165.54718 384.060106 1168.14605 382.105125 1170.54909 385.534245 1172.38504 382.105125 1174.13638 384.453066 1176.5886 381.203066 1177.60094 386.171335 1180.16525 383.221583 1181.085 385.534245 1188.98261 385.534245 1190.54077 382.105125 1193.72401 385.534245 1194.8068 382.105125 1196.48636 385.534245 1199.19642 381.203066 1199.19642 385.534245 1201.84624 383.221583 1202.60339 385.534245 1203.67023 382.105125 1204.91561 384.453066 1205.6515 382.105125 1206.56194 384.453066 1207.67884 382.105125 1209.69068 385.534245 1211.34056 382.105125 1211.93246 385.534245 1213 383.221583 1214.37256 385.534245 1215.72487 383.221583 1218.4094 385.534245 1223.65438 385.534245 1224.79919 382.105125 1226.43544 385.534245 1227.51369 381.203066 1229.07585 385.534245 1230.65572 382.105125 1232.83503 386.171335 1234.80212 383.221583 1235.38959 384.060106 1236.24554 382.105125 1238.13112 385.534245 1239.91302 383.221583 1241.47961 386.171335 1243.43651 380.417147 1245.06255 384.453066 1245.14994 382.105125 1247.93734 386.171335 1256.06356 386.171335 1257.71573 381.203066 1259.71641 386.171335 1260.84749 383.221583 1261.70388 384.453066 1263.02547 382.105125 1264.07237 384.453066 1265.7275 383.221583 1267.21768 386.171335 1269.41522 383.221583 1270.75895 386.171335 1272.49115 382.671329 1272.49115 385.0773 1274.92344 382.671329 1274.92344 385.534245 1275.92197 384.060106 1275.92197 385.0773 1277.89861 382.671329 1277.89861 385.0773 1279.44147 383.221583 1279.44147 385.0773 1280.58097 383.221583 1282.15323 385.534245 1291.5072 385.534245 1293.76891 382.671329 1294.16563 385.0773 1295.66851 382.105125 1296.23925 385.0773 1297.86062 381.706569 1298.68389 385.534245 1299.95003 383.546409 1301.3786 385.534245 1301.89898 382.105125 1303.29818 385.0773 1303.72302 383.221583 1305.53843 384.453066 1306.82827 382.671329 1307.50713 385.0773 1308.93916 382.105125 1310.61434 385.0773 1312.00367 381.706569 1314.20219 385.534245 1322.45938 385.534245 1324.57101 382.105125 1326.3284 384.453066 1327.5232 382.105125 1328.7923 384.453066 1330.08881 382.671329 1331.77313 384.453066 1333.01828 381.203066 1334.87886 384.453066 1336.41531 382.671329 1337.10454 384.060106 1338.41339 382.671329 1338.88543 384.060106 1340.09253 381.203066 1341.6823 385.0773 1342.79489 381.203066 1344.2718 384.060106 1345.08155 382.671329 1345.78213 383.221583 1347.04432 381.706569 1348.26677 384.453066 1350.09822 382.671329 1350.99604 384.060106 1352.21972 381.203066 1353.45896 385.0773 1364.63427 385.0773 1368.40365 378.88 1369.2451 382.671329 1370.08754 379.903153 1371.01819 382.671329 1373.78173 381.203066 1375 384.453066 1376.47628 381.203066 1377.64836 385.0773 1378.62361 382.671329 1381.21338 385.0773 1383.20947 381.706569 1383.84576 384.453066 1385.88843 381.706569 1387.16531 386.171335 1389.73062 381.706569 1389.73062 384.453066 1393.78062 382.105125 1394.38024 384.060106 1397.0298 381.203066 1397.0298 383.221583 1400.38601 378.88 1401 383.546409 1401 387.703066"></polygon>
        <polygon id="Path-29" stroke="#63845F" fill="#A0AA89" points="1047.39884 387.649021 1049.999 382.58 1050.57517 385.663276 1052.28189 382.58 1053.8394 386.110991 1055.497 382.58 1058.39884 387.709649"></polygon>
        <polygon id="Path-50" stroke="#EEEEEE" fill="#FFFFFF" points="855.702179 379.118106 853.771539 380.448266 853.166138 382.805475 854.434158 384.25 857.076226 383.583555 858.195972 383.583555 859.937936 384.25 862.038927 383.222465 863.526456 383.583555 865.650282 384.25 868.141204 383.583555 870.818341 384.25 872.835762 384.25 875.761631 383.583555 882.6 383.583555 884.5 384.25 887.064504 383.583555 888.697633 384.25 891.354813 383.583555 893.65624 383.583555 896.9437 384.25 898.458844 384.25 899.414114 383.583555 901.426786 384.25 903.532975 383.583555 903.532975 381 901.426786 378.247329 899.414114 378.247329 897.711936 379.118106"></polygon>
        <line x1="877.5" y1="319.5" x2="877.5" y2="387.25" id="Line-7" stroke="#616161" stroke-width="1.5" stroke-linecap="square"></line>
        <line x1="877.5" y1="319.5" x2="877.5" y2="307.5" id="Line-8" stroke="#616161" stroke-linecap="square"></line>
        <circle id="Oval" fill="#616161" cx="877.5" cy="311.5" r="3.5"></circle>
        <polygon id="Path-30" stroke="#616161" fill="#D8D8D8" points="874.5 312 880.557726 312 879.112963 319.186175 875.908571 319.186175"></polygon>
        <polygon id="Path-54" stroke="#EEEEEE" fill="#FFFFFF" points="1050.44062 378.88 1048 381.347231 1047.39884 383.291533 1048.91973 385.144824 1050.44062 383.291533 1052.89884 385.144824 1063.06543 385.144824 1066.028 383.291533 1068.50469 385.144824 1071.14823 384.21669 1073.5 385.144824 1077.13973 384.21669 1080.77947 385.144824 1086.01906 384.453066 1089 385.144824 1095.38311 385.144824 1100.9176 384.453066 1105.2463 386.170582 1118.50511 386.170582 1121.5459 385.534245 1126.48125 386.170582 1132.92238 386.170582 1136.94842 385.534245 1142.79085 386.170582 1156.22297 386.170582 1159.92221 385.144824 1166.34638 386.170582 1169.30319 385.144824 1173.54009 385.144824 1176.38232 386.170582 1191.75625 386.170582 1194.67376 385.534245 1197.26295 385.144824 1200.50196 385.534245 1203.02484 385.144824 1206.56194 384.453066 1208.26859 385.144824 1211.93246 385.534245 1215.72131 385.144824 1216.90173 386.170582 1229.26946 386.170582 1231.32442 385.144824 1234.98569 385.534245 1237.40959 385.144824 1240.28504 386.170582 1245.06255 386.170582 1258 386.170582 1261.26005 385.534245 1264.68944 386.170582 1269.14466 385.534245 1273.19511 386.170582 1277.17233 385.144824 1293.76891 385.534245 1296.4957 385.144824 1300.87363 386.170582 1305.64887 386.170582 1310.03833 385.144824 1324.94271 386.170582 1328.14331 385.144824 1334.60545 385.144824 1340.37195 385.534245 1344 386.170582 1348.51014 385.534245 1367.69655 386.170582 1370.84388 384.453066 1374.64482 385.144824 1378.12981 384.453066 1383.84576 384.453066 1386.8538 385.144824 1392.17756 384.453066 1394.96487 385.144824 1397.91016 384.453066 1401 384.453066 1402.61082 382.58 1402.61082 377.577439 1401 376.460074 1397.91016 377.577439 1396.27208 378.88 1392.17756 380.392549 1390.49929 378.88 1387.73725 380.392549 1385.64219 378.88 1382.40536 378.88 1380.88525 380.392549 1378.12981 378.88 1374.64482 378.88 1370.84388 377.577439 1366.49511 377.577439 1364.28818 382.58 1353.99594 382.58 1352.58906 378.88 1349.54818 380.392549 1347.0002 378.88 1338.88543 378.88 1336.47541 380.392549 1333.17891 378.88 1323.74029 378.88 1321.73202 381.347231 1314.86036 381.347231 1312.30289 378.88 1305.64887 378.88 1304.11114 380.392549 1301.99981 378.88 1295.22375 378.88 1290.73801 382.58 1283.3665 382.099257 1281.09396 380.392549 1275.52883 380.392549 1273.19511 378.88 1267.68286 381.315328 1263.17001 378.88 1261.26005 380.392549 1258 378.88 1254.85147 382.099257 1247.19331 382.58 1245.06255 378.88 1241.8404 378.88 1240.28504 380.392549 1237.40959 381.347231 1236.07661 378.88 1232.68452 381.315328 1231.32442 378.88 1225.00483 378.88 1222.45006 381.347231 1218.4094 381.347231 1214.37256 380.392549 1209.97176 378.88 1201.82069 380.392549 1200.50196 378.88 1197.26295 378.88 1196.08606 380.392549 1194.67376 378.88 1192.88177 378.88 1192.88177 380.392549 1191.75625 378.88 1188.38112 381 1181.32029 382.099257 1179.49929 381 1177.39392 378.88 1166.34638 378.88 1163.47628 380.392549 1162.46679 378.88 1159.92221 380.392549 1156.22297 377.577439 1153.47905 380.392549 1149.66929 382.58 1142.79085 382.58 1140.44764 380.392549 1131.2718 380.392549 1129.46722 378.88 1121.5459 378.88 1118.50511 377.577439 1115.0547 382.099257 1107.27247 382.58 1105.2463 378.88 1102.94271 378.88 1099.32345 381 1097.3267 378.88 1090.63878 378.88 1087.78841 377.577439 1085.13264 377.577439 1083.43693 378.88 1073.5 378.88 1073 377.577439 1068.50469 377.577439 1067 378.88 1060.02243 378.88 1058.39884 380.392549 1055.83638 378.88"></polygon>
        <line x1="1076.5" y1="319.5" x2="1076.5" y2="387.25" id="Line-7" stroke="#616161" stroke-width="1.5" stroke-linecap="square"></line>
        <line x1="1076.5" y1="319.5" x2="1076.5" y2="307.5" id="Line-8" stroke="#616161" stroke-linecap="square"></line>
        <circle id="Oval" fill="#616161" cx="1076.5" cy="311.5" r="3.5"></circle>
        <polygon id="Path-30" stroke="#616161" fill="#D8D8D8" points="1073.5 312 1079.55773 312 1078.11296 319.186175 1074.90857 319.186175"></polygon>
        <rect id="Rectangle" stroke="#979797" fill="#FFDE87" x="91" y="119.5" width="30.5" height="31"></rect>
        <polygon id="Path-31" stroke="#1B150E" fill="#513F2B" points="595.022608 385.754499 595.022608 373.950916 592.605938 370.5 595.022608 372.142258 595.022608 363 593.814273 361.033742 595.022608 361.033742 596.096713 346.395373 596.096713 361.033742 597.191726 361.033742 596.096713 363 596.096713 372.142258 598.622432 370.5 596.096713 373.950916 596.096713 385.754499"></polygon>
        <polygon id="Path-31" stroke="#1B150E" fill="#513F2B" points="762.266669 385.754499 762.266669 373.950916 759.85 370.5 762.266669 372.142258 762.266669 363 761.058335 361.033742 762.266669 361.033742 763.340775 346.395373 763.340775 361.033742 764.435788 361.033742 763.340775 363 763.340775 372.142258 765.866494 370.5 763.340775 373.950916 763.340775 385.754499"></polygon>
        <polygon id="Path-7" stroke="#1B150E" fill="#513F2B" points="574.440625 363.985191 574.440625 350.419643 569.923408 347.533799 570.499563 346.490599 574.440625 348.550378 575.008247 341.77 576.143737 342.054885 576.143737 349.858512 582 347.533799 582.283501 348.550378 576.103455 351.39073 576.143737 363.985191"></polygon>
        <polygon id="Path-7" stroke="#1B150E" fill="#513F2B" transform="translate(604.103455, 352.877595) scale(-1, 1) translate(-604.103455, -352.877595) " points="602.440625 363.985191 602.440625 350.419643 597.923408 347.533799 598.499563 346.490599 602.440625 348.550378 603.008247 341.77 604.143737 342.054885 604.143737 349.858512 610 347.533799 610.283501 348.550378 604.103455 351.39073 604.143737 363.985191"></polygon>
        <polygon id="Path-7" stroke="#1B150E" fill="#513F2B" points="755.440625 363.985191 755.440625 350.419643 750.923408 347.533799 751.499563 346.490599 755.440625 348.550378 756.008247 341.77 757.143737 342.054885 757.143737 349.858512 763 347.533799 763.283501 348.550378 757.103455 351.39073 757.143737 363.985191"></polygon>
        <polygon id="Path-7" stroke="#1B150E" fill="#513F2B" transform="translate(785.103455, 352.877595) scale(-1, 1) translate(-785.103455, -352.877595) " points="783.440625 363.985191 783.440625 350.419643 778.923408 347.533799 779.499563 346.490599 783.440625 348.550378 784.008247 341.77 785.143737 342.054885 785.143737 349.858512 791 347.533799 791.283501 348.550378 785.103455 351.39073 785.143737 363.985191"></polygon>
        <polygon id="Path-8" stroke="#EEEEEE" fill="#FFFFFF" points="-7.12450932e-15 226.522724 74 226.522724 75.8546924 227.75 75.8546924 232.494774 74.5 233.441119 72.9344634 232.494774 71.7546125 229.981921 0 229.981921"></polygon>
        <polygon id="Path-16" stroke="#EEEEEE" fill="#FFFFFF" points="27.5 83.5241052 24.0969244 87 24.0969244 100.246458 25.7984622 102.062338 29 102.844191 36.3172868 93.1841481 38.3087445 91.867606 41.1138718 91.867606 43.0564269 93.1841481 44.5 93.1841481 45.5098763 91.867606 116.406293 91.867606 118.652869 93.1841481 118.652869 100.246458 119.442382 102.844191 122 104.369011 124.142929 102.844191 124.142929 85.7105844 122 83.5241052"></polygon>
        <polygon id="Path-18" stroke="#EEEEEE" fill="#FFFFFF" points="8.5 121.043036 6.58575548 122.188444 6.58575548 128.186378 7.38807971 129.532159 8.5 128.944745 11.534844 125.287597 13.694841 124.017578 68 124.017578 72.5636619 125.287597 75.5 127.310318 80.9200022 136.846454 82.5 137.666436 84.4339971 136.846454 84.4339971 125.287597 83.2983725 122.188444 80.7126313 121.043036"></polygon>
        <polygon id="Path-14" stroke="#EEEEEE" fill="#FFFFFF" points="190.131179 145.451988 187.307624 149 185.125 160.125 187.62809 162.875 192 162.5 197.855469 157.365167 201 149 197.855469 145.451988"></polygon>
        <polygon id="Path-14" stroke="#EEEEEE" fill="#FFFFFF" transform="translate(220.937500, 153.711506) scale(-1, 1) translate(-220.937500, -153.711506) " points="218.006179 145 215.182624 148.548012 213 159.673012 215.50309 162.423012 219.875 162.048012 225.730469 156.913179 228.875 148.548012 225.730469 145"></polygon>
        <polygon id="Path-32" stroke="#EEEEEE" fill="#FFFFFF" points="86.7765278 388.98 127.410156 388 124.142929 385 118.009503 385 113.579442 382 100.5 382 94.9175478 385 90.5 386"></polygon>
        <polygon id="Path-33" stroke="#EEEEEE" fill="#FFFFFF" points="429.718265 225.400415 424.653491 228 420.479203 231.903334 417.158747 236.459259 415 241.297639 415 245 419 246.975835 422.359133 245 427 245 429.718265 246.975835 432.5 249.005841 437.5 253 442 257.454678 443 261 447 263 459 263 459 257.454678 457.538947 251 456 245 453.949383 240.019469 451 234.675051 447 230 442 226.457422 439.5 223 439.5 219.697921 437.5 218.280532 435 219.697921 432.5 223"></polygon>
        <polygon id="Path-34" stroke="#EEEEEE" fill="#FFFFFF" points="341.5 297.314454 320.54189 307 306.335363 307 303.670994 309 302.334506 313 302.334506 320 303.670994 323 306.335363 323 308.430026 320 311.404205 316.784316 341.5 303 349 306 351.806922 305 351.806922 303 349 301.196551"></polygon>
        <polygon id="Path-35" stroke="#EEEEEE" fill="#FFFFFF" points="470 286 467 287 465.791327 290 465.791327 294.440102 467 296.058862 470 296.058862 471 294.440102 484.408349 294.440102 485.744837 296.058862 485.744837 299 488.367037 300 489.989239 297.314454 489.989239 289 488.367037 286"></polygon>
        <polygon id="Path-36" stroke="#EEEEEE" fill="#FFFFFF" points="548.679911 306 546.923839 307 546.923839 309 565 316.557863 566.880877 316.557863 568 315 568 309 566.880877 307 563.880614 306"></polygon>
        <polygon id="Path-37" stroke="#EEEEEE" fill="#FFFFFF" points="565.234479 277.442881 555.234479 277.442881 553.262766 278.185102 552 280.333664 552 283.747566 552 286.003482 552 288.723181 553.262766 290.689114 555.234479 291.442881 556.813428 289.629748 557.696399 287.816615 560.234479 286.003482 562.109644 285.096915 562.898873 283.747566 565.234479 281.923932 568.234479 281.923932 570.157887 281.923932 571.787381 280.333664 571.787381 278.185102 569.108629 277.442881"></polygon>
        <polygon id="Path-38" stroke="#EEEEEE" fill="#FFFFFF" points="629.720851 261 621.236597 261 619.602663 262.893106 619.602663 275.5 618.619931 277.442881 616.554163 278.352217 610.283501 278.352217 609 280 609 282 610.283501 283.5 613.654874 283.5 615.02957 284.442881 616 287 616.554163 290 617.594275 291.442881 619.602663 291 621.236597 290 622.5 288 623.450003 285.389483 623.450003 267.580004 624.346888 266.283249 625.705204 265.500452 631.450234 265.500452 632.551572 264.105425 632.551572 262"></polygon>
        <polygon id="Path-39" stroke="#EEEEEE" fill="#FFFFFF" points="654.5 243.448281 653 244.263271 652 246.020893 652 253 653 254.308037 654.798678 254.308037 656.43027 253 665 247.388246 666.503611 246.848959 670 246.848959 671.429181 246.020893 671.429181 244.263271 670 243.448281"></polygon>
        <polygon id="Path-39" stroke="#EEEEEE" fill="#FFFFFF" transform="translate(697.214591, 248.429878) scale(-1, 1) translate(-697.214591, -248.429878) " points="690 243 688.5 243.81499 687.5 245.572612 687.5 252.551719 688.5 253.859755 690.298678 253.859755 691.93027 252.551719 700.5 246.939965 702.003611 246.400678 705.5 246.400678 706.929181 245.572612 706.929181 243.81499 705.5 243"></polygon>
        <polygon id="Path-40" stroke="#EEEEEE" fill="#FFFFFF" points="740.681831 280.80233 741.300895 278.950197 743 278.104749 756.327092 278.104749 757.929042 278.950197 758.659662 280.80233 759.175796 282 765.493456 282 765.493456 280.80233 766.19998 278.950197 767.981907 278.104749 779.978531 278.104749 781.981191 278.950197 782.412245 280.052374 782.830507 281.308648 783.971357 282 788.295282 282 789.655377 281.308648 790.048651 280 791 278.522713 804.242786 278.522713 805.597824 278.950197 806.5 280.052374 806.5 282.453662 805.597824 283.5 803.825714 283.5 803.004957 282.453662 802.055389 282 793.496784 282 792.354447 282.838309 791 283.5 781 283.5 779.978531 282.838309 779.208346 282 768.995732 282 767.981907 282.453662 767.981907 283.5 757 283.5 755.903178 282.838309 755.415007 282 745.575735 282 744.111818 282.453662 743.387148 283.5 741.874443 284.088335 739.097731 284.088335 737.773036 283.5 737.773036 282 739.097731 281.096542"></polygon>
        <polygon id="Path-41" stroke="#EEEEEE" fill="#FFFFFF" points="576.990506 340.25 574.281219 339.130192 573.107547 340.25 573.107547 344.825124 573.912968 345.381667 575.463449 345.381667 576.103455 343.918575 576.990506 343.033873"></polygon>
        <polygon id="Path-42" stroke="#EEEEEE" fill="#FFFFFF" points="762.223041 345.505498 761.427749 358.486581 761.825395 359.537751 763.283501 360 764.435788 361.033742 764.435788 363 765.23935 363.489776 765.866494 362.432049 765.866494 359.537751 764.843583 357.92891 764.04507 345.505498"></polygon>
        <polygon id="Path-43" stroke="#EEEEEE" fill="#FFFFFF" points="789.928958 345.505498 788.875563 346.066843 787.81092 345.505498 787 345.166603 786.005941 346.066843 784.259109 347.75397 783.419266 347.75397 782.597767 347.496808 781.573445 347.75397 781.173512 348.374031 781.173512 351.409788 781.573445 352.196676 782.597767 351.693082 783.419266 350.835587 784.259109 349.553757 790.341525 346.395373"></polygon>
        <polygon id="Path-44" stroke="#EEEEEE" fill="#FFFFFF" points="593.546455 381 590.416127 384 587.271973 385 582.283501 385.754499 606 385.754499 602.973484 384 601.078993 382 598.622432 380.037508"></polygon>
        <polygon id="Path-45" stroke="#EEEEEE" fill="#FFFFFF" points="765.060931 380.53857 759.85 380.53857 757.768044 383 754.970441 384.596081 753.377087 385.754499 777 385.754499 773.920466 382 769.954303 378.571088"></polygon>
        <polygon id="Path-46" stroke="#EEEEEE" fill="#FFFFFF" points="926.266009 304.223495 883.254064 335 882.6 337.689615 883.254064 339 926.496545 307.209234 969.904876 339.623712 970.504687 338.532493 970.254409 337.226806"></polygon>
        <polygon id="Path-46" stroke="#EEEEEE" fill="#FFFFFF" points="1024.26601 304.223495 981.254064 335 980.6 337.689615 981.254064 339 1024.49655 307.209234 1067.90488 339.623712 1068.50469 338.532493 1068.25441 337.226806"></polygon>
        <polygon id="Path-47" stroke="#EEEEEE" fill="#FFFFFF" points="831.676453 310.42204 828.769464 310.42204 826.391491 311.5 821.731876 315 821.146157 321.923604 821.146157 316.172822 820.369265 316.172822 819.634613 317.067001 818.5 318.408273 818.055194 319.5 818.055194 323.500603 817.400263 324.375 816.978926 323.500603 816.978926 319.5 816.094755 318.8035 814.5 318.408273 813.5 318.8035 786.489982 338.513803 785.757518 337.373986 785.757518 336.044393 786.489982 335 829 304.223495 871.5 336.044393 872.463755 337.373986 872.835762 339 872.835762 341.77 872.463755 342.856599 871.5 342.856599 870.963827 341.77 870.507088 340.50384 869.618275 339.25 869.618275 337.373986"></polygon>
        <polygon id="Path-48" stroke="#EEEEEE" fill="#FFFFFF" points="811.466621 300.678967 801.540731 300.678967 799.86212 301.245383 799.86212 310.382682 800.5 311.5 801.540731 311.5 802.798701 310.382682 803.491133 308.5 804.5 306.81514 805.66437 306.089484 806.5 306.81514 808 306.089484 808 304.937186 809.5 304.223495 811.466621 304.223495 813.5 303.53827 813.5 301.245383"></polygon>
        <polygon id="Path-48" stroke="#EEEEEE" fill="#FFFFFF" transform="translate(1001.681060, 306.089484) scale(-1, 1) translate(-1001.681060, -306.089484) " points="1006.46662 300.678967 996.540731 300.678967 994.86212 301.245383 994.86212 310.382682 995.5 311.5 996.540731 311.5 997.798701 310.382682 998.491133 308.5 999.5 306.81514 1000.66437 306.089484 1001.5 306.81514 1003 306.089484 1003 304.937186 1004.5 304.223495 1006.46662 304.223495 1008.5 303.53827 1008.5 301.245383"></polygon>
        <polygon id="Path-49" stroke="#EEEEEE" fill="#FFFFFF" points="796.219869 379.118106 792.059582 379.118106 791.283501 382 792.059582 384.25 795.5 384.25 797.252661 382.960927 799.86212 382.960927 801.827214 383.64631 804.5 382.960927 806.68106 382.960927 808.690068 383.64631 810.429981 382.960927 812.5 382.960927 814.5 383.64631 817.640244 382.960927 819.63733 382.960927 822.341947 383.64631 824.957969 383.64631 827.237658 382.960927 828.769464 382.960927 829.5 383.64631 831.927056 384.25 833.5 384.25 834.257605 382.960927 833.5 381 830.345466 379.776418 827.237658 379.118106"></polygon>
        <polygon id="Path-51" stroke="#EEEEEE" fill="#FFFFFF" points="876.202146 382.58 874.5 385.893595 872.835762 387.5 884.5 387.5 882.028107 385.144824 879.562615 381.684053"></polygon>
        <polygon id="Path-52" stroke="#EEEEEE" fill="#FFFFFF" points="922.66915 380.431449 920.391102 384.25 921.5 385.743475 922.66915 385.743475 924.507092 384.25 926.269464 384.25 927 385.743475 929.1969 385.743475 929.915097 384.25 932.5 384.25 934.145932 385.144824 936.540876 385.144824 938.360771 384.25 940.613389 384.25 943.128921 385.144824 945.652657 385.144824 948 384.25 951.5 384.25 952.775965 385.144824 956.195497 385.144824 957.412862 384.25 960.94642 384.25 963.321676 385.144824 966.66779 385.144824 967.97416 384.25 971.627486 384.25 974.294368 385.144824 976.736071 385.144824 977.953436 384.25 980.6 384.25 982.5 385.144824 985.258036 384.25 987.152991 385.144824 989.98558 385.144824 994.86212 385.144824 998.144551 384.25 1001.00585 385.144824 1004.34376 385.743475 1006.40319 385.144824 1009 384.25 1012.25786 384.25 1014 384.998281 1017.58384 384.998281 1019 384.25 1022.19694 384.998281 1025.72927 385.144824 1027.591 385.743475 1029 384.998281 1030.05608 383.291533 1029 381 1026.85066 379.877728 1024.26946 380.431449 1022.19694 380.431449 1019.74458 379.877728 1017.58384 379.877728 1011.33295 379.877728 1009 381 994.86212 381 991.762408 379.877728 987.152991 379.877728 984.605877 380.431449 982.5 379.877728 965.631307 379.877728 964.281049 378.88 962.542776 378.88 960.94642 379.877728 952.775965 379.877728 951.5 378.88 949.49999 378.88 946.5 379.877728 924.507092 379.877728"></polygon>
        <path d="M1076.5,305.191482 L1075.1109,305.859638 L1075.1109,306.964735 L1073.96559,307.5 L1073.5,308.5 L1073.96559,309.224133 L1075.1109,309.655191 L1076.5,309.224133 C1076.9033,309.511505 1077.10495,309.655191 1077.10495,309.655191 C1077.10495,309.655191 1077.37107,309.655191 1077.90331,309.655191 L1078.70167,310.133916 L1079.55773,311.5 L1080.38292,312 L1080.77947,310.926431 L1080.38292,309.224133 L1079.13624,308 L1077.90331,306.964735 L1077.90331,305.859638 L1076.5,305.191482 Z" id="Path-53" stroke="#EEEEEE" fill="#FFFFFF"></path>
        <polygon id="Path-55" stroke="#EEEEEE" fill="#FFFFFF" points="1218.4094 292.268043 1214.37256 299.881362 1214.37256 301.740133 1218.4094 301.740133 1222.45006 303.604829 1225.00483 303.604829 1225.00483 301.740133 1222.45006 299.881362"></polygon>
        <polygon id="Path-55" stroke="#EEEEEE" fill="#FFFFFF" points="1569.03684 288 1565 295.613319 1565 297.472091 1569.03684 297.472091 1573.0775 299.336786 1575.63227 299.336786 1575.63227 297.472091 1573.0775 295.613319"></polygon>
        <polygon id="Path-55" stroke="#EEEEEE" fill="#FFFFFF" transform="translate(1433.316135, 298.668393) scale(-1, 1) translate(-1433.316135, -298.668393) " points="1432.03684 293 1428 300.613319 1428 302.472091 1432.03684 302.472091 1436.0775 304.336786 1438.63227 304.336786 1438.63227 302.472091 1436.0775 300.613319"></polygon>
        <polygon id="Path-55" stroke="#EEEEEE" fill="#FFFFFF" transform="translate(1506.316135, 299.668393) scale(-1, 1) translate(-1506.316135, -299.668393) " points="1505.03684 294 1501 301.613319 1501 303.472091 1505.03684 303.472091 1509.0775 305.336786 1511.63227 305.336786 1511.63227 303.472091 1509.0775 301.613319"></polygon>
        <polygon id="Path-55" stroke="#EEEEEE" fill="#FFFFFF" points="1646.03684 295 1642 302.613319 1642 304.472091 1646.03684 304.472091 1650.0775 306.336786 1652.63227 306.336786 1652.63227 304.472091 1650.0775 302.613319"></polygon>
        <polygon id="Path-56" stroke="#EEEEEE" fill="#FFFFFF" points="1251.43284 283.632486 1245.06255 290 1243.39656 293.635573 1247.4147 295.165937 1251.43284 295.165937 1257.71573 296.945065 1260.79077 296.945065 1260.79077 295.165937 1258 292.268043"></polygon>
        <polygon id="Path-56" stroke="#EEEEEE" fill="#FFFFFF" points="1467.03627 284 1460.66599 290.367514 1459 294.003087 1463.01814 295.533451 1467.03627 295.533451 1473.31917 297.312579 1476.39421 297.312579 1476.39421 295.533451 1473.60344 292.635556"></polygon>
        <polygon id="Path-56" stroke="#EEEEEE" fill="#FFFFFF" points="1541.03627 285 1534.66599 291.367514 1533 295.003087 1537.01814 296.533451 1541.03627 296.533451 1547.31917 298.312579 1550.39421 298.312579 1550.39421 296.533451 1547.60344 293.635556"></polygon>
        <polygon id="Path-57" stroke="#EEEEEE" fill="#FFFFFF" points="1285.76689 283.632486 1282.15323 296.945065 1277.22875 301.626699 1277.22875 303.604829 1280.1139 303.604829 1283.96812 301.626699 1286.94141 299.881362 1291.95029 299.881362 1293.76891 297.936436 1293.76891 295.671415 1291.95029 295.671415"></polygon>
        <polygon id="Path-57" stroke="#EEEEEE" fill="#FFFFFF" points="1481.53814 284 1477.92448 297.312579 1473 301.994213 1473 303.972343 1475.88515 303.972343 1479.73937 301.994213 1482.71266 300.248876 1487.72154 300.248876 1489.54016 298.30395 1489.54016 296.038929 1487.72154 296.038929"></polygon>
        <polygon id="Path-58" stroke="#EEEEEE" fill="#FFFFFF" points="1149.92321 321.923604 1144.55721 321.923604 1143.1755 325.3 1143.1755 331 1144.55721 333.067539 1146.54936 333.067539 1147.37404 335.393791 1149.92321 339.25 1151.77908 339 1151.77908 336.578435 1151.10442 334.291771"></polygon>
        <polygon id="Path-59" stroke="#EEEEEE" fill="#FFFFFF" points="1327.9753 339.110996 1336.69749 332.211369 1338.88543 332.211369 1340.51738 333.777931 1341.22057 335.661183 1339.73798 339.110996 1338.23849 339.914335 1336.69749 339.110996 1336.06685 337.511578 1334.59794 337.511578 1331.19558 340.646071 1329.21011 340.646071"></polygon>
        <polygon id="Path-60" stroke="#EEEEEE" fill="#FFFFFF" points="1399.38112 341.899139 1398.46603 342.664851 1397.85592 345.342107 1397.85592 349.359588 1398.61852 353.662728 1399.38112 354.544347 1401 353.662728 1401.59869 351.67726 1401.59869 347.09139"></polygon>
        <polygon id="Path-61" stroke="#EEEEEE" fill="#FFFFFF" points="1676 98.3642666 1659.10681 111.14194 1646.92803 126.672438 1629.41983 145.750829 1601.24085 167.839624 1584.09869 182.110936 1569.07617 192.235466 1564.77627 200.36316 1566.0219 206.604865 1569.07617 208.866457 1575.86652 208.866457 1584.09869 206.604865 1590.86273 204.332109 1598.7775 204.332109 1601.24085 206.604865 1606.67313 210.853723 1610.53921 212.948645 1617.98667 212.948645 1622.55691 208.866457 1625.28262 206.604865 1632.60887 203.311363 1638.56349 201.550575 1645.2111 201.550575 1653.78138 200.36316 1656.08045 197.63984 1665.15553 192.235466 1670.28717 193.839154 1675.55345 193.839154"></polygon>
        <polygon id="Path-62" stroke="#EEEEEE" fill="#FFFFFF" points="302.334506 387.5 398 387.5 398 386 400 385 400 383 402 382 402 380.037508 404 379 404 377 407 375.864099 409.357077 375 409.357077 372.347206 407 370.805896 400 370.805896 399 372.347206 398 374 398 375.5 397 376 396 377.5 395 379 395 381 394 381 392.5 382.896003 392.5 384 391.55011 385 305 385 303.074823 385 302.334506 386"></polygon>
    </g>
</svg>