<?xml version="1.0" encoding="utf-8"?>
<svg width="1676px" height="429px" viewBox="0 0 1676 429" version="1.1" xmlns="http://www.w3.org/2000/svg">
  <title>winter_night</title>
  <g id="winter_night" stroke="none" stroke-width="1" fill="none" fill-rule="evenodd">
    <rect id="Rectangle" fill="#242424" x="0" y="107" width="64" height="282"/>
    <rect id="Rectangle" fill="#120900" x="68" y="192" width="65" height="196"/>
    <rect id="Rectangle" stroke="#979797" fill="#000030" x="27.5" y="87.5" width="94" height="301"/>
    <line x1="58" y1="88" x2="58" y2="389" id="Line" stroke="#979797" stroke-linecap="square"/>
    <line x1="27.5" y1="119.5" x2="120.5" y2="119.5" id="Line" stroke="#979797" stroke-linecap="square"/>
    <line x1="29" y1="151" x2="122" y2="151" id="Line" stroke="#979797" stroke-linecap="square"/>
    <line x1="28" y1="183" x2="121" y2="183" id="Line" stroke="#979797" stroke-linecap="square"/>
    <line x1="28" y1="215" x2="121" y2="215" id="Line" stroke="#979797" stroke-linecap="square"/>
    <line x1="28" y1="247" x2="121" y2="247" id="Line" stroke="#979797" stroke-linecap="square"/>
    <line x1="28" y1="277" x2="121" y2="277" id="Line" stroke="#979797" stroke-linecap="square"/>
    <line x1="28" y1="309" x2="121" y2="309" id="Line" stroke="#979797" stroke-linecap="square"/>
    <line x1="28" y1="341" x2="121" y2="341" id="Line" stroke="#979797" stroke-linecap="square"/>
    <line x1="28" y1="369" x2="121" y2="369" id="Line" stroke="#979797" stroke-linecap="square"/>
    <line x1="91" y1="88" x2="91" y2="389" id="Line" stroke="#979797" stroke-linecap="square"/>
    <rect id="Rectangle" stroke="#979797" fill="#00052A" x="0.5" y="401.5" width="1675" height="27"/>
    <rect id="Rectangle" stroke="#979797" fill="#BCBCBC" x="0.5" y="388.5" width="1675" height="13"/>
    <rect id="Rectangle" stroke="#979797" fill="#FFDE87" x="60.5" y="151.5" width="30.5" height="31"/>
    <rect id="Rectangle" stroke="#979797" fill="#FFDE87" x="60.5" y="277.5" width="30.5" height="31"/>
    <rect id="Rectangle" stroke="#000000" fill="#000000" x="8.5" y="123.5" width="73" height="265"/>
    <rect id="Rectangle" stroke="#565656" fill="#FFDE87" x="26.5" y="204.5" width="18" height="12"/>
    <rect id="Rectangle" stroke="#565656" fill="#FFDE87" x="64.5" y="260.5" width="18" height="13"/>
    <rect id="Rectangle" stroke="#565656" fill="#FFDE87" x="64.5" y="176.5" width="18" height="13.5"/>
    <rect id="Rectangle" stroke="#565656" fill="#FFDE87" x="64.5" y="190.5" width="18" height="13"/>
    <rect id="Rectangle" stroke="#565656" fill="#FFDE87" x="64.5" y="203.5" width="18" height="13"/>
    <rect id="Rectangle" stroke="#565656" fill="#FFDE87" x="45.5" y="163" width="18" height="12"/>
    <rect id="Rectangle" stroke="#565656" fill="#FFDE87" x="8.5" y="217.5" width="18" height="12"/>
    <line x1="44.5" y1="124.017578" x2="44.5" y2="387.982422" id="Line-2" stroke="#565656" stroke-linecap="square"/>
    <line x1="64" y1="123.017578" x2="64" y2="387.98" id="Line-2" stroke="#565656" stroke-linecap="square"/>
    <line x1="26" y1="123.017578" x2="26" y2="387.98" id="Line-2" stroke="#565656" stroke-linecap="square"/>
    <line x1="8.5" y1="135.5" x2="82.5" y2="135.5" id="Line-2" stroke="#565656" stroke-linecap="square"/>
    <line x1="8.5" y1="149" x2="82.5" y2="149" id="Line-2" stroke="#565656" stroke-linecap="square"/>
    <line x1="8.5" y1="162" x2="82.5" y2="162" id="Line-2" stroke="#565656" stroke-linecap="square"/>
    <line x1="8.5" y1="176" x2="82.5" y2="176" id="Line-2" stroke="#565656" stroke-linecap="square"/>
    <line x1="8.5" y1="190" x2="82.5" y2="190" id="Line-2" stroke="#565656" stroke-linecap="square"/>
    <line x1="8.5" y1="204" x2="82.5" y2="204" id="Line-2" stroke="#565656" stroke-linecap="square"/>
    <line x1="8.5" y1="217" x2="82.5" y2="217" id="Line-2" stroke="#565656" stroke-linecap="square"/>
    <line x1="8.5" y1="231" x2="82.5" y2="231" id="Line-2" stroke="#565656" stroke-linecap="square"/>
    <line x1="8.5" y1="245" x2="82.5" y2="245" id="Line-2" stroke="#565656" stroke-linecap="square"/>
    <line x1="8.5" y1="260" x2="82.5" y2="260" id="Line-2" stroke="#565656" stroke-linecap="square"/>
    <line x1="8.5" y1="274" x2="82.5" y2="274" id="Line-2" stroke="#565656" stroke-linecap="square"/>
    <line x1="8.5" y1="288" x2="82.5" y2="288" id="Line-2" stroke="#565656" stroke-linecap="square"/>
    <line x1="8.5" y1="301" x2="82.5" y2="301" id="Line-2" stroke="#565656" stroke-linecap="square"/>
    <line x1="8.5" y1="315" x2="82.5" y2="315" id="Line-2" stroke="#565656" stroke-linecap="square"/>
    <line x1="8.5" y1="330" x2="82.5" y2="330" id="Line-2" stroke="#565656" stroke-linecap="square"/>
    <line x1="8.5" y1="345" x2="82.5" y2="345" id="Line-2" stroke="#565656" stroke-linecap="square"/>
    <line x1="8.5" y1="360" x2="82.5" y2="360" id="Line-2" stroke="#565656" stroke-linecap="square"/>
    <line x1="8.5" y1="374" x2="82.5" y2="374" id="Line-2" stroke="#565656" stroke-linecap="square"/>
    <rect id="Rectangle" stroke="#979797" fill="#6E6250" x="0.5" y="228.5" width="73" height="160"/>
    <rect id="Rectangle" stroke="#979797" fill="#3F3F3F" x="0.5" y="237.5" width="22" height="7"/>
    <rect id="Rectangle" stroke="#979797" fill="#3F3F3F" x="0.5" y="253.5" width="22" height="7"/>
    <rect id="Rectangle" stroke="#979797" fill="#3F3F3F" x="0.5" y="269.5" width="22" height="7"/>
    <rect id="Rectangle" stroke="#979797" fill="#3F3F3F" x="0.5" y="285.5" width="22" height="7"/>
    <rect id="Rectangle" stroke="#979797" fill="#3F3F3F" x="0.5" y="301.5" width="22" height="7"/>
    <rect id="Rectangle" stroke="#979797" fill="#3F3F3F" x="0.5" y="317.5" width="22" height="7"/>
    <rect id="Rectangle" stroke="#979797" fill="#3F3F3F" x="0.5" y="333.5" width="22" height="7"/>
    <rect id="Rectangle" stroke="#979797" fill="#3F3F3F" x="0.5" y="349.5" width="22" height="7"/>
    <rect id="Rectangle" stroke="#979797" fill="#3F3F3F" x="0.5" y="365.5" width="22" height="7"/>
    <rect id="Rectangle" stroke="#979797" fill="#3F3F3F" x="37.5" y="237.5" width="29" height="7"/>
    <rect id="Rectangle" stroke="#979797" fill="#3F3F3F" x="37.5" y="253.5" width="29" height="7"/>
    <rect id="Rectangle" stroke="#979797" fill="#3F3F3F" x="37.5" y="269.5" width="29" height="7"/>
    <rect id="Rectangle" stroke="#979797" fill="#3F3F3F" x="37.5" y="285.5" width="29" height="7"/>
    <rect id="Rectangle" stroke="#979797" fill="#3F3F3F" x="37.5" y="301.5" width="29" height="7"/>
    <rect id="Rectangle" stroke="#979797" fill="#3F3F3F" x="37.5" y="317.5" width="29" height="7"/>
    <rect id="Rectangle" stroke="#979797" fill="#3F3F3F" x="37.5" y="333.5" width="29" height="7"/>
    <rect id="Rectangle" stroke="#979797" fill="#3F3F3F" x="37.5" y="349.5" width="29" height="7"/>
    <rect id="Rectangle" stroke="#979797" fill="#3F3F3F" x="37.5" y="365.5" width="29" height="7"/>
    <line x1="184.875" y1="216.875" x2="244.5" y2="296.5" id="Line-3" stroke="#888888" stroke-linecap="square"/>
    <line x1="168.8125" y1="215.8125" x2="228.4375" y2="295.4375" id="Line-3" stroke="#888888" stroke-linecap="square" transform="translate(198.812500, 255.812500) scale(-1, 1) translate(-198.812500, -255.812500) "/>
    <line x1="193.75" y1="172.75" x2="228.5" y2="215.5" id="Line-3" stroke="#888888" stroke-linecap="square"/>
    <line x1="184.875" y1="173.875" x2="219.625" y2="216.625" id="Line-3" stroke="#888888" stroke-linecap="square" transform="translate(202.375000, 195.375000) scale(-1, 1) translate(-202.375000, -195.375000) "/>
    <line x1="198.5" y1="149.25" x2="220" y2="171.5" id="Line-3" stroke="#888888" stroke-linecap="square"/>
    <line x1="194" y1="149" x2="215.5" y2="171.25" id="Line-3" stroke="#888888" stroke-linecap="square" transform="translate(204.750000, 160.125000) scale(-1, 1) translate(-204.750000, -160.125000) "/>
    <polygon id="Path-3" stroke="#979797" fill="#DCDCDC" points="192 149 197.855469 149 151.4621 387.98 145.882148 387.98"/>
    <polygon id="Path-3" stroke="#979797" fill="#DCDCDC" transform="translate(241.986660, 269.490000) scale(-1, 1) translate(-241.986660, -269.490000) " points="262.117852 150 267.973321 150 221.579952 388.98 216 388.98"/>
    <line x1="154.875" y1="227.875" x2="233.625" y2="333.625" id="Line-3" stroke="#979797" stroke-linecap="square" transform="translate(194.375000, 280.875000) scale(-1, 1) translate(-194.375000, -280.875000) "/>
    <line x1="179.75" y1="227.75" x2="258.5" y2="333.5" id="Line-3" stroke="#979797" stroke-linecap="square"/>
    <line x1="179.75" y1="176.75" x2="221.25" y2="228.25" id="Line-3" stroke="#979797" stroke-linecap="square" transform="translate(200.750000, 202.750000) scale(-1, 1) translate(-200.750000, -202.750000) "/>
    <line x1="192" y1="176" x2="233.5" y2="227.5" id="Line-3" stroke="#979797" stroke-linecap="square"/>
    <line x1="192" y1="149" x2="215.5" y2="176.25" id="Line-3" stroke="#979797" stroke-linecap="square" transform="translate(203.750000, 162.625000) scale(-1, 1) translate(-203.750000, -162.625000) "/>
    <line x1="198.5" y1="149.25" x2="222" y2="176.5" id="Line-3" stroke="#979797" stroke-linecap="square"/>
    <polygon id="Path" stroke="#979797" fill="#EEEEEE" points="127.410156 429 191.980469 149 197.855469 149 133.492188 429"/>
    <polygon id="Path" stroke="#979797" fill="#EEEEEE" transform="translate(251.222656, 289.000000) scale(-1, 1) translate(-251.222656, -289.000000) " points="216 429 280.570312 149 286.445312 149 222.082031 429"/>
    <polygon id="Path-4" stroke="#979797" fill="#DCDCDC" points="133.492188 429 280.363281 429 270.657905 386.23494 143.269747 386.23494"/>
    <rect id="Rectangle" stroke="#FFFFFF" fill="#5A472E" x="554.5" y="282.5" width="250" height="105"/>
    <rect id="Rectangle" fill="#5A472E" x="654" y="251" width="51" height="49"/>
    <rect id="Rectangle" stroke="#FFFFFF" fill="#FFFFFF" x="655.5" y="303.5" width="5" height="45"/>
    <rect id="Rectangle" stroke="#FFFFFF" fill="#FFFFFF" x="669.5" y="303.5" width="5" height="45"/>
    <rect id="Rectangle" stroke="#FFFFFF" fill="#FFFFFF" x="684.5" y="303.5" width="5" height="45"/>
    <rect id="Rectangle" stroke="#FFFFFF" fill="#FFFFFF" x="698.5" y="303.5" width="5" height="45"/>
    <line x1="561" y1="288" x2="561" y2="382" id="Line-5" stroke="#271400" stroke-linecap="square"/>
    <line x1="588" y1="288" x2="588" y2="382" id="Line-5" stroke="#271400" stroke-linecap="square"/>
    <line x1="582" y1="288" x2="582" y2="382" id="Line-5" stroke="#271400" stroke-linecap="square"/>
    <line x1="777" y1="288" x2="777" y2="382" id="Line-5" stroke="#271400" stroke-linecap="square"/>
    <line x1="771" y1="288" x2="771" y2="382" id="Line-5" stroke="#271400" stroke-linecap="square"/>
    <line x1="798" y1="288" x2="798" y2="382" id="Line-5" stroke="#271400" stroke-linecap="square"/>
    <line x1="612" y1="288" x2="612" y2="382" id="Line-5" stroke="#271400" stroke-linecap="square"/>
    <line x1="654.5" y1="341.5" x2="606.5" y2="341.5" id="Line-4" stroke="#FFFFFF" stroke-width="1.5" stroke-linecap="square"/>
    <line x1="746.5" y1="288" x2="746" y2="382" id="Line-5" stroke="#271400" stroke-linecap="square"/>
    <line x1="751" y1="342" x2="703" y2="342" id="Line-4" stroke="#FFFFFF" stroke-width="1.5" stroke-linecap="square"/>
    <line x1="606" y1="288" x2="606" y2="382" id="Line-5" stroke="#271400" stroke-linecap="square"/>
    <line x1="752.5" y1="288" x2="752" y2="382" id="Line-5" stroke="#271400" stroke-linecap="square"/>
    <polygon id="Path-2" stroke="#FFFFFF" fill="#635038" points="554 386.728197 554 365 616.554163 365 634.373061 375.728197 654.798678 376.228197 654.798678 386.728197"/>
    <polygon id="Path-2" stroke="#FFFFFF" fill="#635038" transform="translate(754.399339, 375.864099) scale(-1, 1) translate(-754.399339, -375.864099) " points="704 386.728197 704 365 766.554163 365 784.373061 375.728197 804.798678 376.228197 804.798678 386.728197"/>
    <line x1="661" y1="291" x2="661" y2="340.25" id="Line-5" stroke="#271400" stroke-linecap="square"/>
    <line x1="698.5" y1="291" x2="698.5" y2="340.25" id="Line-5" stroke="#271400" stroke-linecap="square"/>
    <line x1="737" y1="291" x2="737" y2="340.25" id="Line-5" stroke="#271400" stroke-linecap="square"/>
    <rect id="Rectangle" stroke="#FFFFFF" fill="#FFFFFF" x="655.5" y="305.5" width="48" height="43"/>
    <polyline id="Path-5" stroke="#FFFFFF" points="634.578148 375.864099 616.554163 365 654.798678 349 704 349 742.244515 365 724.425616 375.728197"/>
    <rect id="Rectangle" fill="#624321" x="661" y="326" width="8" height="22"/>
    <rect id="Rectangle" fill="#624321" x="675.5" y="326" width="8" height="22"/>
    <rect id="Rectangle" fill="#624321" x="690" y="326" width="8" height="22"/>
    <rect id="Rectangle" fill="#000000" x="661" y="315" width="8" height="8"/>
    <rect id="Rectangle" fill="#000000" x="675.5" y="315" width="8" height="8"/>
    <rect id="Rectangle" fill="#000000" x="690" y="315" width="8" height="8"/>
    <circle id="Oval" fill="#000000" cx="665" cy="315" r="4"/>
    <rect id="Rectangle" fill="#8D8D8D" x="676.5" y="360" width="6" height="21"/>
    <circle id="Oval" fill="#8D8D8D" cx="679.5" cy="360" r="3"/>
    <rect id="Rectangle" fill="#8D8D8D" x="684.25" y="360" width="6" height="21"/>
    <circle id="Oval" fill="#8D8D8D" cx="687.25" cy="360" r="3"/>
    <circle id="Oval" fill="#8D8D8D" cx="695" cy="360" r="3"/>
    <rect id="Rectangle" fill="#8D8D8D" x="692" y="360" width="6" height="21"/>
    <rect id="Rectangle" fill="#8D8D8D" x="661" y="360" width="6" height="21"/>
    <circle id="Oval" fill="#8D8D8D" cx="664" cy="360" r="3"/>
    <rect id="Rectangle" fill="#8D8D8D" x="668.75" y="360" width="6" height="21"/>
    <circle id="Oval" fill="#8D8D8D" cx="671.75" cy="360" r="3"/>
    <circle id="Oval" fill="#000000" cx="679.5" cy="315" r="4"/>
    <circle id="Oval" fill="#000000" cx="694" cy="315" r="4"/>
    <polygon id="Path-6" stroke="#C0AD94" fill="#D9D9D9" points="622 290 622 262.893106 630.199529 262.893106 630.199529 269 653 269 653 262.893106 661 262.893106 661 290"/>
    <polygon id="Path-6" stroke="#C0AD94" fill="#D9D9D9" points="698 290.106894 698 263 706.199529 263 706.199529 269.106894 729 269.106894 729 263 737 263 737 290.106894"/>
    <rect id="Rectangle" stroke="#C0AD94" fill="#D9D9D9" x="654.5" y="245.5" width="15" height="15"/>
    <rect id="Rectangle" stroke="#C0AD94" fill="#D9D9D9" x="689.5" y="245.5" width="15" height="15"/>
    <rect id="Rectangle" fill="#D9D9D9" x="675.5" y="262" width="8" height="25"/>
    <rect id="Rectangle" fill="#D9D9D9" x="664" y="262" width="8" height="25"/>
    <rect id="Rectangle" fill="#D9D9D9" x="687" y="262" width="8" height="25"/>
    <rect id="Rectangle" stroke="#C0AD94" fill="#D9D9D9" x="602.5" y="280.5" width="13" height="6"/>
    <rect id="Rectangle" stroke="#C0AD94" fill="#D9D9D9" x="578.5" y="280.5" width="13" height="6"/>
    <rect id="Rectangle" stroke="#C0AD94" fill="#D9D9D9" x="554.5" y="280.5" width="13" height="6"/>
    <rect id="Rectangle" stroke="#C0AD94" fill="#D9D9D9" x="791.5" y="280.5" width="13" height="6"/>
    <rect id="Rectangle" stroke="#C0AD94" fill="#D9D9D9" x="767.5" y="280.5" width="13" height="6"/>
    <rect id="Rectangle" stroke="#C0AD94" fill="#D9D9D9" x="743.5" y="280.5" width="13" height="6"/>
    <line x1="622.5" y1="291" x2="622.5" y2="340.25" id="Line-5" stroke="#271400" stroke-linecap="square"/>
    <rect id="Rectangle" stroke="#979797" fill="#CFCFCF" x="305.5" y="309.5" width="259" height="79"/>
    <path d="M341.5,300.547159 L370.643893,313.5 L312.356107,313.5 L341.5,300.547159 Z" id="Triangle" stroke="#979797" fill="#FFFFFF"/>
    <path d="M528.5,300.547159 L557.643893,313.5 L499.356107,313.5 L528.5,300.547159 Z" id="Triangle" stroke="#979797" fill="#FFFFFF"/>
    <ellipse id="Oval" stroke="#979797" fill="#FFFFFF" cx="435" cy="265.5" rx="20.5" ry="37"/>
    <rect id="Rectangle" stroke="#979797" fill="#E7E7E7" x="407.5" y="266.5" width="55" height="32"/>
    <rect id="Rectangle" stroke="#979797" fill="#FFFFFF" x="404.5" y="263.5" width="62" height="7"/>
    <rect id="Rectangle" stroke="#979797" fill="#FFFFFF" x="443.5" y="270.5" width="7" height="33"/>
    <rect id="Rectangle" stroke="#979797" fill="#FFFFFF" x="455.5" y="270.5" width="7" height="33"/>
    <rect id="Rectangle" stroke="#979797" fill="#FFFFFF" x="432" y="270.5" width="7" height="33"/>
    <rect id="Rectangle" stroke="#979797" fill="#FFFFFF" x="419.5" y="270.5" width="7" height="33"/>
    <rect id="Rectangle" stroke="#979797" fill="#FFFFFF" x="407.5" y="270.5" width="7" height="33"/>
    <path d="M435.5,286.547159 L464.643893,299.5 L406.356107,299.5 L435.5,286.547159 Z" id="Triangle" stroke="#979797" fill="#FFFFFF"/>
    <rect id="Rectangle" stroke="#979797" fill="#FFFFFF" x="398.5" y="299.5" width="73" height="13"/>
    <rect id="Rectangle" stroke="#979797" fill="#FFFFFF" x="383.5" y="289.5" width="18" height="99"/>
    <rect id="Rectangle" stroke="#979797" fill="#FFFFFF" x="383.5" y="306.5" width="18" height="13"/>
    <rect id="Rectangle" stroke="#979797" fill="#FFFFFF" x="433" y="216.5" width="4" height="13"/>
    <rect id="Rectangle" stroke="#979797" fill="#FFFFFF" x="468.5" y="289.5" width="18" height="99"/>
    <rect id="Rectangle" stroke="#979797" fill="#CFCFCF" x="394.5" y="386.5" width="81" height="2"/>
    <rect id="Rectangle" stroke="#979797" fill="#CFCFCF" x="395.5" y="384.5" width="79" height="2"/>
    <rect id="Rectangle" stroke="#979797" fill="#CFCFCF" x="396.5" y="382.5" width="77" height="2"/>
    <rect id="Rectangle" stroke="#979797" fill="#CFCFCF" x="397.5" y="380.5" width="75" height="2"/>
    <rect id="Rectangle" stroke="#979797" fill="#CFCFCF" x="398.5" y="378.5" width="73" height="2"/>
    <rect id="Rectangle" stroke="#979797" fill="#CFCFCF" x="399.5" y="376.5" width="71" height="2"/>
    <rect id="Rectangle" stroke="#979797" fill="#CFCFCF" x="400.5" y="374.5" width="69" height="2"/>
    <rect id="Rectangle" stroke="#979797" fill="#FFFFFF" x="468.5" y="306.5" width="18" height="13"/>
    <rect id="Rectangle" stroke="#979797" fill="#D8D8D8" x="428.5" y="325.5" width="13" height="49"/>
    <rect id="Rectangle" stroke="#979797" fill="#D8D8D8" x="408.5" y="325.5" width="13" height="49"/>
    <rect id="Rectangle" stroke="#979797" fill="#D8D8D8" x="448.5" y="325.5" width="13" height="49"/>
    <rect id="Rectangle" stroke="#979797" fill="#F3F3F3" x="335.5" y="325.5" width="13" height="56"/>
    <rect id="Rectangle" stroke="#979797" fill="#F3F3F3" x="315.5" y="325.5" width="13" height="56"/>
    <rect id="Rectangle" stroke="#979797" fill="#F3F3F3" x="355.5" y="325.5" width="13" height="56"/>
    <rect id="Rectangle" stroke="#979797" fill="#F3F3F3" x="521.5" y="325.5" width="13" height="56"/>
    <rect id="Rectangle" stroke="#979797" fill="#F3F3F3" x="501.5" y="325.5" width="13" height="56"/>
    <rect id="Rectangle" stroke="#979797" fill="#F3F3F3" x="541.5" y="325.5" width="13" height="56"/>
    <path d="M945.678602,303.729624 C943.859534,298.631066 942.95,294.56919 942.95,291.543993 C942.95,288.518797 943.859534,284.456921 945.678602,279.358363" id="Path-33" stroke-opacity="0.6" stroke="#000000" transform="translate(944.314301, 291.543993) scale(-1, 1) translate(-944.314301, -291.543993) "/>
    <rect id="Rectangle" fill="#D9D9D9" x="652" y="385" width="55" height="2"/>
    <rect id="Rectangle" fill="#D9D9D9" x="653" y="383" width="53" height="2"/>
    <path d="M947.678602,303.729624 C945.859534,298.631066 944.95,294.56919 944.95,291.543993 C944.95,288.518797 945.859534,284.456921 947.678602,279.358363" id="Path-33" stroke-opacity="0.6" stroke="#000000" transform="translate(946.314301, 291.543993) scale(-1, 1) translate(-946.314301, -291.543993) "/>
    <rect id="Rectangle" fill="#D9D9D9" x="655" y="381" width="49" height="2"/>
    <rect id="Rectangle" stroke="#323247" fill="#380404" x="801" y="302.5" width="11" height="28"/>
    <path d="M948.678602,303.729624 C946.859534,298.631066 945.95,294.56919 945.95,291.543993 C945.95,288.518797 946.859534,284.456921 948.678602,279.358363" id="Path-33" stroke-opacity="0.6" stroke="#000000" transform="translate(947.314301, 291.543993) scale(-1, 1) translate(-947.314301, -291.543993) "/>
    <polygon id="Path-9" stroke="#323247" fill="#380404" points="795.5 387.5 795.5 333.125 828.921161 308.5 862.038927 333.125 862.038927 387.5"/>
    <line x1="829" y1="308.5" x2="787" y2="339.25" id="Line-6" stroke="#323247" stroke-linecap="square"/>
    <path d="M949.678602,303.729624 C947.859534,298.631066 946.95,294.56919 946.95,291.543993 C946.95,288.518797 947.859534,284.456921 949.678602,279.358363" id="Path-33" stroke-opacity="0.6" stroke="#000000" transform="translate(948.314301, 291.543993) scale(-1, 1) translate(-948.314301, -291.543993) "/>
    <line x1="871.5" y1="308.75" x2="829.5" y2="340" id="Line-6" stroke="#323247" stroke-linecap="square" transform="translate(850.500000, 324.375000) scale(-1, 1) translate(-850.500000, -324.375000) "/>
    <rect id="Rectangle" stroke="#FFFFFF" fill="#FFDE87" x="805" y="339.5" width="9" height="12"/>
    <path d="M950.678602,303.729624 C948.859534,298.631066 947.95,294.56919 947.95,291.543993 C947.95,288.518797 948.859534,284.456921 950.678602,279.358363" id="Path-33" stroke-opacity="0.6" stroke="#000000" transform="translate(949.314301, 291.543993) scale(-1, 1) translate(-949.314301, -291.543993) "/>
    <rect id="Rectangle" stroke="#FFFFFF" fill="#FFDE87" x="805" y="351.5" width="9" height="12"/>
    <rect id="Rectangle" stroke="#FFFFFF" fill="#FFDE87" x="814" y="351.5" width="9" height="12"/>
    <path d="M951.678602,303.729624 C949.859534,298.631066 948.95,294.56919 948.95,291.543993 C948.95,288.518797 949.859534,284.456921 951.678602,279.358363" id="Path-33" stroke-opacity="0.6" stroke="#000000" transform="translate(950.314301, 291.543993) scale(-1, 1) translate(-950.314301, -291.543993) "/>
    <rect id="Rectangle" stroke="#FFFFFF" fill="#FFDE87" x="814" y="339.5" width="9" height="12"/>
    <rect id="Rectangle" stroke="#2C2C32" fill="#290A00" x="834" y="352.5" width="18" height="35"/>
    <path d="M946.678602,303.729624 C944.859534,298.631066 943.95,294.56919 943.95,291.543993 C943.95,288.518797 944.859534,284.456921 946.678602,279.358363" id="Path-33" stroke-opacity="0.6" stroke="#000000" transform="translate(945.314301, 291.543993) scale(-1, 1) translate(-945.314301, -291.543993) "/>
    <rect id="Rectangle" stroke="#323247" fill="#695959" x="942" y="302.5" width="11" height="28"/>
    <polygon id="Path-9" stroke="#323247" fill="#695959" points="893 387.5 893 333.125 926.421161 308.5 959.538927 333.125 959.538927 387.5"/>
    <line x1="926.5" y1="308.5" x2="884.5" y2="339.25" id="Line-6" stroke="#323247" stroke-linecap="square"/>
    <line x1="969" y1="308.75" x2="927" y2="340" id="Line-6" stroke="#323247" stroke-linecap="square" transform="translate(948.000000, 324.375000) scale(-1, 1) translate(-948.000000, -324.375000) "/>
    <rect id="Rectangle" stroke="#FFFFFF" fill="#FFDE87" x="933" y="339.5" width="9" height="12"/>
    <rect id="Rectangle" stroke="#FFFFFF" fill="#FFDE87" x="933" y="351.5" width="9" height="12"/>
    <rect id="Rectangle" stroke="#FFFFFF" fill="#FFDE87" x="942" y="351.5" width="9" height="12"/>
    <rect id="Rectangle" stroke="#FFFFFF" fill="#FFDE87" x="942" y="339.5" width="9" height="12"/>
    <rect id="Rectangle" stroke="#2C2C32" fill="#290A00" x="903" y="352.5" width="18" height="35"/>
    <rect id="Rectangle" stroke="#323247" fill="#380404" x="996.5" y="302.5" width="11" height="28"/>
    <polygon id="Path-9" stroke="#323247" fill="#380404" points="991 387.5 991 333.125 1024.42116 308.5 1057.53893 333.125 1057.53893 387.5"/>
    <line x1="1024.5" y1="308.5" x2="982.5" y2="339.25" id="Line-6" stroke="#323247" stroke-linecap="square"/>
    <line x1="1067" y1="308.75" x2="1025" y2="340" id="Line-6" stroke="#323247" stroke-linecap="square" transform="translate(1046.000000, 324.375000) scale(-1, 1) translate(-1046.000000, -324.375000) "/>
    <rect id="Rectangle" stroke="#FFFFFF" fill="#6F808F" x="1000.5" y="339.5" width="9" height="12"/>
    <rect id="Rectangle" stroke="#FFFFFF" fill="#6F808F" x="1000.5" y="351.5" width="9" height="12"/>
    <rect id="Rectangle" stroke="#FFFFFF" fill="#6F808F" x="1009.5" y="351.5" width="9" height="12"/>
    <rect id="Rectangle" stroke="#FFFFFF" fill="#6F808F" x="1009.5" y="339.5" width="9" height="12"/>
    <rect id="Rectangle" stroke="#2C2C32" fill="#290A00" x="1029.5" y="352.5" width="18" height="35"/>
    <circle id="Oval" fill="#000000" cx="836" cy="370.5" r="1"/>
    <circle id="Oval" fill="#000000" cx="919" cy="370.5" r="1"/>
    <circle id="Oval" fill="#000000" cx="1031.5" cy="370.5" r="1"/>
    <polygon id="Path-10" stroke="#63845F" fill="#A0AA89" points="795.5 387.5 793.667191 382 798 385 798 382 800.5 384 802.018067 382 804.5 384.75 805 382 808 384.75 808 382 811.164126 385 812.5 382 813.5 384 816.240546 382 818.5 384.75 820.59135 382 822.149832 384.75 824.917998 381 824.917998 384 827.217832 382 827.217832 384.75 829.5 382 830.428595 384.75 832.652602 382.64387 833.5 387.5"/>
    <polygon id="Path-11" stroke="#63845F" fill="#A0AA89" points="852.5 387.5 855.199799 383.222465 855.199799 385.754499 858.566331 383.222465 858.566331 385.361232 862.038927 383.222465 863.415717 385.361232 865.6527 383.222465 865.6527 385.361232 867.577777 383.222465 868.777892 385.361232 870.574065 383.222465 871.5 384.25 873.333247 383.222465 875.177877 385.754499 876.714362 382 878.512888 384.75 879.407211 382 880.639316 384.25 882.057249 382 883.206555 385.754499 885.335336 383.222465 886.107813 384.75 887.985844 383.222465 888.697633 384.25 891.454933 382 893 384.25 894.581536 382 895.584533 384.25 897.126193 382 897.962651 383.222465 899.032922 382 899.960176 384.25 901.084549 381 902.5 387.5"/>
    <polygon id="Path-12" stroke="#63845F" fill="#A0AA89" points="921.5 387.5 922.999934 383.214937 923.954475 385.357469 925.403457 382.496562 927 385.357469 928.827383 382.496562 928.827383 384.998281 931.39274 382.496562 932.5 384.998281 933.637251 383.214937 934.989321 384.998281 937.5 382.496562 938.452765 384.998281 940.398541 383.214937 941.5 384.998281 943.172777 382.496562 944.335727 385.357469 946.5 383.214937 946.5 384.998281 949.671086 381 949.671086 384.25 951.5 382.496562 953.5 384.998281 953.5 382.496562 955.160753 384.25 956.694416 382.496562 958.383327 384.25 959.538927 382.496562 960.859298 384.998281 963.276935 381 964.383901 384.25 965.709625 381.649754 967.463929 383.214937 969 381.649754 970.271567 383.214937 972.23522 382.496562 973.477675 384.998281 975.134125 382.496562 976.270259 384.25 977.827915 382.496562 978.814916 384.25 982.5 381.649754 983.659598 385.357469 987.170557 381.649754 987.170557 385.357469 989.587723 382.496562 991 385.357469 992.621176 382.496562 993.816587 386.40458 996 382.496562 996.662331 384.998281 999.023043 382.496562 1000 384.998281 1002 382.496562 1003.5 384.998281 1004.26855 382.496562 1005 384.998281 1006.75581 382.496562 1008 384.998281 1009 383.214937 1010.79932 384.998281 1012.43742 381.649754 1014 384.998281 1014.72945 382.496562 1015.92391 384.25 1017.36019 381.649754 1018.25875 384.998281 1020.39647 381.649754 1022.16583 384.25 1025 382.496562 1026.05785 384.998281 1027.17046 382.496562 1029 387.5"/>
    <polygon id="Path-13" stroke="#1B150E" fill="#513F2B" points="1104.2472 387.5 1106.82197 372.375448 1106.82197 352.646953 1089 336.044245 1090.53093 334.832157 1106.82197 348.933948 1108.7095 330.5 1111.23803 330.5 1112.96848 376.702838 1116.88543 387.5"/>
    <polygon id="Path-15" stroke="#312619" fill="#695137" points="1142.38632 387.560628 1144.49727 374.571991 1144.49727 354.572423 1131.2718 332.156103 1132.2347 331.248234 1144.49727 347.560628 1145.6464 325.3 1148.5483 325.3 1150.61534 351.560628 1162.41023 328.36009 1163.47628 329.116647 1150.61534 358.560628 1151.41052 372.117148 1155.28166 387.560628"/>
    <polygon id="Path-17" stroke="#1B150E" fill="#513F2B" points="1179.49929 387.560628 1181.81067 380.1131 1182.72806 331 1186.12357 331 1187.33618 348 1195.87893 334.612785 1197.26295 334.612785 1187.33618 353.347898 1188.38112 381 1192.51939 387.5"/>
    <polygon id="Path-19" stroke="#1C160E" fill="#4F3D2A" points="1214.37256 387.560628 1216.95198 382.959233 1218.77315 306.622152 1222.54942 382.959233 1226.43544 387.560628"/>
    <path d="M1218.71783,296.945065 L1216.59591,301.532692 L1211.65836,308.504796 L1215.96763,307.31629 L1215.18809,310.789692 L1208.69741,316.371245 L1215.18809,315.282402 L1213.70762,318.803139 L1206.43411,324.320234 L1213.70762,323.02416 L1211.65836,325.3 L1203.62639,330.5 L1212.80515,328.620723 L1211.65836,332.547142 L1200.51353,339.782237 L1212.80515,336.988565 L1211.65836,340.411395 L1196.02337,350.059944 L1212.80515,347.09139 L1211.65836,350.059944 L1191.75625,362.310301 L1201.32752,360.424145 L1203.04333,362.310301 L1206.43411,359.280314 L1207.80789,362.310301 L1210.33155,360.424145 L1211.65836,362.310301 L1215.18809,358.547208 L1216.59591,362.310301 L1218.11194,361.015983 C1220.868,362.357718 1222.24603,363.028586 1222.24603,363.028586 L1224.16819,359.967533 L1226.43544,362.310301 L1227.34647,361.015983 L1230.94667,362.310301 L1232.04562,359.280314 L1245.06255,363.816679 L1227.34647,349.128282 L1225.61135,345.717746 L1241.41537,351.181277 L1224.95672,338.698663 L1224.16819,335.349594 L1234.99295,339.782237 L1223.11667,328.620723 L1230.94667,330.380872 L1224.16819,323.02416 L1230.01984,323.616877 L1222.24603,318.014606 L1222.24603,315.282402 L1227.34647,316.371245 L1222.24603,309.942683 L1221.55716,306.622152 L1227.96246,308.504796 L1220.404,301.532692 L1218.71783,296.945065 Z" id="Path-20" stroke="#15210E" fill="#364530"/>
    <polygon id="Path-13" stroke="#1B150E" fill="#513F2B" transform="translate(1324.942713, 358.500000) scale(-1, 1) translate(-1324.942713, -358.500000) " points="1326.2472 387 1328.82197 371.875448 1328.82197 352.146953 1311 335.544245 1312.53093 334.332157 1328.82197 348.433948 1330.7095 330 1333.23803 330 1334.96848 376.202838 1338.88543 387"/>
    <polygon id="Path-25" stroke="#979797" fill="#7B7B7B" points="1390.30145 388.5 1413.83106 378.25497 1437.33043 357.430314 1452.5675 326.510308 1482.52413 309.75 1496.41142 285.153453 1521.6696 257.057729 1538.19065 250.976473 1564.17263 215.235944 1574.9122 197.280996 1601.20717 174.84043 1631.42878 150.174883 1664.13737 115.113238 1675.55345 105.264757 1675.55345 388.5"/>
    <polygon id="Path-15" stroke="#312619" fill="#695137" transform="translate(1360.102240, 356.130314) scale(-1, 1) translate(-1360.102240, -356.130314) " points="1355.11452 387.260628 1357.22547 374.271991 1357.22547 354.272423 1344 331.856103 1344.96289 330.948234 1357.22547 347.260628 1358.37459 325 1361.27649 325 1363.34353 351.260628 1375.13842 328.06009 1376.20448 328.816647 1363.34353 358.260628 1364.13871 371.817148 1368.00985 387.260628"/>
    <polygon id="Path-17" stroke="#1B150E" fill="#513F2B" transform="translate(1399.381121, 359.390314) scale(-1, 1) translate(-1399.381121, -359.390314) " points="1390.49929 387.670628 1392.81067 380.2231 1393.72806 331.11 1397.12357 331.11 1398.33618 348.11 1406.87893 334.722785 1408.26295 334.722785 1398.33618 353.457898 1399.38112 381.11 1403.51939 387.61"/>
    <polygon id="Path-19" stroke="#1C160E" fill="#4F3D2A" points="1430.37256 387.560628 1432.95198 382.959233 1434.77315 306.622152 1438.54942 382.959233 1442.43544 387.560628"/>
    <path d="M1434.71783,296.945065 L1432.59591,301.532692 L1427.65836,308.504796 L1431.96763,307.31629 L1431.18809,310.789692 L1424.69741,316.371245 L1431.18809,315.282402 L1429.70762,318.803139 L1422.43411,324.320234 L1429.70762,323.02416 L1427.65836,325.3 L1419.62639,330.5 L1428.80515,328.620723 L1427.65836,332.547142 L1416.51353,339.782237 L1428.80515,336.988565 L1427.65836,340.411395 L1412.02337,350.059944 L1428.80515,347.09139 L1427.65836,350.059944 L1407.75625,362.310301 L1417.32752,360.424145 L1419.04333,362.310301 L1422.43411,359.280314 L1423.80789,362.310301 L1426.33155,360.424145 L1427.65836,362.310301 L1431.18809,358.547208 L1432.59591,362.310301 L1434.11194,361.015983 C1436.868,362.357718 1438.24603,363.028586 1438.24603,363.028586 L1440.16819,359.967533 L1442.43544,362.310301 L1443.34647,361.015983 L1446.94667,362.310301 L1448.04562,359.280314 L1461.06255,363.816679 L1443.34647,349.128282 L1441.61135,345.717746 L1457.41537,351.181277 L1440.95672,338.698663 L1440.16819,335.349594 L1450.99295,339.782237 L1439.11667,328.620723 L1446.94667,330.380872 L1440.16819,323.02416 L1446.01984,323.616877 L1438.24603,318.014606 L1438.24603,315.282402 L1443.34647,316.371245 L1438.24603,309.942683 L1437.55716,306.622152 L1443.96246,308.504796 L1436.404,301.532692 L1434.71783,296.945065 Z" id="Path-20" stroke="#15210E" fill="#364530"/>
    <polygon id="Path-21" stroke="#312619" fill="#695137" points="1461.14994 387.560628 1464.26799 381.114084 1467.55359 292.268043 1469.58697 381.114084 1473.71573 387.5"/>
    <polygon id="Path-23" stroke="#1C160E" fill="#4F3D2A" points="1496.1139 387.530361 1499.3665 382.099257 1502.54099 299.881362 1505.23347 382.099257 1509.76891 387.530361"/>
    <polygon id="Path-24" stroke="#395B28" fill="#002100" points="1502.94141 290 1499.94426 298.436418 1491.99199 306.591885 1498.67692 303.902168 1497.4667 307.678495 1488.40022 316.057672 1497.4667 312.28081 1496.1139 317.946103 1484.32538 326.619731 1496.1139 322.154682 1496.1139 326.463546 1481.97272 336.656548 1496.1139 330.969733 1494.47369 336.656548 1479.65513 347.969733 1493.08171 344.597052 1491.99199 349.119657 1474 363.786412 1491.99199 359.250047 1491.99199 360.89373 1494.47369 359.250047 1497.4667 360.89373 1501.05003 357.731009 1502.94141 360.89373 1505.49132 359.250047 1508.07307 363.786412 1509.76891 359.250047 1511.2834 360.89373 1513.22266 359.250047 1529.53378 365.643272 1513.22266 349.119657 1511.2834 344.597052 1522.54872 349.119657 1509.76891 337.580435 1508.07307 330.969733 1521.81047 337.580435 1508.07307 325.269733 1507.30807 322.154682 1518.72318 326.463546 1507.30807 317.946103 1506.51311 312.28081 1517.48152 316.057672 1506.51311 307.678495 1506.51311 303.902168 1513.22266 305.721054 1506.51311 299.881362"/>
    <polygon id="Path-22" stroke="#2D4B1E" fill="#122C07" points="1471.56906 293.86314 1467.43284 287.626458 1461.14994 295.695564 1456.82559 299.472517 1462.12921 299.472517 1460.37416 303.845768 1452.97708 308.368689 1460.37416 307.517772 1459.43738 310.789692 1448.95743 318.508143 1459.43738 315.345378 1458.19514 318.508143 1446.91392 328.302937 1457.17338 326.493813 1456.82559 330.24778 1445.14351 338.841315 1456.28818 336.56107 1455.52268 339.914335 1441.15964 351.747592 1455.52268 348 1454.29624 351.747592 1438.45006 365.673539 1452.97708 361.042092 1455.52268 362.528067 1459.43738 359 1461.14994 362.528067 1462.12921 361.042092 1466.62396 362.528067 1469.84337 359.280314 1471.56906 362.528067 1475.89461 359.280314 1478.10568 362.528067 1479.85164 361.042092 1482.8057 362.528067 1482.8057 359.280314 1498.15323 365.673539 1479.85164 349.713023 1478.89041 346.24778 1490.58262 349.713023 1477.0556 338.841315 1475.89461 334.909921 1489.12587 338.841315 1475.89461 328.302937 1475.89461 325.3 1489.12587 328.302937 1474.69366 318.508143 1473.71573 314.24778 1485.85458 318.508143 1473.71573 310.789692 1472.80757 306.622152 1482.8057 308.368689 1472.80757 302.102192 1471.56906 299.472517 1478.89041 302.102192"/>
    <polygon id="Path-19" stroke="#1C160E" fill="#4F3D2A" points="1576.37256 387.560628 1578.95198 382.959233 1580.77315 306.622152 1584.54942 382.959233 1588.43544 387.560628"/>
    <path d="M1580.71783,296.945065 L1578.59591,301.532692 L1573.65836,308.504796 L1577.96763,307.31629 L1577.18809,310.789692 L1570.69741,316.371245 L1577.18809,315.282402 L1575.70762,318.803139 L1568.43411,324.320234 L1575.70762,323.02416 L1573.65836,325.3 L1565.62639,330.5 L1574.80515,328.620723 L1573.65836,332.547142 L1562.51353,339.782237 L1574.80515,336.988565 L1573.65836,340.411395 L1558.02337,350.059944 L1574.80515,347.09139 L1573.65836,350.059944 L1553.75625,362.310301 L1563.32752,360.424145 L1565.04333,362.310301 L1568.43411,359.280314 L1569.80789,362.310301 L1572.33155,360.424145 L1573.65836,362.310301 L1577.18809,358.547208 L1578.59591,362.310301 L1580.11194,361.015983 C1582.868,362.357718 1584.24603,363.028586 1584.24603,363.028586 L1586.16819,359.967533 L1588.43544,362.310301 L1589.34647,361.015983 L1592.94667,362.310301 L1594.04562,359.280314 L1607.06255,363.816679 L1589.34647,349.128282 L1587.61135,345.717746 L1603.41537,351.181277 L1586.95672,338.698663 L1586.16819,335.349594 L1596.99295,339.782237 L1585.11667,328.620723 L1592.94667,330.380872 L1586.16819,323.02416 L1592.01984,323.616877 L1584.24603,318.014606 L1584.24603,315.282402 L1589.34647,316.371245 L1584.24603,309.942683 L1583.55716,306.622152 L1589.96246,308.504796 L1582.404,301.532692 L1580.71783,296.945065 Z" id="Path-20" stroke="#395B28" fill="#002100"/>
    <polygon id="Path-21" stroke="#312619" fill="#695137" points="1607.14994 387.560628 1610.26799 381.114084 1613.55359 292.268043 1615.58697 381.114084 1619.71573 387.5"/>
    <polygon id="Path-23" stroke="#1C160E" fill="#4F3D2A" points="1637.1139 387.530361 1640.3665 382.099257 1643.54099 299.881362 1646.23347 382.099257 1650.76891 387.530361"/>
    <polygon id="Path-24" stroke="#395B28" fill="#002100" points="1643.94141 290 1640.94426 298.436418 1632.99199 306.591885 1639.67692 303.902168 1638.4667 307.678495 1629.40022 316.057672 1638.4667 312.28081 1637.1139 317.946103 1625.32538 326.619731 1637.1139 322.154682 1637.1139 326.463546 1622.97272 336.656548 1637.1139 330.969733 1635.47369 336.656548 1620.65513 347.969733 1634.08171 344.597052 1632.99199 349.119657 1615 363.786412 1632.99199 359.250047 1632.99199 360.89373 1635.47369 359.250047 1638.4667 360.89373 1642.05003 357.731009 1643.94141 360.89373 1646.49132 359.250047 1649.07307 363.786412 1650.76891 359.250047 1652.2834 360.89373 1654.22266 359.250047 1670.53378 365.643272 1654.22266 349.119657 1652.2834 344.597052 1663.54872 349.119657 1650.76891 337.580435 1649.07307 330.969733 1662.81047 337.580435 1649.07307 325.269733 1648.30807 322.154682 1659.72318 326.463546 1648.30807 317.946103 1647.51311 312.28081 1658.48152 316.057672 1647.51311 307.678495 1647.51311 303.902168 1654.22266 305.721054 1647.51311 299.881362"/>
    <polygon id="Path-22" stroke="#2D4B1E" fill="#002100" points="1617.56906 293.86314 1613.43284 287.626458 1607.14994 295.695564 1602.82559 299.472517 1608.12921 299.472517 1606.37416 303.845768 1598.97708 308.368689 1606.37416 307.517772 1605.43738 310.789692 1594.95743 318.508143 1605.43738 315.345378 1604.19514 318.508143 1592.91392 328.302937 1603.17338 326.493813 1602.82559 330.24778 1591.14351 338.841315 1602.28818 336.56107 1601.52268 339.914335 1587.15964 351.747592 1601.52268 348 1600.29624 351.747592 1584.45006 365.673539 1598.97708 361.042092 1601.52268 362.528067 1605.43738 359 1607.14994 362.528067 1608.12921 361.042092 1612.62396 362.528067 1615.84337 359.280314 1617.56906 362.528067 1621.89461 359.280314 1624.10568 362.528067 1625.85164 361.042092 1628.8057 362.528067 1628.8057 359.280314 1644.15323 365.673539 1625.85164 349.713023 1624.89041 346.24778 1636.58262 349.713023 1623.0556 338.841315 1621.89461 334.909921 1635.12587 338.841315 1621.89461 328.302937 1621.89461 325.3 1635.12587 328.302937 1620.69366 318.508143 1619.71573 314.24778 1631.85458 318.508143 1619.71573 310.789692 1618.80757 306.622152 1628.8057 308.368689 1618.80757 302.102192 1617.56906 299.472517 1624.89041 302.102192"/>
    <polygon id="Path-56" stroke="#EEEEEE" fill="#FFFFFF" points="1614.036 284.59 1607.666 288.879 1606 294.341 1610.018 296.64 1614.036 296.64 1620.319 299.313 1623.394 299.313 1623.394 296.64 1621.272 288.832"/>
    <polygon id="Path-19" stroke="#1C160E" fill="#4F3D2A" points="1641.37256 387.560628 1643.95198 382.959233 1645.77315 306.622152 1649.54942 382.959233 1653.43544 387.560628"/>
    <path d="M1645.71783,296.945065 L1643.59591,301.532692 L1638.65836,308.504796 L1642.96763,307.31629 L1642.18809,310.789692 L1635.69741,316.371245 L1642.18809,315.282402 L1640.70762,318.803139 L1633.43411,324.320234 L1640.70762,323.02416 L1638.65836,325.3 L1630.62639,330.5 L1639.80515,328.620723 L1638.65836,332.547142 L1627.51353,339.782237 L1639.80515,336.988565 L1638.65836,340.411395 L1623.02337,350.059944 L1639.80515,347.09139 L1638.65836,350.059944 L1618.75625,362.310301 L1628.32752,360.424145 L1630.04333,362.310301 L1633.43411,359.280314 L1634.80789,362.310301 L1637.33155,360.424145 L1638.65836,362.310301 L1642.18809,358.547208 L1643.59591,362.310301 L1645.11194,361.015983 C1647.868,362.357718 1649.24603,363.028586 1649.24603,363.028586 L1651.16819,359.967533 L1653.43544,362.310301 L1654.34647,361.015983 L1657.94667,362.310301 L1659.04562,359.280314 L1672.06255,363.816679 L1654.34647,349.128282 L1652.61135,345.717746 L1668.41537,351.181277 L1651.95672,338.698663 L1651.16819,335.349594 L1661.99295,339.782237 L1650.11667,328.620723 L1657.94667,330.380872 L1651.16819,323.02416 L1657.01984,323.616877 L1649.24603,318.014606 L1649.24603,315.282402 L1654.34647,316.371245 L1649.24603,309.942683 L1648.55716,306.622152 L1654.96246,308.504796 L1647.404,301.532692 L1645.71783,296.945065 Z" id="Path-20" stroke="#15210E" fill="#364530"/>
    <polygon id="Path-21" stroke="#312619" fill="#695137" points="1604.14994 387.560628 1607.26799 381.114084 1610.55359 292.268043 1612.58697 381.114084 1616.71573 387.5"/>
    <polygon id="Path-22" stroke="#15210E" fill="#122C07" points="1614.56906 293.86314 1610.43284 287.626458 1604.14994 295.695564 1599.82559 299.472517 1605.12921 299.472517 1603.37416 303.845768 1595.97708 308.368689 1603.37416 307.517772 1602.43738 310.789692 1591.95743 318.508143 1602.43738 315.345378 1601.19514 318.508143 1589.91392 328.302937 1600.17338 326.493813 1599.82559 330.24778 1588.14351 338.841315 1599.28818 336.56107 1598.52268 339.914335 1584.15964 351.747592 1598.52268 348 1597.29624 351.747592 1581.45006 365.673539 1595.97708 361.042092 1598.52268 362.528067 1602.43738 359 1604.14994 362.528067 1605.12921 361.042092 1609.62396 362.528067 1612.84337 359.280314 1614.56906 362.528067 1618.89461 359.280314 1621.10568 362.528067 1622.85164 361.042092 1625.8057 362.528067 1625.8057 359.280314 1641.15323 365.673539 1622.85164 349.713023 1621.89041 346.24778 1633.58262 349.713023 1620.0556 338.841315 1618.89461 334.909921 1632.12587 338.841315 1618.89461 328.302937 1618.89461 325.3 1632.12587 328.302937 1617.69366 318.508143 1616.71573 314.24778 1628.85458 318.508143 1616.71573 310.789692 1615.80757 306.622152 1625.8057 308.368689 1615.80757 302.102192 1614.56906 299.472517 1621.89041 302.102192"/>
    <polygon id="Path-21" stroke="#312619" fill="#695137" points="1530.14994 387.560628 1533.26799 381.114084 1536.55359 292.268043 1538.58697 381.114084 1542.71573 387.5"/>
    <polygon id="Path-22" stroke="#2D4B1E" fill="#002100" points="1540.56906 293.86314 1536.43284 287.626458 1530.14994 295.695564 1525.82559 299.472517 1531.12921 299.472517 1529.37416 303.845768 1521.97708 308.368689 1529.37416 307.517772 1528.43738 310.789692 1517.95743 318.508143 1528.43738 315.345378 1527.19514 318.508143 1515.91392 328.302937 1526.17338 326.493813 1525.82559 330.24778 1514.14351 338.841315 1525.28818 336.56107 1524.52268 339.914335 1510.15964 351.747592 1524.52268 348 1523.29624 351.747592 1507.45006 365.673539 1521.97708 361.042092 1524.52268 362.528067 1528.43738 359 1530.14994 362.528067 1531.12921 361.042092 1535.62396 362.528067 1538.84337 359.280314 1540.56906 362.528067 1544.89461 359.280314 1547.10568 362.528067 1548.85164 361.042092 1551.8057 362.528067 1551.8057 359.280314 1567.15323 365.673539 1548.85164 349.713023 1547.89041 346.24778 1559.58262 349.713023 1546.0556 338.841315 1544.89461 334.909921 1558.12587 338.841315 1544.89461 328.302937 1544.89461 325.3 1558.12587 328.302937 1543.69366 318.508143 1542.71573 314.24778 1554.85458 318.508143 1542.71573 310.789692 1541.80757 306.622152 1551.8057 308.368689 1541.80757 302.102192 1540.56906 299.472517 1547.89041 302.102192"/>
    <polygon id="Path-21" stroke="#312619" fill="#695137" points="1477.14994 387.560628 1480.26799 381.114084 1483.55359 292.268043 1485.58697 381.114084 1489.71573 387.5"/>
    <polygon id="Path-19" stroke="#1C160E" fill="#4F3D2A" points="1502.37256 387.560628 1504.95198 382.959233 1506.77315 306.622152 1510.54942 382.959233 1514.43544 387.560628"/>
    <path d="M1506.71783,296.945065 L1504.59591,301.532692 L1499.65836,308.504796 L1503.96763,307.31629 L1503.18809,310.789692 L1496.69741,316.371245 L1503.18809,315.282402 L1501.70762,318.803139 L1494.43411,324.320234 L1501.70762,323.02416 L1499.65836,325.3 L1491.62639,330.5 L1500.80515,328.620723 L1499.65836,332.547142 L1488.51353,339.782237 L1500.80515,336.988565 L1499.65836,340.411395 L1484.02337,350.059944 L1500.80515,347.09139 L1499.65836,350.059944 L1479.75625,362.310301 L1489.32752,360.424145 L1491.04333,362.310301 L1494.43411,359.280314 L1495.80789,362.310301 L1498.33155,360.424145 L1499.65836,362.310301 L1503.18809,358.547208 L1504.59591,362.310301 L1506.11194,361.015983 C1508.868,362.357718 1510.24603,363.028586 1510.24603,363.028586 L1512.16819,359.967533 L1514.43544,362.310301 L1515.34647,361.015983 L1518.94667,362.310301 L1520.04562,359.280314 L1533.06255,363.816679 L1515.34647,349.128282 L1513.61135,345.717746 L1529.41537,351.181277 L1512.95672,338.698663 L1512.16819,335.349594 L1522.99295,339.782237 L1511.11667,328.620723 L1518.94667,330.380872 L1512.16819,323.02416 L1518.01984,323.616877 L1510.24603,318.014606 L1510.24603,315.282402 L1515.34647,316.371245 L1510.24603,309.942683 L1509.55716,306.622152 L1515.96246,308.504796 L1508.404,301.532692 L1506.71783,296.945065 Z" id="Path-20" stroke="#15210E" fill="#364530"/>
    <polygon id="Path-21" stroke="#312619" fill="#695137" points="1533.14994 387.560628 1536.26799 381.114084 1539.55359 292.268043 1541.58697 381.114084 1545.71573 387.5"/>
    <polygon id="Path-23" stroke="#1C160E" fill="#4F3D2A" points="1563.1139 387.530361 1566.3665 382.099257 1569.54099 299.881362 1572.23347 382.099257 1576.76891 387.530361"/>
    <polygon id="Path-24" stroke="#15210E" fill="#364530" points="1569.94141 290 1566.94426 298.436418 1558.99199 306.591885 1565.67692 303.902168 1564.4667 307.678495 1555.40022 316.057672 1564.4667 312.28081 1563.1139 317.946103 1551.32538 326.619731 1563.1139 322.154682 1563.1139 326.463546 1548.97272 336.656548 1563.1139 330.969733 1561.47369 336.656548 1546.65513 347.969733 1560.08171 344.597052 1558.99199 349.119657 1541 363.786412 1558.99199 359.250047 1558.99199 360.89373 1561.47369 359.250047 1564.4667 360.89373 1568.05003 357.731009 1569.94141 360.89373 1572.49132 359.250047 1575.07307 363.786412 1576.76891 359.250047 1578.2834 360.89373 1580.22266 359.250047 1596.53378 365.643272 1580.22266 349.119657 1578.2834 344.597052 1589.54872 349.119657 1576.76891 337.580435 1575.07307 330.969733 1588.81047 337.580435 1575.07307 325.269733 1574.30807 322.154682 1585.72318 326.463546 1574.30807 317.946103 1573.51311 312.28081 1584.48152 316.057672 1573.51311 307.678495 1573.51311 303.902168 1580.22266 305.721054 1573.51311 299.881362"/>
    <polygon id="Path-22" stroke="#15210E" fill="#122C07" points="1543.56906 293.86314 1539.43284 287.626458 1533.14994 295.695564 1528.82559 299.472517 1534.12921 299.472517 1532.37416 303.845768 1524.97708 308.368689 1532.37416 307.517772 1531.43738 310.789692 1520.95743 318.508143 1531.43738 315.345378 1530.19514 318.508143 1518.91392 328.302937 1529.17338 326.493813 1528.82559 330.24778 1517.14351 338.841315 1528.28818 336.56107 1527.52268 339.914335 1513.15964 351.747592 1527.52268 348 1526.29624 351.747592 1510.45006 365.673539 1524.97708 361.042092 1527.52268 362.528067 1531.43738 359 1533.14994 362.528067 1534.12921 361.042092 1538.62396 362.528067 1541.84337 359.280314 1543.56906 362.528067 1547.89461 359.280314 1550.10568 362.528067 1551.85164 361.042092 1554.8057 362.528067 1554.8057 359.280314 1570.15323 365.673539 1551.85164 349.713023 1550.89041 346.24778 1562.58262 349.713023 1549.0556 338.841315 1547.89461 334.909921 1561.12587 338.841315 1547.89461 328.302937 1547.89461 325.3 1561.12587 328.302937 1546.69366 318.508143 1545.71573 314.24778 1557.85458 318.508143 1545.71573 310.789692 1544.80757 306.622152 1554.8057 308.368689 1544.80757 302.102192 1543.56906 299.472517 1550.89041 302.102192"/>
    <polygon id="Path-21" stroke="#312619" fill="#695137" points="1245.14994 387.560628 1248.26799 381.114084 1251.55359 292.268043 1253.58697 381.114084 1257.71573 387.5"/>
    <polygon id="Path-23" stroke="#1C160E" fill="#4F3D2A" points="1280.1139 387.530361 1283.3665 382.099257 1286.54099 299.881362 1289.23347 382.099257 1293.76891 387.530361"/>
    <polygon id="Path-24" stroke="#15210E" fill="#364530" points="1286.94141 290 1283.94426 298.436418 1275.99199 306.591885 1282.67692 303.902168 1281.4667 307.678495 1272.40022 316.057672 1281.4667 312.28081 1280.1139 317.946103 1268.32538 326.619731 1280.1139 322.154682 1280.1139 326.463546 1265.97272 336.656548 1280.1139 330.969733 1278.47369 336.656548 1263.65513 347.969733 1277.08171 344.597052 1275.99199 349.119657 1258 363.786412 1275.99199 359.250047 1275.99199 360.89373 1278.47369 359.250047 1281.4667 360.89373 1285.05003 357.731009 1286.94141 360.89373 1289.49132 359.250047 1292.07307 363.786412 1293.76891 359.250047 1295.2834 360.89373 1297.22266 359.250047 1313.53378 365.643272 1297.22266 349.119657 1295.2834 344.597052 1306.54872 349.119657 1293.76891 337.580435 1292.07307 330.969733 1305.81047 337.580435 1292.07307 325.269733 1291.30807 322.154682 1302.72318 326.463546 1291.30807 317.946103 1290.51311 312.28081 1301.48152 316.057672 1290.51311 307.678495 1290.51311 303.902168 1297.22266 305.721054 1290.51311 299.881362"/>
    <polygon id="Path-22" stroke="#2D4B1E" fill="#122C07" points="1255.56906 293.86314 1251.43284 287.626458 1245.14994 295.695564 1240.82559 299.472517 1246.12921 299.472517 1244.37416 303.845768 1236.97708 308.368689 1244.37416 307.517772 1243.43738 310.789692 1232.95743 318.508143 1243.43738 315.345378 1242.19514 318.508143 1230.91392 328.302937 1241.17338 326.493813 1240.82559 330.24778 1229.14351 338.841315 1240.28818 336.56107 1239.52268 339.914335 1225.15964 351.747592 1239.52268 348 1238.29624 351.747592 1222.45006 365.673539 1236.97708 361.042092 1239.52268 362.528067 1243.43738 359 1245.14994 362.528067 1246.12921 361.042092 1250.62396 362.528067 1253.84337 359.280314 1255.56906 362.528067 1259.89461 359.280314 1262.10568 362.528067 1263.85164 361.042092 1266.8057 362.528067 1266.8057 359.280314 1282.15323 365.673539 1263.85164 349.713023 1262.89041 346.24778 1274.58262 349.713023 1261.0556 338.841315 1259.89461 334.909921 1273.12587 338.841315 1259.89461 328.302937 1259.89461 325.3 1273.12587 328.302937 1258.69366 318.508143 1257.71573 314.24778 1269.85458 318.508143 1257.71573 310.789692 1256.80757 306.622152 1266.8057 308.368689 1256.80757 302.102192 1255.56906 299.472517 1262.89041 302.102192"/>
    <polygon id="Path-24" stroke="#15210E" fill="#364530" points="1482.94141 290 1479.94426 298.436418 1471.99199 306.591885 1478.67692 303.902168 1477.4667 307.678495 1468.40022 316.057672 1477.4667 312.28081 1476.1139 317.946103 1464.32538 326.619731 1476.1139 322.154682 1476.1139 326.463546 1461.97272 336.656548 1476.1139 330.969733 1474.47369 336.656548 1459.65513 347.969733 1473.08171 344.597052 1471.99199 349.119657 1454 363.786412 1471.99199 359.250047 1471.99199 360.89373 1474.47369 359.250047 1477.4667 360.89373 1481.05003 357.731009 1482.94141 360.89373 1485.49132 359.250047 1488.07307 363.786412 1489.76891 359.250047 1491.2834 360.89373 1493.22266 359.250047 1509.53378 365.643272 1493.22266 349.119657 1491.2834 344.597052 1502.54872 349.119657 1489.76891 337.580435 1488.07307 330.969733 1501.81047 337.580435 1488.07307 325.269733 1487.30807 322.154682 1498.72318 326.463546 1487.30807 317.946103 1486.51311 312.28081 1497.48152 316.057672 1486.51311 307.678495 1486.51311 303.902168 1493.22266 305.721054 1486.51311 299.881362"/>
    <polygon id="Path-26" stroke="#312619" fill="#695137" points="1665.03965 387.560628 1671.46928 382.386698 1675.53378 286.430651 1675.53378 387.530361"/>
    <polygon id="Path-27" stroke="#15210E" fill="#122C07" points="1675.55345 281.884368 1670.28672 291.005621 1667.39778 293.494996 1671.47562 293.494996 1670.28672 299.881362 1665.03965 306.622152 1670.53378 304.150325 1669.12765 311.641585 1660.86559 319.474576 1669.12765 316.662464 1668.20952 321.525746 1659.71378 329.415581 1667.63362 326.649999 1667.39778 330.710308 1654.69415 339.914335 1667.63362 335.502393 1665.1238 343.705861 1654.69415 354.143659 1665.03965 352.384386 1662.26412 360.446347 1653.43544 365.673539 1669.12765 361.462608 1672.06255 363.816679 1674.08417 361.462608 1675.53378 363.816679"/>
    <polygon id="Path-28" stroke="#63845F" fill="#A0AA89" points="1057.53893 387.703066 1060.35072 382.105125 1060.35072 385.534245 1063.25661 381.203066 1063.94022 385.534245 1065.19224 382.105125 1066.09117 385.534245 1067.96921 381.203066 1069.21947 384.453066 1071.35181 380.417147 1072.64239 385.534245 1075.01929 382.105125 1075.71885 384.453066 1078.91493 381.203066 1080.25113 384.453066 1081.82436 381.203066 1084.45203 385.534245 1086.01906 381.203066 1086.01906 384.453066 1089.71533 382.105125 1089.71533 385.534245 1092.50293 382.105125 1093.84888 385.534245 1095.91832 382.105125 1095.91832 385.534245 1101.55466 382.105125 1102.22719 384.453066 1104.54783 381.203066 1106.49897 385.534245 1115.88342 385.534245 1118.06184 381.203066 1119.19513 384.453066 1121.5459 382.105125 1121.5459 385.534245 1123.3247 382.105125 1124.56343 384.060106 1125.76894 382.105125 1126.72812 384.453066 1129.12496 382.105125 1130.57326 385.534245 1132.32754 382.105125 1134.50079 384.453066 1135.84852 382.105125 1138.42878 385.534245 1139.39947 382.105125 1141.98505 385.534245 1155.03077 385.534245 1156.35058 380.417147 1157.91495 385.534245 1159.13685 383.221583 1160.19749 384.453066 1161.56958 381.203066 1162.76844 385.534245 1164.73288 382.105125 1165.54718 384.060106 1168.14605 382.105125 1170.54909 385.534245 1172.38504 382.105125 1174.13638 384.453066 1176.5886 381.203066 1177.60094 386.171335 1180.16525 383.221583 1181.085 385.534245 1188.98261 385.534245 1190.54077 382.105125 1193.72401 385.534245 1194.8068 382.105125 1196.48636 385.534245 1199.19642 381.203066 1199.19642 385.534245 1201.84624 383.221583 1202.60339 385.534245 1203.67023 382.105125 1204.91561 384.453066 1205.6515 382.105125 1206.56194 384.453066 1207.67884 382.105125 1209.69068 385.534245 1211.34056 382.105125 1211.93246 385.534245 1213 383.221583 1214.37256 385.534245 1215.72487 383.221583 1218.4094 385.534245 1223.65438 385.534245 1224.79919 382.105125 1226.43544 385.534245 1227.51369 381.203066 1229.07585 385.534245 1230.65572 382.105125 1232.83503 386.171335 1234.80212 383.221583 1235.38959 384.060106 1236.24554 382.105125 1238.13112 385.534245 1239.91302 383.221583 1241.47961 386.171335 1243.43651 380.417147 1245.06255 384.453066 1245.14994 382.105125 1247.93734 386.171335 1256.06356 386.171335 1257.71573 381.203066 1259.71641 386.171335 1260.84749 383.221583 1261.70388 384.453066 1263.02547 382.105125 1264.07237 384.453066 1265.7275 383.221583 1267.21768 386.171335 1269.41522 383.221583 1270.75895 386.171335 1272.49115 382.671329 1272.49115 385.0773 1274.92344 382.671329 1274.92344 385.534245 1275.92197 384.060106 1275.92197 385.0773 1277.89861 382.671329 1277.89861 385.0773 1279.44147 383.221583 1279.44147 385.0773 1280.58097 383.221583 1282.15323 385.534245 1291.5072 385.534245 1293.76891 382.671329 1294.16563 385.0773 1295.66851 382.105125 1296.23925 385.0773 1297.86062 381.706569 1298.68389 385.534245 1299.95003 383.546409 1301.3786 385.534245 1301.89898 382.105125 1303.29818 385.0773 1303.72302 383.221583 1305.53843 384.453066 1306.82827 382.671329 1307.50713 385.0773 1308.93916 382.105125 1310.61434 385.0773 1312.00367 381.706569 1314.20219 385.534245 1322.45938 385.534245 1324.57101 382.105125 1326.3284 384.453066 1327.5232 382.105125 1328.7923 384.453066 1330.08881 382.671329 1331.77313 384.453066 1333.01828 381.203066 1334.87886 384.453066 1336.41531 382.671329 1337.10454 384.060106 1338.41339 382.671329 1338.88543 384.060106 1340.09253 381.203066 1341.6823 385.0773 1342.79489 381.203066 1344.2718 384.060106 1345.08155 382.671329 1345.78213 383.221583 1347.04432 381.706569 1348.26677 384.453066 1350.09822 382.671329 1350.99604 384.060106 1352.21972 381.203066 1353.45896 385.0773 1364.63427 385.0773 1368.40365 378.88 1369.2451 382.671329 1370.08754 379.903153 1371.01819 382.671329 1373.78173 381.203066 1375 384.453066 1376.47628 381.203066 1377.64836 385.0773 1378.62361 382.671329 1381.21338 385.0773 1383.20947 381.706569 1383.84576 384.453066 1385.88843 381.706569 1387.16531 386.171335 1389.73062 381.706569 1389.73062 384.453066 1393.78062 382.105125 1394.38024 384.060106 1397.0298 381.203066 1397.0298 383.221583 1400.38601 378.88 1401 383.546409 1401 387.703066"/>
    <polygon id="Path-29" stroke="#63845F" fill="#A0AA89" points="1047.39884 387.649021 1049.999 382.58 1050.57517 385.663276 1052.28189 382.58 1053.8394 386.110991 1055.497 382.58 1058.39884 387.709649"/>
    <line x1="877.5" y1="319.5" x2="877.5" y2="307.5" id="Line-8" stroke="#616161" stroke-linecap="square"/>
    <circle id="Oval" fill="#616161" cx="877.5" cy="311.5" r="3.5"/>
    <polygon id="Path-30" stroke="#616161" fill="#FFDE87" points="874.5 312 880.557726 312 879.112963 319.186175 875.908571 319.186175"/>
    <line x1="1076.5" y1="319.5" x2="1076.5" y2="307.5" id="Line-8" stroke="#616161" stroke-linecap="square"/>
    <circle id="Oval" fill="#616161" cx="1076.5" cy="311.5" r="3.5"/>
    <polygon id="Path-30" stroke="#616161" fill="#FFDE87" points="1073.5 312 1079.55773 312 1078.11296 319.186175 1074.90857 319.186175"/>
    <rect id="Rectangle" stroke="#979797" fill="#FFDE87" x="91" y="119.5" width="30.5" height="31"/>
    <rect id="Rectangle" stroke="#979797" fill="#FFDE87" x="91" y="87.75" width="30.5" height="31.5"/>
    <rect id="Rectangle" stroke="#979797" fill="#FFDE87" x="91" y="341" width="30.5" height="28"/>
    <rect id="Rectangle" stroke="#565656" fill="#FFDE87" x="8" y="123.5" width="18" height="12"/>
    <rect id="Rectangle" stroke="#565656" fill="#FFDE87" x="8.5" y="176.5" width="17.75" height="13"/>
    <rect id="Rectangle" stroke="#565656" fill="#FFDE87" x="26.25" y="136.25" width="18" height="12"/>
    <rect id="Rectangle" stroke="#565656" fill="#FFDE87" x="45.25" y="136.25" width="18" height="12"/>
    <polygon id="Path-8" stroke="#EEEEEE" fill="#FFFFFF" points="-7.12450932e-15 220.441119 74 220.441119 75.8546924 223.456803 75.8546924 235.115745 74.5 237.441119 72.9344634 235.115745 71.7546125 228.941119 0 228.941119"/>
    <polygon id="Path-16" stroke="#EEEEEE" fill="#FFFFFF" points="27.5 76.3690114 24.0969244 82.0385223 24.0969244 103.64474 25.7984622 106.60661 29 107.881886 36.3172868 92.1254488 38.3087445 89.978045 41.1138718 89.978045 43.0564269 92.1254488 44.5 92.1254488 45.5098763 89.978045 116.406293 89.978045 118.652869 92.1254488 118.652869 103.64474 119.442382 107.881886 122 110.369011 124.142929 107.881886 124.142929 79.9353643 122 76.3690114"/>
    <polygon id="Path-18" stroke="#EEEEEE" fill="#FFFFFF" points="8.5 120.043036 6.58575548 122.179041 6.58575548 133.364234 7.38807971 135.873901 8.5 134.778468 11.534844 127.958468 13.694841 125.590085 68 125.590085 72.5636619 127.958468 75.5 131.730522 80.9200022 149.5139 82.5 151.043036 84.4339971 149.5139 84.4339971 127.958468 83.2983725 122.179041 80.7126313 120.043036"/>
    <polygon id="Path-14" stroke="#EEEEEE" fill="#FFFFFF" points="187.991648 145.451988 184.612274 151.357531 182 169.874708 184.995824 174.451988 190.228346 173.827813 197.236467 165.281062 201 151.357531 197.236467 145.451988"/>
    <polygon id="Path-14" stroke="#EEEEEE" fill="#FFFFFF" transform="translate(222.500000, 160.000000) scale(-1, 1) translate(-222.500000, -160.000000) " points="218.991648 145 215.612274 151.109183 213 170.264883 215.995824 175 221.228346 174.354302 228.236467 165.512835 232 151.109183 228.236467 145"/>
    <polygon id="Path-32" stroke="#EEEEEE" fill="#FFFFFF" points="86.7765278 388.98 131.776528 387.435587 128.158214 382.707794 121.365708 382.707794 116.459605 377.98 101.974684 377.98 95.7923582 382.707794 90.9001135 384.283725"/>
    <polygon id="Path-34" stroke="#EEEEEE" fill="#FFFFFF" points="341.598422 295 320.840443 307.06661 306.769574 307.06661 304.130647 309.558284 302.806922 314.541631 302.806922 323.262489 304.130647 327 306.769574 327 308.844235 323.262489 311.790014 319.256272 341.598422 302.083262 349.026804 305.820773 351.806922 304.574936 351.806922 302.083262 349.026804 299.836459"/>
    <polygon id="Path-35" stroke="#EEEEEE" fill="#FFFFFF" points="470 286 467 287.571429 465.791327 292.285714 465.791327 299.263018 467 301.806783 470 301.806783 471 299.263018 484.408349 299.263018 485.744837 301.806783 485.744837 306.428571 488.367037 308 489.989239 303.779857 489.989239 290.714286 488.367037 286"/>
    <polygon id="Path-36" stroke="#EEEEEE" fill="#FFFFFF" points="545.999687 302.557863 544 303.883889 544 306.535941 564.583818 316.557863 566.725624 316.557863 568 314.492096 568 306.535941 566.725624 303.883889 563.309142 302.557863"/>
    <polygon id="Path-37" stroke="#EEEEEE" fill="#FFFFFF" points="565.234479 277.442881 555.234479 277.442881 553.262766 278.609228 552 281.98554 552 287.350243 552 290.895253 552 295.169067 553.262766 298.25839 555.234479 299.442881 556.813428 296.593672 557.696399 293.744463 560.234479 290.895253 562.109644 289.470649 562.898873 287.350243 565.234479 284.484533 568.234479 284.484533 570.157887 284.484533 571.787381 281.98554 571.787381 278.609228 569.108629 277.442881"/>
    <polygon id="Path-62" stroke="#EEEEEE" fill="#FFFFFF" points="299.334506 387.5 399.449231 387.5 399.449231 385.79281 401.542248 384.654684 401.542248 382.378431 403.635264 381.240305 403.635264 379.006741 405.728281 377.825926 405.728281 375.549673 408.867805 374.256874 411.334506 373.273421 411.334506 370.254206 408.867805 368.5 401.542248 368.5 400.49574 370.254206 399.449231 372.135294 399.449231 373.842484 398.402723 374.411547 397.356215 376.118737 396.309707 377.825926 396.309707 380.102179 395.263198 380.102179 393.693436 382.26007 393.693436 383.516558 392.699369 384.654684 302.123967 384.654684 300.109253 384.654684 299.334506 385.79281"/>
    <polygon id="Path-38" stroke="#EEEEEE" fill="#FFFFFF" points="630.306376 261 620.579855 261 618.70668 262.893106 618.70668 275.5 617.580056 277.442881 615.211817 278.352217 608.023004 278.352217 606.551572 280 606.551572 282 608.023004 283.5 611.888014 283.5 613.463993 284.442881 614.576514 287 615.211817 290 616.404223 291.442881 618.70668 291 620.579855 290 622.028246 288 623.117349 285.389483 623.117349 267.580004 624.145555 266.283249 625.702757 265.500452 632.288976 265.500452 633.551572 264.105425 633.551572 262"/>
    <polygon id="Path-39" stroke="#EEEEEE" fill="#FFFFFF" points="654.5 243.448281 653 244.573983 652 247.001693 652 256.64156 653 258.448281 654.798678 258.448281 656.43027 256.64156 665 248.890345 666.503611 248.145456 670 248.145456 671.429181 247.001693 671.429181 244.573983 670 243.448281"/>
    <polygon id="Path-39" stroke="#EEEEEE" fill="#FFFFFF" transform="translate(697.214591, 250.500000) scale(-1, 1) translate(-697.214591, -250.500000) " points="690 243 688.5 244.125702 687.5 246.553412 687.5 256.193279 688.5 258 690.298678 258 691.93027 256.193279 700.5 248.442064 702.003611 247.697175 705.5 247.697175 706.929181 246.553412 706.929181 244.125702 705.5 243"/>
    <polygon id="Path-40" stroke="#EEEEEE" fill="#FFFFFF" points="740.681831 280.145807 741.300895 277.359987 743 276.088335 756.327092 276.088335 757.929042 277.359987 758.659662 280.145807 759.175796 281.94724 765.493456 281.94724 765.493456 280.145807 766.19998 277.359987 767.981907 276.088335 779.978531 276.088335 781.981191 277.359987 782.412245 279.017787 782.830507 280.907367 783.971357 281.94724 788.295282 281.94724 789.655377 280.907367 790.048651 278.93901 791 276.717002 804.242786 276.717002 805.597824 277.359987 806.5 279.017787 806.5 282.6296 805.597824 284.203412 803.825714 284.203412 803.004957 282.6296 802.055389 281.94724 793.496784 281.94724 792.354447 283.208152 791 284.203412 781 284.203412 779.978531 283.208152 779.208346 281.94724 768.995732 281.94724 767.981907 282.6296 767.981907 284.203412 757 284.203412 755.903178 283.208152 755.415007 281.94724 745.575735 281.94724 744.111818 282.6296 743.387148 284.203412 741.874443 285.088335 739.097731 285.088335 737.773036 284.203412 737.773036 281.94724 739.097731 280.588335"/>
    <polygon id="Path-47" stroke="#EEEEEE" fill="#FFFFFF" points="831.676453 309.434905 828.769464 309.434905 826.391491 310.578907 821.731876 314.293338 821.146157 321.641123 821.146157 315.538014 820.369265 315.538014 819.634613 316.486975 818.5 317.910422 818.055194 319.069035 818.055194 323.314738 817.400263 324.242706 816.978926 323.314738 816.978926 319.069035 816.094755 318.329863 814.5 317.910422 813.5 318.329863 786.489982 339.247738 785.757518 338.038088 785.757518 336.627037 786.489982 335.518658 829 302.856599 871.5 336.627037 872.463755 338.038088 872.835762 339.763722 872.835762 342.703428 872.463755 343.856599 871.5 343.856599 870.963827 342.703428 870.507088 341.359696 869.618275 340.029038 869.618275 338.038088"/>
    <path d="M802.728602,301.729624 C800.909534,296.631066 800,292.56919 800,289.543993 C800,286.518797 800.909534,282.456921 802.728602,277.358363" id="Path-33" stroke-opacity="0.599513767" stroke="#000000"/>
    <path d="M803.728602,301.729624 C801.909534,296.631066 801,292.56919 801,289.543993 C801,286.518797 801.909534,282.456921 803.728602,277.358363" id="Path-33" stroke-opacity="0.599513767" stroke="#000000"/>
    <path d="M804.728602,301.729624 C802.909534,296.631066 802,292.56919 802,289.543993 C802,286.518797 802.909534,282.456921 804.728602,277.358363" id="Path-33" stroke-opacity="0.599513767" stroke="#000000"/>
    <path d="M805.728602,301.729624 C803.909534,296.631066 803,292.56919 803,289.543993 C803,286.518797 803.909534,282.456921 805.728602,277.358363" id="Path-33" stroke-opacity="0.599513767" stroke="#000000"/>
    <path d="M1000.6786,300.729624 C998.859534,295.631066 997.95,291.56919 997.95,288.543993 C997.95,285.518797 998.859534,281.456921 1000.6786,276.358363" id="Path-33" stroke-opacity="0.6" stroke="#000000" transform="translate(999.314301, 288.543993) scale(-1, 1) translate(-999.314301, -288.543993) "/>
    <path d="M806.728602,301.729624 C804.909534,296.631066 804,292.56919 804,289.543993 C804,286.518797 804.909534,282.456921 806.728602,277.358363" id="Path-33" stroke-opacity="0.599513767" stroke="#000000"/>
    <path d="M807.728602,301.729624 C805.909534,296.631066 805,292.56919 805,289.543993 C805,286.518797 805.909534,282.456921 807.728602,277.358363" id="Path-33" stroke-opacity="0.599513767" stroke="#000000"/>
    <path d="M1001.6786,300.729624 C999.859534,295.631066 998.95,291.56919 998.95,288.543993 C998.95,285.518797 999.859534,281.456921 1001.6786,276.358363" id="Path-33" stroke-opacity="0.6" stroke="#000000" transform="translate(1000.314301, 288.543993) scale(-1, 1) translate(-1000.314301, -288.543993) "/>
    <path d="M808.728602,301.729624 C806.909534,296.631066 806,292.56919 806,289.543993 C806,286.518797 806.909534,282.456921 808.728602,277.358363" id="Path-33" stroke-opacity="0.599513767" stroke="#000000"/>
    <path d="M809.728602,301.729624 C807.909534,296.631066 807,292.56919 807,289.543993 C807,286.518797 807.909534,282.456921 809.728602,277.358363" id="Path-33" stroke-opacity="0.6" stroke="#000000"/>
    <path d="M1002.6786,300.729624 C1000.85953,295.631066 999.95,291.56919 999.95,288.543993 C999.95,285.518797 1000.85953,281.456921 1002.6786,276.358363" id="Path-33" stroke-opacity="0.6" stroke="#000000" transform="translate(1001.314301, 288.543993) scale(-1, 1) translate(-1001.314301, -288.543993) "/>
    <polygon id="Path-48" stroke="#EEEEEE" fill="#FFFFFF" points="811.466621 300.678967 801.540731 300.678967 799.86212 301.621159 799.86212 316.820391 800.5 318.678967 801.540731 318.678967 802.798701 316.820391 803.491133 313.688686 804.5 310.886044 805.66437 309.678967 806.5 310.886044 808 309.678967 808 307.762204 809.5 306.57503 811.466621 306.57503 813.5 305.435209 813.5 301.621159"/>
    <polygon id="Path-49" stroke="#EEEEEE" fill="#FFFFFF" points="796.219869 379.118106 792.059582 379.118106 791.283501 383.610629 792.059582 387.118106 795.5 387.118106 797.252661 385.108597 799.86212 385.108597 801.827214 386.177026 804.5 385.108597 806.68106 385.108597 808.690068 386.177026 810.429981 385.108597 812.5 385.108597 814.5 386.177026 817.640244 385.108597 819.63733 385.108597 822.341947 386.177026 824.957969 386.177026 827.237658 385.108597 828.769464 385.108597 829.5 386.177026 831.927056 387.118106 833.5 387.118106 834.257605 385.108597 833.5 382.05175 830.345466 380.144335 827.237658 379.118106"/>
    <path d="M1003.6786,300.729624 C1001.85953,295.631066 1000.95,291.56919 1000.95,288.543993 C1000.95,285.518797 1001.85953,281.456921 1003.6786,276.358363" id="Path-33" stroke-opacity="0.6" stroke="#000000" transform="translate(1002.314301, 288.543993) scale(-1, 1) translate(-1002.314301, -288.543993) "/>
    <polygon id="Path-50" stroke="#EEEEEE" fill="#FFFFFF" points="855.702179 379.407848 853.771539 381.180605 853.166138 384.322152 854.434158 386.247329 857.076226 385.359131 858.195972 385.359131 859.937936 386.247329 862.038927 384.877891 863.526456 385.359131 865.650282 386.247329 868.141204 385.359131 870.818341 386.247329 872.835762 386.247329 875.761631 385.359131 882.6 385.359131 884.5 386.247329 887.064504 385.359131 888.697633 386.247329 891.354813 385.359131 893.65624 385.359131 896.9437 386.247329 898.458844 386.247329 899.414114 385.359131 901.426786 386.247329 903.532975 385.359131 903.532975 381.915924 901.426786 378.247329 899.414114 378.247329 897.711936 379.407848"/>
    <line x1="877.5" y1="319.5" x2="877.5" y2="387.25" id="Line-7" stroke="#616161" stroke-width="1.5" stroke-linecap="square"/>
    <path d="M1004.6786,300.729624 C1002.85953,295.631066 1001.95,291.56919 1001.95,288.543993 C1001.95,285.518797 1002.85953,281.456921 1004.6786,276.358363" id="Path-33" stroke-opacity="0.6" stroke="#000000" transform="translate(1003.314301, 288.543993) scale(-1, 1) translate(-1003.314301, -288.543993) "/>
    <polygon id="Path-54" stroke="#EEEEEE" fill="#FFFFFF" points="1050.44062 379.20135 1048 381.996214 1047.39884 384.198706 1048.91973 386.298103 1050.44062 384.198706 1052.89884 386.298103 1063.06543 386.298103 1066.028 384.198706 1068.50469 386.298103 1071.14823 385.246719 1073.5 386.298103 1077.13973 385.246719 1080.77947 386.298103 1086.01906 385.514484 1089 386.298103 1095.38311 386.298103 1100.9176 385.514484 1105.2463 387.460074 1118.50511 387.460074 1121.5459 386.739236 1126.48125 387.460074 1132.92238 387.460074 1136.94842 386.739236 1142.79085 387.460074 1156.22297 387.460074 1159.92221 386.298103 1166.34638 387.460074 1169.30319 386.298103 1173.54009 386.298103 1176.38232 387.460074 1191.75625 387.460074 1194.67376 386.739236 1197.26295 386.298103 1200.50196 386.739236 1203.02484 386.298103 1206.56194 385.514484 1208.26859 386.298103 1211.93246 386.739236 1215.72131 386.298103 1216.90173 387.460074 1229.26946 387.460074 1231.32442 386.298103 1234.98569 386.739236 1237.40959 386.298103 1240.28504 387.460074 1245.06255 387.460074 1258 387.460074 1261.26005 386.739236 1264.68944 387.460074 1269.14466 386.739236 1273.19511 387.460074 1277.17233 386.298103 1293.76891 386.739236 1296.4957 386.298103 1300.87363 387.460074 1305.64887 387.460074 1310.03833 386.298103 1324.94271 387.460074 1328.14331 386.298103 1334.60545 386.298103 1340.37195 386.739236 1344 387.460074 1348.51014 386.739236 1367.69655 387.460074 1370.84388 385.514484 1374.64482 386.298103 1378.12981 385.514484 1383.84576 385.514484 1386.8538 386.298103 1392.17756 385.514484 1394.96487 386.298103 1397.91016 385.514484 1401 385.514484 1402.61082 383.392687 1402.61082 377.725818 1401 376.460074 1397.91016 377.725818 1396.27208 379.20135 1392.17756 380.914756 1390.49929 379.20135 1387.73725 380.914756 1385.64219 379.20135 1382.40536 379.20135 1380.88525 380.914756 1378.12981 379.20135 1374.64482 379.20135 1370.84388 377.725818 1366.49511 377.725818 1364.28818 383.392687 1353.99594 383.392687 1352.58906 379.20135 1349.54818 380.914756 1347.0002 379.20135 1338.88543 379.20135 1336.47541 380.914756 1333.17891 379.20135 1323.74029 379.20135 1321.73202 381.996214 1314.86036 381.996214 1312.30289 379.20135 1305.64887 379.20135 1304.11114 380.914756 1301.99981 379.20135 1295.22375 379.20135 1290.73801 383.392687 1283.3665 382.848104 1281.09396 380.914756 1275.52883 380.914756 1273.19511 379.20135 1267.68286 381.960074 1263.17001 379.20135 1261.26005 380.914756 1258 379.20135 1254.85147 382.848104 1247.19331 383.392687 1245.06255 379.20135 1241.8404 379.20135 1240.28504 380.914756 1237.40959 381.996214 1236.07661 379.20135 1232.68452 381.960074 1231.32442 379.20135 1225.00483 379.20135 1222.45006 381.996214 1218.4094 381.996214 1214.37256 380.914756 1209.97176 379.20135 1201.82069 380.914756 1200.50196 379.20135 1197.26295 379.20135 1196.08606 380.914756 1194.67376 379.20135 1192.88177 379.20135 1192.88177 380.914756 1191.75625 379.20135 1188.38112 381.602873 1181.32029 382.848104 1179.49929 381.602873 1177.39392 379.20135 1166.34638 379.20135 1163.47628 380.914756 1162.46679 379.20135 1159.92221 380.914756 1156.22297 377.725818 1153.47905 380.914756 1149.66929 383.392687 1142.79085 383.392687 1140.44764 380.914756 1131.2718 380.914756 1129.46722 379.20135 1121.5459 379.20135 1118.50511 377.725818 1115.0547 382.848104 1107.27247 383.392687 1105.2463 379.20135 1102.94271 379.20135 1099.32345 381.602873 1097.3267 379.20135 1090.63878 379.20135 1087.78841 377.725818 1085.13264 377.725818 1083.43693 379.20135 1073.5 379.20135 1073 377.725818 1068.50469 377.725818 1067 379.20135 1060.02243 379.20135 1058.39884 380.914756 1055.83638 379.20135"/>
    <line x1="1076.5" y1="319.5" x2="1076.5" y2="387.25" id="Line-7" stroke="#616161" stroke-width="1.5" stroke-linecap="square"/>
    <path d="M1005.6786,300.729624 C1003.85953,295.631066 1002.95,291.56919 1002.95,288.543993 C1002.95,285.518797 1003.85953,281.456921 1005.6786,276.358363" id="Path-33" stroke-opacity="0.6" stroke="#000000" transform="translate(1004.314301, 288.543993) scale(-1, 1) translate(-1004.314301, -288.543993) "/>
    <polygon id="Path-46" stroke="#EEEEEE" fill="#FFFFFF" points="926.266009 304.223495 883.254064 335 882.6 337.689615 883.254064 339 926.496545 307.209234 969.904876 339.623712 970.504687 338.532493 970.254409 337.226806"/>
    <path d="M1006.6786,300.729624 C1004.85953,295.631066 1003.95,291.56919 1003.95,288.543993 C1003.95,285.518797 1004.85953,281.456921 1006.6786,276.358363" id="Path-33" stroke-opacity="0.6" stroke="#000000" transform="translate(1005.314301, 288.543993) scale(-1, 1) translate(-1005.314301, -288.543993) "/>
    <polygon id="Path-48" stroke="#EEEEEE" fill="#FFFFFF" transform="translate(1001.681060, 310.178967) scale(-1, 1) translate(-1001.681060, -310.178967) " points="1006.46662 300.678967 996.540731 300.678967 994.86212 301.673503 994.86212 317.717137 995.5 319.678967 996.540731 319.678967 997.798701 317.717137 998.491133 314.411448 999.5 311.453104 1000.66437 310.178967 1001.5 311.453104 1003 310.178967 1003 308.155717 1004.5 306.90259 1006.46662 306.90259 1008.5 305.699445 1008.5 301.673503"/>
    <polygon id="Path-46" stroke="#EEEEEE" fill="#FFFFFF" points="1024.26601 304.223495 981.254064 335 980.6 337.689615 981.254064 339 1024.49655 307.209234 1067.90488 339.623712 1068.50469 338.532493 1068.25441 337.226806"/>
    <polygon id="Path-51" stroke="#EEEEEE" fill="#FFFFFF" points="876.202146 379.886451 874.5 385.014138 872.835762 387.5 884.5 387.5 882.028107 383.855438 879.562615 378.5"/>
    <polygon id="Path-52" stroke="#EEEEEE" fill="#FFFFFF" points="922.66915 380.688354 920.391102 385.13922 921.5 386.88 922.66915 386.88 924.507092 385.13922 926.269464 385.13922 927 386.88 929.1969 386.88 929.915097 385.13922 932.5 385.13922 934.145932 386.182218 936.540876 386.182218 938.360771 385.13922 940.613389 385.13922 943.128921 386.182218 945.652657 386.182218 948 385.13922 951.5 385.13922 952.775965 386.182218 956.195497 386.182218 957.412862 385.13922 960.94642 385.13922 963.321676 386.182218 966.66779 386.182218 967.97416 385.13922 971.627486 385.13922 974.294368 386.182218 976.736071 386.182218 977.953436 385.13922 980.6 385.13922 982.5 386.182218 985.258036 385.13922 987.152991 386.182218 989.98558 386.182218 994.86212 386.182218 998.144551 385.13922 1001.00585 386.182218 1004.34376 386.88 1006.40319 386.182218 1009 385.13922 1012.25786 385.13922 1014 386.011409 1017.58384 386.011409 1019 385.13922 1022.19694 386.011409 1025.72927 386.182218 1027.591 386.88 1029 386.011409 1030.05608 384.02204 1029 381.351051 1026.85066 380.042942 1024.26946 380.688354 1022.19694 380.688354 1019.74458 380.042942 1017.58384 380.042942 1011.33295 380.042942 1009 381.351051 994.86212 381.351051 991.762408 380.042942 987.152991 380.042942 984.605877 380.688354 982.5 380.042942 965.631307 380.042942 964.281049 378.88 962.542776 378.88 960.94642 380.042942 952.775965 380.042942 951.5 378.88 949.49999 378.88 946.5 380.042942 924.507092 380.042942"/>
    <polygon id="Path-55" stroke="#EEEEEE" fill="#FFFFFF" points="1216.648 296.88 1213 301.088 1213 304.039 1218.695 304.039 1224.396 307 1228 307 1228 304.039 1224.396 301.088"/>
    <polygon id="Path-56" stroke="#EEEEEE" fill="#FFFFFF" points="1249.745 282.909 1242.64 287.99 1242.457 294.894 1247.415 296.139 1251.433 296.139 1257.716 298.945 1260.791 298.945 1260.791 296.139 1257.005 287.236"/>
    <polygon id="Path-57" stroke="#EEEEEE" fill="#FFFFFF" points="1288.754 290.457 1282.061 295.33 1277 301.425 1277 304 1279.965 304 1283.927 301.425 1286.983 299.153 1292.131 299.153 1294 296.621 1294 293.672 1292.131 293.672"/>
    <polygon id="Path-58" stroke="#EEEEEE" fill="#FFFFFF" points="1149.92321 318.923604 1144.55721 318.923604 1143.1755 324.185096 1143.1755 333.067497 1144.55721 336.289377 1146.54936 336.289377 1147.37404 339.914411 1149.92321 345.923604 1151.77908 345.534025 1151.77908 341.760461 1151.10442 338.197116"/>
    <polygon id="Path-59" stroke="#EEEEEE" fill="#FFFFFF" points="1322 342.634062 1334.51175 332 1337.65029 332 1339.99128 334.414467 1341 337.317031 1338.87325 342.634062 1336.72228 343.87221 1334.51175 342.634062 1333.60711 340.168957 1331.5 340.168957 1326.61941 345 1323.77131 345"/>
    <polygon id="Path-60" stroke="#EEEEEE" fill="#FFFFFF" points="1399.70846 341.899139 1397.99698 343.049656 1396.85592 347.072355 1396.85592 353.108803 1398.28219 359.574466 1399.70846 360.899139 1402.7362 359.574466 1403.85592 356.59121 1403.85592 349.700733"/>
    <polygon id="Path-55" stroke="#EEEEEE" fill="#FFFFFF" points="1567.286 292.462 1565 296.402 1565 298.697 1569.177 298.697 1573.357 301 1576 301 1576 298.697 1573.552 294"/>
    <polygon id="Path-55" stroke="#EEEEEE" fill="#FFFFFF" transform="translate(1433.000000, 296.500000) scale(-1, 1) translate(-1433.000000, -296.500000) " points="1431.25 295.221 1427 299.417 1427 302.204 1431.556 302.204 1436.117 305 1439 305 1439 302.204 1436.18 296.834"/>
    <polygon id="Path-55" stroke="#EEEEEE" fill="#FFFFFF" transform="translate(1506.000000, 297.000000) scale(-1, 1) translate(-1506.000000, -297.000000) " points="1504.905 296.413 1500 300.088 1500 303.039 1504.556 303.039 1509.117 306 1512 306 1512 303.039 1509.117 298.821"/>
    <polygon id="Path-56" stroke="#EEEEEE" fill="#FFFFFF" points="1466.3 283.041 1459.913 284.947 1458.394 293.341 1462.552 295.64 1466.71 295.64 1473.212 298.313 1476.394 298.313 1476.394 295.64 1473.99 287.106"/>
    <polygon id="Path-56" stroke="#EEEEEE" fill="#FFFFFF" points="1540.138 281.26 1534.666 284.927 1533 292.843 1537.018 295.372 1541.036 295.372 1547.319 298.313 1550.394 298.313 1550.394 295.372 1548.286 286.192"/>
    <polygon id="Path-57" stroke="#EEEEEE" fill="#FFFFFF" points="1482.712 291.341 1478.119 293.575 1473 301.595 1473 303.972 1475.885 303.972 1479.739 301.595 1482.713 299.498 1487.722 299.498 1489.54 297.161 1489.54 294.439 1487.203 292.448"/>
    <polygon id="Path-61" stroke="#EEEEEE" fill="#FFFFFF" points="1676 98.3642666 1657.47006 112.860985 1644.11129 130.480881 1624.90676 152.125985 1593.99756 177.186498 1575.19453 193.377803 1558.7165 204.864437 1554 214.085591 1555.36632 221.167025 1558.7165 223.73288 1566.16477 223.73288 1575.19453 221.167025 1582.61392 218.588504 1591.29555 218.588504 1593.99756 221.167025 1599.95617 225.987503 1604.19683 228.364267 1612.36586 228.364267 1617.3789 223.73288 1620.3687 221.167025 1628.40478 217.430431 1634.93633 215.432756 1642.22802 215.432756 1651.62866 214.085591 1654.15048 210.99589 1664.10483 204.864437 1669.73367 206.683878 1675.51018 206.683878"/>
    <polygon id="Path-31" stroke="#1B150E" fill="#513F2B" points="595.022608 385.754499 595.022608 373.950916 592.605938 370.5 595.022608 372.142258 595.022608 363 593.814273 361.033742 595.022608 361.033742 596.096713 346.395373 596.096713 361.033742 597.191726 361.033742 596.096713 363 596.096713 372.142258 598.622432 370.5 596.096713 373.950916 596.096713 385.754499"/>
    <polygon id="Path-44" stroke="#EEEEEE" fill="#FFFFFF" points="592.872488 377.438063 589.572751 382.685579 586.258441 384.434751 581 385.754499 606 385.754499 602.809694 382.685579 600.812676 379.187235 598.22317 375.754499"/>
    <polygon id="Path-7" stroke="#1B150E" fill="#513F2B" points="574.440625 363.985191 574.440625 350.419643 569.923408 347.533799 570.499563 346.490599 574.440625 348.550378 575.008247 341.77 576.143737 342.054885 576.143737 349.858512 582 347.533799 582.283501 348.550378 576.103455 351.39073 576.143737 363.985191"/>
    <polygon id="Path-41" stroke="#EEEEEE" fill="#FFFFFF" points="577.107547 339.921462 574.316596 338.130192 573.107547 339.921462 573.107547 347.239934 573.937245 348.130192 575.534461 348.130192 576.193758 345.789797 577.107547 344.374608"/>
    <polygon id="Path-7" stroke="#1B150E" fill="#513F2B" points="755.440625 363.985191 755.440625 350.419643 750.923408 347.533799 751.499563 346.490599 755.440625 348.550378 756.008247 341.77 757.143737 342.054885 757.143737 349.858512 763 347.533799 763.283501 348.550378 757.103455 351.39073 757.143737 363.985191"/>
    <polygon id="Path-31" stroke="#1B150E" fill="#513F2B" points="762.266669 385.754499 762.266669 373.950916 759.85 370.5 762.266669 372.142258 762.266669 363 761.058335 361.033742 762.266669 361.033742 763.340775 346.395373 763.340775 361.033742 764.435788 361.033742 763.340775 363 763.340775 372.142258 765.866494 370.5 763.340775 373.950916 763.340775 385.754499"/>
    <polygon id="Path-45" stroke="#EEEEEE" fill="#FFFFFF" points="765.247437 377.767316 759.953326 377.767316 757.838136 381.536518 754.995875 383.980607 753.377087 385.754499 777.377087 385.754499 774.248395 380.005212 770.218922 374.754499"/>
    <polygon id="Path-42" stroke="#EEEEEE" fill="#FFFFFF" points="760.941517 344.489776 759.866494 359.647612 760.404005 360.875049 762.374976 361.414811 763.93256 362.621898 763.93256 364.917871 765.018762 365.489776 765.866494 364.254683 765.866494 360.875049 764.483792 358.996427 763.404414 344.489776"/>
    <polygon id="Path-7" stroke="#1B150E" fill="#513F2B" transform="translate(785.103455, 352.877595) scale(-1, 1) translate(-785.103455, -352.877595) " points="783.440625 363.985191 783.440625 350.419643 778.923408 347.533799 779.499563 346.490599 783.440625 348.550378 784.008247 341.77 785.143737 342.054885 785.143737 349.858512 791 347.533799 791.283501 348.550378 785.103455 351.39073 785.143737 363.985191"/>
    <polygon id="Path-43" stroke="#EEEEEE" fill="#FFFFFF" points="790.723505 344.648668 789.574516 345.447158 788.413257 344.648668 787.528747 344.166603 786.444478 345.447158 784.539123 347.84703 783.623065 347.84703 782.727016 347.481228 781.609739 347.84703 781.173512 348.729043 781.173512 353.047286 781.609739 354.166603 782.727016 353.45026 783.623065 352.230507 784.539123 350.407156 791.173512 345.91448"/>
    <path d="M802.728602,277.5 C803.607747,274.275515 804.04732,271.98841 804.04732,270.638685 C804.04732,269.28896 803.607747,267.695571 802.728602,265.858518" id="Path-63" stroke-opacity="0.502704327" stroke="#000000"/>
    <path d="M802.728602,265.858518 C801.334788,262.393914 800.63788,259.632522 800.63788,257.574342 C800.63788,255.516161 801.334788,252.754769 802.728602,249.290165" id="Path-64" stroke-opacity="0.375" stroke="#000000"/>
    <path d="M803.728602,277.5 C804.607747,274.275515 805.04732,271.98841 805.04732,270.638685 C805.04732,269.28896 804.607747,267.695571 803.728602,265.858518" id="Path-63" stroke-opacity="0.502704327" stroke="#000000"/>
    <path d="M803.728602,265.858518 C802.334788,262.393914 801.63788,259.632522 801.63788,257.574342 C801.63788,255.516161 802.334788,252.754769 803.728602,249.290165" id="Path-64" stroke-opacity="0.375" stroke="#000000"/>
    <path d="M804.728602,277.5 C805.607747,274.275515 806.04732,271.98841 806.04732,270.638685 C806.04732,269.28896 805.607747,267.695571 804.728602,265.858518" id="Path-63" stroke-opacity="0.502704327" stroke="#000000"/>
    <path d="M804.728602,265.858518 C803.334788,262.393914 802.63788,259.632522 802.63788,257.574342 C802.63788,255.516161 803.334788,252.754769 804.728602,249.290165" id="Path-64" stroke-opacity="0.375" stroke="#000000"/>
    <path d="M805.728602,277.5 C806.607747,274.275515 807.04732,271.98841 807.04732,270.638685 C807.04732,269.28896 806.607747,267.695571 805.728602,265.858518" id="Path-63" stroke-opacity="0.502704327" stroke="#000000"/>
    <path d="M805.728602,265.858518 C804.334788,262.393914 803.63788,259.632522 803.63788,257.574342 C803.63788,255.516161 804.334788,252.754769 805.728602,249.290165" id="Path-64" stroke-opacity="0.375" stroke="#000000"/>
    <path d="M806.728602,277.5 C807.607747,274.275515 808.04732,271.98841 808.04732,270.638685 C808.04732,269.28896 807.607747,267.695571 806.728602,265.858518" id="Path-63" stroke-opacity="0.502704327" stroke="#000000"/>
    <path d="M806.728602,265.858518 C805.334788,262.393914 804.63788,259.632522 804.63788,257.574342 C804.63788,255.516161 805.334788,252.754769 806.728602,249.290165" id="Path-64" stroke-opacity="0.375" stroke="#000000"/>
    <path d="M807.728602,277.5 C808.607747,274.275515 809.04732,271.98841 809.04732,270.638685 C809.04732,269.28896 808.607747,267.695571 807.728602,265.858518" id="Path-63" stroke-opacity="0.502704327" stroke="#000000"/>
    <path d="M807.728602,265.858518 C806.334788,262.393914 805.63788,259.632522 805.63788,257.574342 C805.63788,255.516161 806.334788,252.754769 807.728602,249.290165" id="Path-64" stroke-opacity="0.375" stroke="#000000"/>
    <path d="M808.728602,277.5 C809.607747,274.275515 810.04732,271.98841 810.04732,270.638685 C810.04732,269.28896 809.607747,267.695571 808.728602,265.858518" id="Path-63" stroke-opacity="0.502704327" stroke="#000000"/>
    <path d="M808.728602,265.858518 C807.334788,262.393914 806.63788,259.632522 806.63788,257.574342 C806.63788,255.516161 807.334788,252.754769 808.728602,249.290165" id="Path-64" stroke-opacity="0.375" stroke="#000000"/>
    <path d="M809.728602,277.5 C810.607747,274.275515 811.04732,271.98841 811.04732,270.638685 C811.04732,269.28896 810.607747,267.695571 809.728602,265.858518" id="Path-63" stroke-opacity="0.5" stroke="#000000"/>
    <path d="M809.728602,265.858518 C808.334788,262.393914 807.63788,259.632522 807.63788,257.574342 C807.63788,255.516161 808.334788,252.754769 809.728602,249.290165" id="Path-64" stroke-opacity="0.375" stroke="#000000"/>
    <path d="M941.8,279.931647 C942.679145,276.707162 943.118718,274.420057 943.118718,273.070332 C943.118718,271.720607 942.679145,270.127218 941.8,268.290165" id="Path-63" stroke-opacity="0.5" stroke="#000000" transform="translate(942.459359, 274.110906) scale(-1, 1) translate(-942.459359, -274.110906) "/>
    <path d="M945.090722,268.568353 C943.696907,265.10375 943,262.342357 943,260.284177 C943,258.225996 943.696907,255.464604 945.090722,252" id="Path-64" stroke-opacity="0.375" stroke="#000000" transform="translate(944.045361, 260.284177) scale(-1, 1) translate(-944.045361, -260.284177) "/>
    <path d="M943.8,279.931647 C944.679145,276.707162 945.118718,274.420057 945.118718,273.070332 C945.118718,271.720607 944.679145,270.127218 943.8,268.290165" id="Path-63" stroke-opacity="0.5" stroke="#000000" transform="translate(944.459359, 274.110906) scale(-1, 1) translate(-944.459359, -274.110906) "/>
    <path d="M947.090722,268.568353 C945.696907,265.10375 945,262.342357 945,260.284177 C945,258.225996 945.696907,255.464604 947.090722,252" id="Path-64" stroke-opacity="0.375" stroke="#000000" transform="translate(946.045361, 260.284177) scale(-1, 1) translate(-946.045361, -260.284177) "/>
    <path d="M944.8,279.931647 C945.679145,276.707162 946.118718,274.420057 946.118718,273.070332 C946.118718,271.720607 945.679145,270.127218 944.8,268.290165" id="Path-63" stroke-opacity="0.5" stroke="#000000" transform="translate(945.459359, 274.110906) scale(-1, 1) translate(-945.459359, -274.110906) "/>
    <path d="M948.090722,268.568353 C946.696907,265.10375 946,262.342357 946,260.284177 C946,258.225996 946.696907,255.464604 948.090722,252" id="Path-64" stroke-opacity="0.375" stroke="#000000" transform="translate(947.045361, 260.284177) scale(-1, 1) translate(-947.045361, -260.284177) "/>
    <path d="M945.8,279.931647 C946.679145,276.707162 947.118718,274.420057 947.118718,273.070332 C947.118718,271.720607 946.679145,270.127218 945.8,268.290165" id="Path-63" stroke-opacity="0.5" stroke="#000000" transform="translate(946.459359, 274.110906) scale(-1, 1) translate(-946.459359, -274.110906) "/>
    <path d="M949.090722,268.568353 C947.696907,265.10375 947,262.342357 947,260.284177 C947,258.225996 947.696907,255.464604 949.090722,252" id="Path-64" stroke-opacity="0.375" stroke="#000000" transform="translate(948.045361, 260.284177) scale(-1, 1) translate(-948.045361, -260.284177) "/>
    <path d="M946.8,279.931647 C947.679145,276.707162 948.118718,274.420057 948.118718,273.070332 C948.118718,271.720607 947.679145,270.127218 946.8,268.290165" id="Path-63" stroke-opacity="0.5" stroke="#000000" transform="translate(947.459359, 274.110906) scale(-1, 1) translate(-947.459359, -274.110906) "/>
    <path d="M950.090722,268.568353 C948.696907,265.10375 948,262.342357 948,260.284177 C948,258.225996 948.696907,255.464604 950.090722,252" id="Path-64" stroke-opacity="0.375" stroke="#000000" transform="translate(949.045361, 260.284177) scale(-1, 1) translate(-949.045361, -260.284177) "/>
    <path d="M947.8,279.931647 C948.679145,276.707162 949.118718,274.420057 949.118718,273.070332 C949.118718,271.720607 948.679145,270.127218 947.8,268.290165" id="Path-63" stroke-opacity="0.5" stroke="#000000" transform="translate(948.459359, 274.110906) scale(-1, 1) translate(-948.459359, -274.110906) "/>
    <path d="M951.090722,268.568353 C949.696907,265.10375 949,262.342357 949,260.284177 C949,258.225996 949.696907,255.464604 951.090722,252" id="Path-64" stroke-opacity="0.375" stroke="#000000" transform="translate(950.045361, 260.284177) scale(-1, 1) translate(-950.045361, -260.284177) "/>
    <path d="M942.8,279.931647 C943.679145,276.707162 944.118718,274.420057 944.118718,273.070332 C944.118718,271.720607 943.679145,270.127218 942.8,268.290165" id="Path-63" stroke-opacity="0.5" stroke="#000000" transform="translate(943.459359, 274.110906) scale(-1, 1) translate(-943.459359, -274.110906) "/>
    <path d="M946.090722,268.568353 C944.696907,265.10375 944,262.342357 944,260.284177 C944,258.225996 944.696907,255.464604 946.090722,252" id="Path-64" stroke-opacity="0.375" stroke="#000000" transform="translate(945.045361, 260.284177) scale(-1, 1) translate(-945.045361, -260.284177) "/>
    <path d="M996.8,276.931647 C997.679145,273.707162 998.118718,271.420057 998.118718,270.070332 C998.118718,268.720607 997.679145,267.127218 996.8,265.290165" id="Path-63" stroke-opacity="0.5" stroke="#000000" transform="translate(997.459359, 271.110906) scale(-1, 1) translate(-997.459359, -271.110906) "/>
    <path d="M1000.09072,265.568353 C998.696907,262.10375 998,259.342357 998,257.284177 C998,255.225996 998.696907,252.464604 1000.09072,249" id="Path-64" stroke-opacity="0.375" stroke="#000000" transform="translate(999.045361, 257.284177) scale(-1, 1) translate(-999.045361, -257.284177) "/>
    <path d="M997.8,276.931647 C998.679145,273.707162 999.118718,271.420057 999.118718,270.070332 C999.118718,268.720607 998.679145,267.127218 997.8,265.290165" id="Path-63" stroke-opacity="0.5" stroke="#000000" transform="translate(998.459359, 271.110906) scale(-1, 1) translate(-998.459359, -271.110906) "/>
    <path d="M1001.09072,265.568353 C999.696907,262.10375 999,259.342357 999,257.284177 C999,255.225996 999.696907,252.464604 1001.09072,249" id="Path-64" stroke-opacity="0.375" stroke="#000000" transform="translate(1000.045361, 257.284177) scale(-1, 1) translate(-1000.045361, -257.284177) "/>
    <path d="M998.8,276.931647 C999.679145,273.707162 1000.11872,271.420057 1000.11872,270.070332 C1000.11872,268.720607 999.679145,267.127218 998.8,265.290165" id="Path-63" stroke-opacity="0.5" stroke="#000000" transform="translate(999.459359, 271.110906) scale(-1, 1) translate(-999.459359, -271.110906) "/>
    <path d="M1002.09072,265.568353 C1000.69691,262.10375 1000,259.342357 1000,257.284177 C1000,255.225996 1000.69691,252.464604 1002.09072,249" id="Path-64" stroke-opacity="0.375" stroke="#000000" transform="translate(1001.045361, 257.284177) scale(-1, 1) translate(-1001.045361, -257.284177) "/>
    <path d="M999.8,276.931647 C1000.67915,273.707162 1001.11872,271.420057 1001.11872,270.070332 C1001.11872,268.720607 1000.67915,267.127218 999.8,265.290165" id="Path-63" stroke-opacity="0.5" stroke="#000000" transform="translate(1000.459359, 271.110906) scale(-1, 1) translate(-1000.459359, -271.110906) "/>
    <path d="M1003.09072,265.568353 C1001.69691,262.10375 1001,259.342357 1001,257.284177 C1001,255.225996 1001.69691,252.464604 1003.09072,249" id="Path-64" stroke-opacity="0.375" stroke="#000000" transform="translate(1002.045361, 257.284177) scale(-1, 1) translate(-1002.045361, -257.284177) "/>
    <path d="M1000.8,276.931647 C1001.67915,273.707162 1002.11872,271.420057 1002.11872,270.070332 C1002.11872,268.720607 1001.67915,267.127218 1000.8,265.290165" id="Path-63" stroke-opacity="0.5" stroke="#000000" transform="translate(1001.459359, 271.110906) scale(-1, 1) translate(-1001.459359, -271.110906) "/>
    <path d="M1004.09072,265.568353 C1002.69691,262.10375 1002,259.342357 1002,257.284177 C1002,255.225996 1002.69691,252.464604 1004.09072,249" id="Path-64" stroke-opacity="0.375" stroke="#000000" transform="translate(1003.045361, 257.284177) scale(-1, 1) translate(-1003.045361, -257.284177) "/>
    <path d="M1001.8,276.931647 C1002.67915,273.707162 1003.11872,271.420057 1003.11872,270.070332 C1003.11872,268.720607 1002.67915,267.127218 1001.8,265.290165" id="Path-63" stroke-opacity="0.5" stroke="#000000" transform="translate(1002.459359, 271.110906) scale(-1, 1) translate(-1002.459359, -271.110906) "/>
    <path d="M1005.09072,265.568353 C1003.69691,262.10375 1003,259.342357 1003,257.284177 C1003,255.225996 1003.69691,252.464604 1005.09072,249" id="Path-64" stroke-opacity="0.375" stroke="#000000" transform="translate(1004.045361, 257.284177) scale(-1, 1) translate(-1004.045361, -257.284177) "/>
    <path d="M1002.8,276.931647 C1003.67915,273.707162 1004.11872,271.420057 1004.11872,270.070332 C1004.11872,268.720607 1003.67915,267.127218 1002.8,265.290165" id="Path-63" stroke-opacity="0.5" stroke="#000000" transform="translate(1003.459359, 271.110906) scale(-1, 1) translate(-1003.459359, -271.110906) "/>
    <path d="M1006.09072,265.568353 C1004.69691,262.10375 1004,259.342357 1004,257.284177 C1004,255.225996 1004.69691,252.464604 1006.09072,249" id="Path-64" stroke-opacity="0.375" stroke="#000000" transform="translate(1005.045361, 257.284177) scale(-1, 1) translate(-1005.045361, -257.284177) "/>
    <polygon id="Path-31" stroke="#EEEEEE" fill="#FFFFFF" points="437.5 217.75 435 219.167389 432.5 222.469468 429.718265 224.869883 425.304463 226.969468 422 229.469468 419 233.048167 416.013411 237.612818 414 242.464939 413.116577 245.455147 411.855594 251.982815 411 258.122755 411 261.626373 411.564343 262.7176 459 262.469468 459 256.156968 457.538947 250.469468 456.542688 246.969534 455.537705 243.704712 455 240.818429 451 234.144519 449.055846 231.872645 447.275147 229.469468 444.867232 227.9949 442.701478 226.395032 441.771401 225.48856 440.797486 224.148347 439.5 222.469468 439.5 219.167389"/>
    <polygon id="Path-7" stroke="#1B150E" fill="#513F2B" transform="translate(604.103455, 352.877595) scale(-1, 1) translate(-604.103455, -352.877595) " points="602.440625 363.985191 602.440625 350.419643 597.923408 347.533799 598.499563 346.490599 602.440625 348.550378 603.008247 341.77 604.143737 342.054885 604.143737 349.858512 610 347.533799 610.283501 348.550378 604.103455 351.39073 604.143737 363.985191"/>
    <path id="Path-55" stroke="#EEEEEE" fill="#FFFFFF" d="M 1644.08 297.715 L 1641 301.417 L 1641 304.204 L 1645.556 304.204 L 1650.117 307 L 1653 307 L 1653 304.204 L 1650.02 299.05 L 1644.08 297.715 Z"/>
  </g>
</svg>